{
.appVersion = "1267";
DisplayStrings = (
"/lcaron/lcaron/tcaron/tcaron",
"/tugrik"
);
classes = (
{
code = "zero one two three four five six seven eight nine parenleft parenright";
name = standard;
},
{
code = "zerosuperior onesuperior twosuperior threesuperior foursuperior fivesuperior sixsuperior sevensuperior eightsuperior ninesuperior parenleftsuperior parenrightsuperior";
name = sups;
},
{
code = "zeroinferior oneinferior twoinferior threeinferior fourinferior fiveinferior sixinferior seveninferior eightinferior nineinferior parenleftinferior parenrightinferior";
name = subs;
},
{
code = "zero.numerator one.numerator two.numerator three.numerator four.numerator five.numerator six.numerator seven.numerator eight.numerator nine.numerator parenleft.numerator parenright.numerator";
name = numerator;
},
{
code = "zero.denominator one.denominator two.denominator three.denominator four.denominator five.denominator six.denominator seven.denominator eight.denominator nine.denominator parenleft.denominator parenright.denominator";
name = denominator;
},
{
code = "zero.otlf one.otlf two.otlf three.otlf four.otlf five.otlf six.otlf seven.otlf eight.otlf nine.otlf parenleft.otlf parenright.otlf";
name = tnum1;
},
{
code = "alef-hb bet-hb gimel-hb dalet-hb he-hb vav-hb zayin-hb het-hb tet-hb yod-hb finalkaf-hb kaf-hb lamed-hb finalmem-hb mem-hb finalnun-hb nun-hb samekh-hb ayin-hb finalpe-hb pe-hb finaltsadi-hb tsadi-hb qof-hb resh-hb shin-hb tav-hb";
name = HebrewLetters;
}
);
copyright = "Copyright 2015 The Rubik Project Authors (https://github.com/googlefonts/rubik)";
customParameters = (
{
name = hheaAscender;
value = 935;
},
{
name = hheaDescender;
value = -250;
},
{
name = hheaLineGap;
value = 0;
},
{
name = license;
value = "This Font Software is licensed under the SIL Open Font License, Version 1.1. This license is available with a FAQ at: http://scripts.sil.org/OFL";
},
{
name = licenseURL;
value = "http://scripts.sil.org/OFL";
},
{
name = panose;
value = (
0,
0,

glyphs = (
{
glyphname = A;
layers = (
{
anchors = (
{
name = bottom;
position = "{325, 0}";
},
{
name = ogonek;
position = "{585, 10}";
},
{
name = top;
position = "{325, 700}";
}
);
guideLines = (
{
position = "{0, 680}";
},
{
angle = 90;
position = "{35, 0}";
},
{
angle = 90;
position = "{637, 0}";
},
{
angle = 90;
position = "{336, 0}";
}
);
layerId = "581BC726-83A6-4935-8633-5A6508251040";
paths = (
{
closed = 1;
nodes = (
"64 0 LINE SMOOTH",
"77 0 OFFCURVE",
"84 10 OFFCURVE",
"86 15 CURVE SMOOTH",
"148 175 LINE",
"502 175 LINE",
"564 15 LINE SMOOTH",
"566 10 OFFCURVE",
"573 0 OFFCURVE",
"586 0 CURVE SMOOTH",
"606 0 LINE SMOOTH",
"617 0 OFFCURVE",
"626 9 OFFCURVE",
"626 20 CURVE SMOOTH",
"626 22 OFFCURVE",
"625 28 OFFCURVE",
"624 31 CURVE SMOOTH",
"371 680 LINE SMOOTH",
"366 693 OFFCURVE",
"358 700 OFFCURVE",
"342 700 CURVE SMOOTH",
"308 700 LINE SMOOTH",
"292 700 OFFCURVE",
"284 693 OFFCURVE",
"279 680 CURVE SMOOTH",
"26 31 LINE SMOOTH",
"25 28 OFFCURVE",
"24 22 OFFCURVE",
"24 20 CURVE SMOOTH",
"24 9 OFFCURVE",
"33 0 OFFCURVE",
"44 0 CURVE SMOOTH"
);
},
{
closed = 1;
nodes = (
"325 629 LINE",
"478 235 LINE",
"172 235 LINE"
);
}
);
width = 650;
},
{
anchors = (
{
name = bottom;
position = "{378, 0}";
},
{
name = ogonek;
position = "{679, 10}";
},
{
name = top;
position = "{378, 700}";
}
);
layerId = "EC64484B-0978-4CB1-9EE9-C40A2D8C4059";
paths = (
{
closed = 1;
nodes = (
"207 0 LINE SMOOTH",
"233 0 OFFCURVE",
"242 14 OFFCURVE",
"246 25 CURVE SMOOTH",
"270 91 LINE",
"485 91 LINE",
"509 25 LINE SMOOTH",
"513 14 OFFCURVE",
"522 0 OFFCURVE",
"548 0 CURVE SMOOTH",
"733 0 LINE SMOOTH",
"745 0 OFFCURVE",
"755 10 OFFCURVE",
"755 22 CURVE SMOOTH",
"755 24 OFFCURVE",
"755 26 OFFCURVE",
"754 29 CURVE SMOOTH",
"531 667 LINE",
"527 682 OFFCURVE",
"513 700 OFFCURVE",
"486 700 CURVE SMOOTH",
"269 700 LINE SMOOTH",
"242 700 OFFCURVE",
"228 682 OFFCURVE",
"224 667 CURVE",
"1 29 LINE SMOOTH",
"0 26 OFFCURVE",
"0 24 OFFCURVE",
"0 22 CURVE SMOOTH",
"0 10 OFFCURVE",
"10 0 OFFCURVE",
"22 0 CURVE SMOOTH"
);
},
{
closed = 1;
nodes = (
"377 472 LINE",
"434 286 LINE",
"321 286 LINE"
);
}
);
width = 755;
}
);
leftKerningGroup = A;
rightKerningGroup = A;
unicode = 0041;
userData = {
com.typemytype.robofont.guides = (
{
angle = 0;
isGlobal = 0;
magnetic = 5;
x = 0;
y = 680;
},
{
angle = 90;
isGlobal = 0;
magnetic = 5;
x = 35;
y = 0;
},
{
angle = 90;
isGlobal = 0;
magnetic = 5;
x = 637;
y = 0;
},
{
angle = 90;
isGlobal = 0;
magnetic = 5;
x = 336;
y = 0;
}
);
};
},
{
glyphname = B;
layers = (
{
guideLines = (
{
position = "{0, 271}";
},
{
position = "{0, 437}";
},
{
position = "{0, 521}";
},
{
position = "{0, 198}";
},
{
position = "{0, 9}";
},
{
angle = 90;
position = "{355, 0}";
},
{
angle = 90;
position = "{583, 0}";
},
{
angle = 90;
position = "{94, 0}";
}
);
layerId = "581BC726-83A6-4935-8633-5A6508251040";
paths = (
{
closed = 1;
nodes = (
"384 0 LINE",
"520 0 OFFCURVE",
"592 97 OFFCURVE",
"592 198 CURVE SMOOTH",
"592 282 OFFCURVE",
"543 342 OFFCURVE",
"490 369 CURVE",
"530 388 OFFCURVE",
"578 435 OFFCURVE",
"578 521 CURVE SMOOTH",
"578 616 OFFCURVE",
"517 700 OFFCURVE",
"377 700 CURVE SMOOTH",
"116 700 LINE SMOOTH",
"103 700 OFFCURVE",
"94 691 OFFCURVE",
"94 677 CURVE SMOOTH",
"94 22 LINE SMOOTH",
"94 9 OFFCURVE",
"103 0 OFFCURVE",
"116 0 CURVE SMOOTH"
);
},
{
closed = 1;
nodes = (
"157 336 LINE",
"374 336 LINE",
"473 336 OFFCURVE",
"529 279 OFFCURVE",
"529 198 CURVE SMOOTH",
"529 118 OFFCURVE",
"473 60 OFFCURVE",
"374 60 CURVE SMOOTH",
"157 60 LINE"
);
},
{
closed = 1;
nodes = (
"157 640 LINE",
"364 640 LINE",
"463 640 OFFCURVE",
"515 600 OFFCURVE",
"515 521 CURVE SMOOTH",
"515 442 OFFCURVE",
"463 396 OFFCURVE",
"364 396 CURVE SMOOTH",
"157 396 LINE"
);
}
);
width = 653;
},
{
guideLines = (
{
position = "{0, 221}";
},
{
position = "{0, 482}";
},
{
angle = 90;
position = "{399, 0}";
},
{
angle = 90;
position = "{716, 0}";
}
);
hints = (
{
horizontal = 1;
place = "{-2147483648, 0}";
type = Tag;
}
);
layerId = "EC64484B-0978-4CB1-9EE9-C40A2D8C4059";
paths = (
{
closed = 1;
nodes = (
"424 0 LINE SMOOTH",
"605 0 OFFCURVE",
"706 70 OFFCURVE",
"706 220 CURVE SMOOTH",
"706 286 OFFCURVE",
"662 344 OFFCURVE",
"611 365 CURVE",
"643 381 OFFCURVE",
"691 426 OFFCURVE",
"691 490 CURVE SMOOTH",
"691 630 OFFCURVE",
"605 700 OFFCURVE",
"414 700 CURVE SMOOTH",
"82 700 LINE SMOOTH",
"67 700 OFFCURVE",
"55 688 OFFCURVE",
"55 673 CURVE SMOOTH",
"55 27 LINE SMOOTH",
"55 12 OFFCURVE",
"67 0 OFFCURVE",
"82 0 CURVE SMOOTH"
);
},
{
closed = 1;
nodes = (
"305 270 LINE",
"398 270 LINE SMOOTH",
"428 270 OFFCURVE",
"444 245 OFFCURVE",
"444 221 CURVE SMOOTH",
"444 199 OFFCURVE",
"431 172 OFFCURVE",
"398 172 CURVE SMOOTH",
"305 172 LINE"
);
},
{
closed = 1;
nodes = (
"305 528 LINE",
"389 528 LINE SMOOTH",
"418 528 OFFCURVE",
"430 503 OFFCURVE",
"430 482 CURVE SMOOTH",
"430 461 OFFCURVE",
"418 437 OFFCURVE",
"389 437 CURVE SMOOTH",
"305 437 LINE"
);
}
);
width = 734;
}
);
leftKerningGroup = I;
unicode = 0042;
userData = {
com.typemytype.robofont.guides = (
{
angle = 0;
isGlobal = 0;
magnetic = 5;
x = 0;
y = 271;
},
{
angle = 0;
isGlobal = 0;
magnetic = 5;
x = 0;
y = 437;
},
{
angle = 0;
isGlobal = 0;
magnetic = 5;
x = 0;
y = 521;
},
{
angle = 0;
isGlobal = 0;
magnetic = 5;
x = 0;
y = 198;
},
{
angle = 0;
isGlobal = 0;
magnetic = 5;
x = 0;
y = 9;
},
{
angle = 90;
isGlobal = 0;
magnetic = 5;
x = 355;
y = 0;
},
{
angle = 90;
isGlobal = 0;
magnetic = 5;
x = 583;
y = 0;
},
{
angle = 90;
isGlobal = 0;
magnetic = 5;
x = 94;
y = 0;
}
);
};
},
{
glyphname = C;
layers = (
{
anchors = (
{
name = bottom;
position = "{326, 0}";
},
{
name = top;
position = "{326, 700}";
}
);
guideLines = (
{
position = "{0, 434}";
},
{
position = "{0, 266}";
},
{
position = "{0, 710}";
},
{
position = "{0, -10}";
},
{
angle = 90;
position = "{599, 0}";
},
{
angle = 90;
position = "{209, 0}";
},
{
angle = 90;
position = "{149, 0}";
},
{
angle = 90;
position = "{332, 0}";
}
);
layerId = "581BC726-83A6-4935-8633-5A6508251040";
paths = (
{
closed = 1;
nodes = (
"521 -10 OFFCURVE",
"593 111 OFFCURVE",
"598 206 CURVE SMOOTH",
"599 218 OFFCURVE",
"589 226 OFFCURVE",
"577 226 CURVE SMOOTH",
"557 226 LINE SMOOTH",
"546 226 OFFCURVE",
"538 221 OFFCURVE",
"535 205 CURVE SMOOTH",
"509 86 OFFCURVE",
"438 50 OFFCURVE",
"331 50 CURVE SMOOTH",
"209 50 OFFCURVE",
"134 115 OFFCURVE",
"129 266 CURVE SMOOTH",
"127 323 OFFCURVE",
"127 379 OFFCURVE",
"129 434 CURVE SMOOTH",
"134 585 OFFCURVE",
"209 650 OFFCURVE",
"331 650 CURVE SMOOTH",
"438 650 OFFCURVE",
"509 614 OFFCURVE",
"535 495 CURVE SMOOTH",
"538 479 OFFCURVE",
"546 474 OFFCURVE",
"557 474 CURVE SMOOTH",
"577 474 LINE SMOOTH",
"589 474 OFFCURVE",
"599 482 OFFCURVE",
"598 494 CURVE SMOOTH",
"593 589 OFFCURVE",
"521 710 OFFCURVE",
"331 710 CURVE SMOOTH",
"149 710 OFFCURVE",
"72 595 OFFCURVE",
"66 439 CURVE SMOOTH",
"64 382 OFFCURVE",
"64 315 OFFCURVE",
"66 261 CURVE SMOOTH",
"72 105 OFFCURVE",
"149 -10 OFFCURVE",
"331 -10 CURVE SMOOTH"
);
}
);
width = 651;
},
{
anchors = (
{
name = bottom;
position = "{367, 0}";
},
{
name = top;
position = "{367, 700}";
}
);
guideLines = (
{
position = "{0, 434}";
},
{
position = "{0, 266}";
},
{
position = "{0, 710}";
},
{
position = "{0, -10}";
},
{
angle = 90;
position = "{383, 0}";
}
);
layerId = "EC64484B-0978-4CB1-9EE9-C40A2D8C4059";
paths = (
{
closed = 1;
nodes = (
"542 -10 OFFCURVE",
"706 64 OFFCURVE",
"709 246 CURVE SMOOTH",
"709 258 OFFCURVE",
"699 268 OFFCURVE",
"687 268 CURVE",
"483 268 LINE",
"461 268 OFFCURVE",
"453 262 OFFCURVE",
"446 239 CURVE SMOOTH",
"433 199 OFFCURVE",
"405 185 OFFCURVE",
"371 185 CURVE SMOOTH",
"327 185 OFFCURVE",
"299 205 OFFCURVE",
"297 266 CURVE SMOOTH",
"295 323 OFFCURVE",
"295 379 OFFCURVE",
"297 434 CURVE",
"299 495 OFFCURVE",
"327 515 OFFCURVE",
"371 515 CURVE SMOOTH",
"405 515 OFFCURVE",
"431 504 OFFCURVE",
"446 461 CURVE SMOOTH",
"454 439 OFFCURVE",
"461 432 OFFCURVE",
"483 432 CURVE",
"687 432 LINE",
"699 432 OFFCURVE",
"709 442 OFFCURVE",
"709 454 CURVE SMOOTH",
"706 636 OFFCURVE",
"542 710 OFFCURVE",
"372 710 CURVE SMOOTH",
"185 710 OFFCURVE",
"45 625 OFFCURVE",
"37 439 CURVE",
"35 382 OFFCURVE",
"35 315 OFFCURVE",
"37 261 CURVE",
"45 70 OFFCURVE",
"180 -10 OFFCURVE",
"372 -10 CURVE SMOOTH"
);
}
);
width = 733;
}
);
leftKerningGroup = O;
rightKerningGroup = C;
unicode = 0043;
userData = {
com.typemytype.robofont.guides = (
{
angle = 0;
isGlobal = 0;
magnetic = 5;
x = 0;
y = 434;
},
{
angle = 0;
isGlobal = 0;
magnetic = 5;
x = 0;
y = 266;
},
{
angle = 0;
isGlobal = 0;
magnetic = 5;
x = 0;
y = 710;
},
{
angle = 0;
isGlobal = 0;
magnetic = 5;
x = 0;
y = "-10";
},
{
angle = 90;
isGlobal = 0;
magnetic = 5;
x = 599;
y = 0;
},
{
angle = 90;
isGlobal = 0;
magnetic = 5;
x = 209;
y = 0;
},
{
angle = 90;
isGlobal = 0;
magnetic = 5;
x = 149;
y = 0;
},
{
angle = 90;
isGlobal = 0;
magnetic = 5;
x = 332;
y = 0;
}
);
};
},
{
glyphname = D;
layers = (
{
guideLines = (
{
position = "{0, 425}";
},
{
position = "{0, 276}";
},
{
position = "{0, 9}";
},
{
angle = 90;
position = "{320, 0}";
},
{
angle = 90;
position = "{603, 0}";
},
{
angle = 90;
position = "{94, 0}";
}
);
layerId = "581BC726-83A6-4935-8633-5A6508251040";
paths = (
{
closed = 1;
nodes = (
"334 0 LINE SMOOTH",
"540 0 OFFCURVE",
"603 87 OFFCURVE",
"607 271 CURVE SMOOTH",
"608 331 OFFCURVE",
"608 370 OFFCURVE",
"607 430 CURVE SMOOTH",
"604 604 OFFCURVE",
"541 700 OFFCURVE",
"329 700 CURVE",
"116 700 LINE SMOOTH",
"103 700 OFFCURVE",
"94 691 OFFCURVE",
"94 677 CURVE SMOOTH",
"94 22 LINE SMOOTH",
"94 9 OFFCURVE",
"103 0 OFFCURVE",
"116 0 CURVE SMOOTH"
);
},
{
closed = 1;
nodes = (
"157 640 LINE",
"324 640 LINE SMOOTH",
"484 640 OFFCURVE",
"541 571 OFFCURVE",
"544 425 CURVE SMOOTH",
"545 365 OFFCURVE",
"545 336 OFFCURVE",
"544 276 CURVE SMOOTH",
"541 120 OFFCURVE",
"488 60 OFFCURVE",
"329 60 CURVE SMOOTH",
"157 60 LINE"
);
}
);
width = 677;
},
{
guideLines = (
{
angle = 90;
position = "{380, 0}";
}
);
hints = (
{
horizontal = 1;
place = "{-2147483648, 0}";
type = Tag;
}
);
layerId = "EC64484B-0978-4CB1-9EE9-C40A2D8C4059";
paths = (
{
closed = 1;
nodes = (
"375 0 LINE SMOOTH",
"566 0 OFFCURVE",
"696 87 OFFCURVE",
"704 276 CURVE SMOOTH",
"706 330 OFFCURVE",
"706 368 OFFCURVE",
"704 425 CURVE SMOOTH",
"697 604 OFFCURVE",
"557 700 OFFCURVE",
"370 700 CURVE",
"82 700 LINE SMOOTH",
"67 700 OFFCURVE",
"55 688 OFFCURVE",
"55 673 CURVE SMOOTH",
"55 27 LINE SMOOTH",
"55 12 OFFCURVE",
"67 0 OFFCURVE",
"82 0 CURVE SMOOTH"
);
},
{
closed = 1;
nodes = (
"305 505 LINE",
"365 505 LINE SMOOTH",
"410 505 OFFCURVE",
"447 481 OFFCURVE",
"450 425 CURVE SMOOTH",
"453 370 OFFCURVE",
"453 333 OFFCURVE",
"450 276 CURVE SMOOTH",
"447 220 OFFCURVE",
"414 195 OFFCURVE",
"370 195 CURVE SMOOTH",
"305 195 LINE"
);
}
);
width = 740;
}
);
leftKerningGroup = I;
rightKerningGroup = D;
unicode = 0044;
userData = {
com.typemytype.robofont.guides = (
{
angle = 0;
isGlobal = 0;
magnetic = 5;
x = 0;
y = 425;
},
{
angle = 0;
isGlobal = 0;
magnetic = 5;
x = 0;
y = 276;
},
{
angle = 0;
isGlobal = 0;
magnetic = 5;
x = 0;
y = 9;
},
{
angle = 90;
isGlobal = 0;
magnetic = 5;
x = 320;
y = 0;
},
{
angle = 90;
isGlobal = 0;
magnetic = 5;
x = 603;
y = 0;
},
{
angle = 90;
isGlobal = 0;
magnetic = 5;
x = 94;
y = 0;
}
);
};
},
{
glyphname = E;
layers = (
{
anchors = (
{
name = bottom;
position = "{296, 0}";
},
{
name = ogonek;
position = "{533, 10}";
},
{
name = top;
position = "{296, 700}";
},
{
name = topleft;
position = "{20, 700}";
}
);
guideLines = (
{
position = "{0, 334}";
},
{
position = "{0, 9}";
},
{
position = "{0, 376}";
},
{
position = "{0, 691}";
},
{
position = "{0, 649}";
},
{
angle = 90;
position = "{664, 0}";
},
{
angle = 90;
position = "{94, 0}";
},
{
angle = 90;
position = "{511, 0}";
}
);
layerId = "581BC726-83A6-4935-8633-5A6508251040";
paths = (
{
closed = 1;
nodes = (
"514 0 LINE SMOOTH",
"528 0 OFFCURVE",
"537 9 OFFCURVE",
"537 22 CURVE SMOOTH",
"537 37 LINE SMOOTH",
"537 51 OFFCURVE",
"528 60 OFFCURVE",
"514 60 CURVE",
"157 60 LINE",
"157 325 LINE",
"484 325 LINE SMOOTH",
"498 325 OFFCURVE",
"507 334 OFFCURVE",
"507 347 CURVE SMOOTH",
"507 362 LINE SMOOTH",
"507 376 OFFCURVE",
"498 385 OFFCURVE",
"484 385 CURVE SMOOTH",
"157 385 LINE",
"157 640 LINE",
"506 640 LINE SMOOTH",
"520 640 OFFCURVE",
"529 649 OFFCURVE",
"529 662 CURVE SMOOTH",
"529 677 LINE SMOOTH",
"529 691 OFFCURVE",
"520 700 OFFCURVE",
"506 700 CURVE SMOOTH",
"116 700 LINE SMOOTH",
"103 700 OFFCURVE",
"94 691 OFFCURVE",
"94 677 CURVE SMOOTH",
"94 22 LINE SMOOTH",
"94 9 OFFCURVE",
"103 0 OFFCURVE",
"116 0 CURVE SMOOTH"
);
}
);
width = 592;
},
{
anchors = (
{
name = bottom;
position = "{334, 0}";
},
{
name = ogonek;
position = "{600, 10}";
},
{
name = top;
position = "{334, 700}";
},
{
name = topleft;
position = "{20, 700}";
}
);
guideLines = (
{
position = "{0, 350}";
}
);
layerId = "EC64484B-0978-4CB1-9EE9-C40A2D8C4059";
paths = (
{
closed = 1;
nodes = (
"603 0 LINE SMOOTH",
"618 0 OFFCURVE",
"630 12 OFFCURVE",
"630 27 CURVE SMOOTH",
"630 168 LINE SMOOTH",
"630 183 OFFCURVE",
"618 195 OFFCURVE",
"603 195 CURVE SMOOTH",
"295 195 LINE",
"295 258 LINE",
"573 258 LINE SMOOTH",
"588 258 OFFCURVE",
"600 270 OFFCURVE",
"600 285 CURVE SMOOTH",
"600 415 LINE SMOOTH",
"600 430 OFFCURVE",
"588 442 OFFCURVE",
"573 442 CURVE SMOOTH",
"295 442 LINE",
"295 505 LINE",
"595 505 LINE SMOOTH",
"610 505 OFFCURVE",
"622 517 OFFCURVE",
"622 532 CURVE SMOOTH",
"622 673 LINE SMOOTH",
"622 688 OFFCURVE",
"610 700 OFFCURVE",
"595 700 CURVE SMOOTH",
"82 700 LINE SMOOTH",
"67 700 OFFCURVE",
"55 688 OFFCURVE",
"55 673 CURVE SMOOTH",
"55 27 LINE SMOOTH",
"55 12 OFFCURVE",
"67 0 OFFCURVE",
"82 0 CURVE SMOOTH"
);
}
);
width = 667;
}
);
leftKerningGroup = I;
rightKerningGroup = E;
unicode = 0045;
userData = {
com.typemytype.robofont.guides = (
{
angle = 0;
isGlobal = 0;
magnetic = 5;
x = 0;
y = 334;
},
{
angle = 0;
isGlobal = 0;
magnetic = 5;
x = 0;
y = 9;
},
{
angle = 0;
isGlobal = 0;
magnetic = 5;
x = 0;
y = 376;
},
{
angle = 0;
isGlobal = 0;
magnetic = 5;
x = 0;
y = 691;
},
{
angle = 0;
isGlobal = 0;
magnetic = 5;
x = 0;
y = 649;
},
{
angle = 90;
isGlobal = 0;
magnetic = 5;
x = 664;
y = 0;
},
{
angle = 90;
isGlobal = 0;
magnetic = 5;
x = 94;
y = 0;
},
{
angle = 90;
isGlobal = 0;
magnetic = 5;
x = 511;
y = 0;
}
);
};
},
{
glyphname = F;
layers = (
{
guideLines = (
{
position = "{0, 320}";
},
{
position = "{0, 691}";
},
{
position = "{0, 649}";
},
{
position = "{0, 362}";
},
{
position = "{0, 9}";
},
{
angle = 90;
position = "{761, 0}";
},
{
angle = 90;
position = "{94, 0}";
},
{
angle = 90;
position = "{487, 0}";
},
{
angle = 90;
position = "{139, 0}";
}
);
layerId = "581BC726-83A6-4935-8633-5A6508251040";
paths = (
{
closed = 1;
nodes = (
"134 0 LINE SMOOTH",
"148 0 OFFCURVE",
"157 9 OFFCURVE",
"157 22 CURVE SMOOTH",
"157 311 LINE",
"482 311 LINE SMOOTH",
"496 311 OFFCURVE",
"505 320 OFFCURVE",
"505 333 CURVE SMOOTH",
"505 348 LINE SMOOTH",
"505 362 OFFCURVE",
"496 371 OFFCURVE",
"482 371 CURVE SMOOTH",
"157 371 LINE",
"157 640 LINE",
"502 640 LINE SMOOTH",
"516 640 OFFCURVE",
"525 649 OFFCURVE",
"525 662 CURVE SMOOTH",
"525 677 LINE SMOOTH",
"525 691 OFFCURVE",
"516 700 OFFCURVE",
"502 700 CURVE SMOOTH",
"116 700 LINE",
"103 700 OFFCURVE",
"94 691 OFFCURVE",
"94 677 CURVE SMOOTH",
"94 22 LINE SMOOTH",
"94 9 OFFCURVE",
"103 0 OFFCURVE",
"116 0 CURVE SMOOTH"
);
}
);
width = 570;
},
{
guideLines = (
{
position = "{0, 350}";
},
{
angle = 90;
position = "{645, 0}";
}
);
hints = (
{
horizontal = 1;
place = "{-2147483648, 0}";
type = Tag;
}
);
layerId = "EC64484B-0978-4CB1-9EE9-C40A2D8C4059";
paths = (
{
closed = 1;
nodes = (
"273 0 LINE SMOOTH",
"288 0 OFFCURVE",
"300 12 OFFCURVE",
"300 27 CURVE SMOOTH",
"300 215 LINE",
"566 215 LINE SMOOTH",
"581 215 OFFCURVE",
"593 227 OFFCURVE",
"593 242 CURVE SMOOTH",
"593 393 LINE SMOOTH",
"593 408 OFFCURVE",
"581 420 OFFCURVE",
"566 420 CURVE SMOOTH",
"300 420 LINE",
"300 494 LINE",
"586 494 LINE SMOOTH",
"601 494 OFFCURVE",
"613 506 OFFCURVE",
"613 521 CURVE SMOOTH",
"613 673 LINE SMOOTH",
"613 688 OFFCURVE",
"601 700 OFFCURVE",
"586 700 CURVE SMOOTH",
"82 700 LINE SMOOTH",
"67 700 OFFCURVE",
"55 688 OFFCURVE",
"55 673 CURVE SMOOTH",
"55 27 LINE SMOOTH",
"55 12 OFFCURVE",
"67 0 OFFCURVE",
"82 0 CURVE SMOOTH"
);
}
);
width = 646;
}
);
leftKerningGroup = I;
unicode = 0046;
userData = {
com.typemytype.robofont.guides = (
{
angle = 0;
isGlobal = 0;
magnetic = 5;
x = 0;
y = 320;
},
{
angle = 0;
isGlobal = 0;
magnetic = 5;
x = 0;
y = 691;
},
{
angle = 0;
isGlobal = 0;
magnetic = 5;
x = 0;
y = 649;
},
{
angle = 0;
isGlobal = 0;
magnetic = 5;
x = 0;
y = 362;
},
{
angle = 0;
isGlobal = 0;
magnetic = 5;
x = 0;
y = 9;
},
{
angle = 90;
isGlobal = 0;
magnetic = 5;
x = 761;
y = 0;
},
{
angle = 90;
isGlobal = 0;
magnetic = 5;
x = 94;
y = 0;
},
{
angle = 90;
isGlobal = 0;
magnetic = 5;
x = 487;
y = 0;
},
{
angle = 90;
isGlobal = 0;
magnetic = 5;
x = 139;
y = 0;
}
);
};
},
{
glyphname = G;
layers = (
{
guideLines = (
{
position = "{0, -10}";
},
{
position = "{0, 260}";
},
{
position = "{0, 440}";
},
{
angle = 90;
position = "{334, 0}";
},
{
angle = 90;
position = "{133, 0}";
},
{
angle = 90;
position = "{604, 0}";
},
{
angle = 90;
position = "{67, 0}";
}
);
layerId = "581BC726-83A6-4935-8633-5A6508251040";
paths = (
{
closed = 1;
nodes = (
"506 -10 OFFCURVE",
"604 100 OFFCURVE",
"604 260 CURVE SMOOTH",
"604 348 LINE SMOOTH",
"604 362 OFFCURVE",
"595 371 OFFCURVE",
"581 371 CURVE SMOOTH",
"367 371 LINE SMOOTH",
"354 371 OFFCURVE",
"345 362 OFFCURVE",
"345 348 CURVE SMOOTH",
"345 334 LINE SMOOTH",
"345 320 OFFCURVE",
"354 311 OFFCURVE",
"367 311 CURVE SMOOTH",
"541 311 LINE",
"541 260 LINE SMOOTH",
"541 115 OFFCURVE",
"452 50 OFFCURVE",
"334 50 CURVE SMOOTH",
"215 50 OFFCURVE",
"135 110 OFFCURVE",
"130 260 CURVE SMOOTH",
"128 320 OFFCURVE",
"128 380 OFFCURVE",
"130 440 CURVE SMOOTH",
"135 590 OFFCURVE",
"215 650 OFFCURVE",
"334 650 CURVE SMOOTH",
"453 650 OFFCURVE",
"510 587 OFFCURVE",
"530 525 CURVE SMOOTH",
"535 510 OFFCURVE",
"539 505 OFFCURVE",
"551 505 CURVE SMOOTH",
"573 505 LINE SMOOTH",
"586 505 OFFCURVE",
"595 513 OFFCURVE",
"594 525 CURVE SMOOTH",
"591 582 OFFCURVE",
"519 710 OFFCURVE",
"334 710 CURVE SMOOTH",
"163 710 OFFCURVE",
"72 602 OFFCURVE",
"67 445 CURVE SMOOTH",
"65 385 OFFCURVE",
"65 315 OFFCURVE",
"67 255 CURVE SMOOTH",
"72 99 OFFCURVE",
"162 -10 OFFCURVE",
"334 -10 CURVE SMOOTH"
);
}
);
width = 664;
},
{
guideLines = (
{
position = "{0, 710}";
},
{
position = "{0, -10}";
},
{
position = "{0, 440}";
},
{
position = "{0, 270}";
},
{
angle = 90;
position = "{384, 0}";
},
{
angle = 90;
position = "{728, 0}";
}
);
hints = (
{
horizontal = 1;
place = "{-2147483648, 0}";
type = Tag;
}
);
layerId = "EC64484B-0978-4CB1-9EE9-C40A2D8C4059";
paths = (
{
closed = 1;
nodes = (
"576 -10 OFFCURVE",
"718 85 OFFCURVE",
"718 265 CURVE SMOOTH",
"718 395 LINE SMOOTH",
"718 410 OFFCURVE",
"706 422 OFFCURVE",
"691 422 CURVE SMOOTH",
"416 422 LINE SMOOTH",
"401 422 OFFCURVE",
"389 410 OFFCURVE",
"389 395 CURVE SMOOTH",
"389 284 LINE SMOOTH",
"389 269 OFFCURVE",
"401 257 OFFCURVE",
"416 257 CURVE SMOOTH",
"463 257 LINE",
"463 256 LINE",
"463 205 OFFCURVE",
"428 185 OFFCURVE",
"378 185 CURVE SMOOTH",
"329 185 OFFCURVE",
"299 210 OFFCURVE",
"297 270 CURVE",
"295 327 OFFCURVE",
"295 385 OFFCURVE",
"297 440 CURVE",
"299 490 OFFCURVE",
"325 515 OFFCURVE",
"374 515 CURVE SMOOTH",
"423 515 OFFCURVE",
"438 486 OFFCURVE",
"446 476 CURVE SMOOTH",
"452 469 OFFCURVE",
"460 465 OFFCURVE",
"475 465 CURVE SMOOTH",
"696 465 LINE SMOOTH",
"708 465 OFFCURVE",
"718 475 OFFCURVE",
"718 487 CURVE SMOOTH",
"715 608 OFFCURVE",
"585 710 OFFCURVE",
"374 710 CURVE SMOOTH",
"177 710 OFFCURVE",
"44 622 OFFCURVE",
"37 445 CURVE",
"35 388 OFFCURVE",
"35 319 OFFCURVE",
"37 265 CURVE SMOOTH",
"45 79 OFFCURVE",
"172 -10 OFFCURVE",
"374 -10 CURVE SMOOTH"
);
}
);
width = 753;
}
);
leftKerningGroup = O;
rightKerningGroup = G;
unicode = 0047;
userData = {
com.typemytype.robofont.guides = (
{
angle = 0;
isGlobal = 0;
magnetic = 5;
x = 0;
y = "-10";
},
{
angle = 0;
isGlobal = 0;
magnetic = 5;
x = 0;
y = 260;
},
{
angle = 0;
isGlobal = 0;
magnetic = 5;
x = 0;
y = 440;
},
{
angle = 90;
isGlobal = 0;
magnetic = 5;
x = 334;
y = 0;
},
{
angle = 90;
isGlobal = 0;
magnetic = 5;
x = 133;
y = 0;
},
{
angle = 90;
isGlobal = 0;
magnetic = 5;
x = 604;
y = 0;
},
{
angle = 90;
isGlobal = 0;
magnetic = 5;
x = 67;
y = 0;
}
);
};
},
{
glyphname = H;
layers = (
{
guideLines = (
{
position = "{0, 350}";
},
{
position = "{0, 9}";
},
{
position = "{0, 691}";
},
{
angle = 90;
position = "{94, 0}";
},
{
angle = 90;
position = "{139, 0}";
},
{
angle = 90;
position = "{543, 0}";
},
{
angle = 90;
position = "{588, 0}";
}
);
layerId = "581BC726-83A6-4935-8633-5A6508251040";
paths = (
{
closed = 1;
nodes = (
"134 0 LINE SMOOTH",
"148 0 OFFCURVE",
"157 9 OFFCURVE",
"157 22 CURVE SMOOTH",
"157 325 LINE",
"543 325 LINE",
"543 22 LINE SMOOTH",
"543 9 OFFCURVE",
"552 0 OFFCURVE",
"565 0 CURVE SMOOTH",
"583 0 LINE SMOOTH",
"597 0 OFFCURVE",
"606 9 OFFCURVE",
"606 22 CURVE SMOOTH",
"606 677 LINE SMOOTH",
"606 691 OFFCURVE",
"597 700 OFFCURVE",
"583 700 CURVE SMOOTH",
"565 700 LINE",
"552 700 OFFCURVE",
"543 691 OFFCURVE",
"543 677 CURVE SMOOTH",
"543 385 LINE",
"157 385 LINE",
"157 677 LINE SMOOTH",
"157 691 OFFCURVE",
"148 700 OFFCURVE",
"134 700 CURVE SMOOTH",
"116 700 LINE SMOOTH",
"103 700 OFFCURVE",
"94 691 OFFCURVE",
"94 677 CURVE SMOOTH",
"94 22 LINE SMOOTH",
"94 9 OFFCURVE",
"103 0 OFFCURVE",
"116 0 CURVE SMOOTH"
);
}
);
width = 700;
},
{
layerId = "EC64484B-0978-4CB1-9EE9-C40A2D8C4059";
paths = (
{
closed = 1;
nodes = (
"278 0 LINE SMOOTH",
"293 0 OFFCURVE",
"305 12 OFFCURVE",
"305 27 CURVE SMOOTH",
"305 243 LINE",
"467 243 LINE",
"467 27 LINE SMOOTH",
"467 12 OFFCURVE",
"479 0 OFFCURVE",
"494 0 CURVE SMOOTH",
"690 0 LINE SMOOTH",
"705 0 OFFCURVE",
"717 12 OFFCURVE",
"717 27 CURVE SMOOTH",
"717 673 LINE SMOOTH",
"717 688 OFFCURVE",
"705 700 OFFCURVE",
"690 700 CURVE SMOOTH",
"494 700 LINE SMOOTH",
"479 700 OFFCURVE",
"467 688 OFFCURVE",
"467 673 CURVE SMOOTH",
"467 463 LINE",
"305 463 LINE",
"305 673 LINE SMOOTH",
"305 688 OFFCURVE",
"293 700 OFFCURVE",
"278 700 CURVE SMOOTH",
"82 700 LINE SMOOTH",
"67 700 OFFCURVE",
"55 688 OFFCURVE",
"55 673 CURVE SMOOTH",
"55 27 LINE SMOOTH",
"55 11 OFFCURVE",
"67 0 OFFCURVE",
"82 0 CURVE SMOOTH"
);
}
);
width = 772;
}
);
leftKerningGroup = I;
rightKerningGroup = I;
unicode = 0048;
userData = {
com.typemytype.robofont.guides = (
{
angle = 0;
isGlobal = 0;
magnetic = 5;
x = 0;
y = 350;
},
{
angle = 0;
isGlobal = 0;
magnetic = 5;
x = 0;
y = 9;
},
{
angle = 0;
isGlobal = 0;
magnetic = 5;
x = 0;
y = 691;
},
{
angle = 90;
isGlobal = 0;
magnetic = 5;
x = 94;
y = 0;
},
{
angle = 90;
isGlobal = 0;
magnetic = 5;
x = 139;
y = 0;
},
{
angle = 90;
isGlobal = 0;
magnetic = 5;
x = 543;
y = 0;
},
{
angle = 90;
isGlobal = 0;
magnetic = 5;
x = 588;
y = 0;
}
);
};
},
{
glyphname = I;
layers = (
{
anchors = (
{
name = bottom;
position = "{126, 0}";
},
{
name = ogonek;
position = "{226, 10}";
},
{
name = top;
position = "{126, 700}";
},
{
name = topleft;
position = "{20, 700}";
}
);
guideLines = (
{
angle = 90;
position = "{85, 0}";
},
{
angle = 90;
position = "{148, 0}";
}
);
layerId = "581BC726-83A6-4935-8633-5A6508251040";
paths = (
{
closed = 1;
nodes = (
"135 0 LINE SMOOTH",
"148 0 OFFCURVE",
"157 9 OFFCURVE",
"157 22 CURVE SMOOTH",
"157 678 LINE SMOOTH",
"157 691 OFFCURVE",
"148 700 OFFCURVE",
"135 700 CURVE SMOOTH",
"116 700 LINE SMOOTH",
"103 700 OFFCURVE",
"94 691 OFFCURVE",
"94 678 CURVE SMOOTH",
"94 22 LINE SMOOTH",
"94 9 OFFCURVE",
"103 0 OFFCURVE",
"116 0 CURVE SMOOTH"
);
}
);
width = 251;
},
{
anchors = (
{
name = bottom;
position = "{184, 0}";
},
{
name = ogonek;
position = "{331, 10}";
},
{
name = top;
position = "{184, 700}";
},
{
name = topleft;
position = "{20, 700}";
}
);
guideLines = (
{
angle = 90;
position = "{318, 0}";
},
{
angle = 90;
position = "{70, 0}";
}
);
layerId = "EC64484B-0978-4CB1-9EE9-C40A2D8C4059";
paths = (
{
closed = 1;
nodes = (
"286 0 LINE SMOOTH",
"301 0 OFFCURVE",
"313 12 OFFCURVE",
"313 27 CURVE SMOOTH",
"313 673 LINE SMOOTH",
"313 688 OFFCURVE",
"301 700 OFFCURVE",
"286 700 CURVE SMOOTH",
"82 700 LINE SMOOTH",
"67 700 OFFCURVE",
"55 688 OFFCURVE",
"55 673 CURVE SMOOTH",
"55 27 LINE SMOOTH",
"55 12 OFFCURVE",
"67 0 OFFCURVE",
"82 0 CURVE SMOOTH"
);
}
);
width = 368;
}
);
leftKerningGroup = I;
rightKerningGroup = I;
unicode = 0049;
userData = {
com.typemytype.robofont.guides = (
{
angle = 90;
isGlobal = 0;
magnetic = 5;
x = 85;
y = 0;
},
{
angle = 90;
isGlobal = 0;
magnetic = 5;
x = 148;
y = 0;
}
);
};
},
{
glyphname = J;
layers = (
{
guideLines = (
{
position = "{0, -10}";
},
{
position = "{0, 133}";
},
{
position = "{0, 677}";
},
{
angle = 90;
position = "{303, 0}";
},
{
angle = 90;
position = "{60, 0}";
},
{
angle = 90;
position = "{91, 0}";
}
);
layerId = "581BC726-83A6-4935-8633-5A6508251040";
paths = (
{
closed = 1;
nodes = (
"445 -10 OFFCURVE",
"530 99 OFFCURVE",
"530 255 CURVE",
"530 677 LINE SMOOTH",
"530 691 OFFCURVE",
"521 700 OFFCURVE",
"507 700 CURVE SMOOTH",
"98 700 LINE SMOOTH",
"85 700 OFFCURVE",
"76 691 OFFCURVE",
"76 678 CURVE SMOOTH",
"76 662 LINE SMOOTH",
"76 649 OFFCURVE",
"85 640 OFFCURVE",
"98 640 CURVE SMOOTH",
"467 640 LINE",
"467 256 LINE SMOOTH",
"467 135 OFFCURVE",
"405 50 OFFCURVE",
"288 50 CURVE SMOOTH",
"196 50 OFFCURVE",
"116 91 OFFCURVE",
"108 195 CURVE SMOOTH",
"107 207 OFFCURVE",
"99 216 OFFCURVE",
"86 216 CURVE SMOOTH",
"66 216 LINE SMOOTH",
"52 216 OFFCURVE",
"45 206 OFFCURVE",
"45 194 CURVE SMOOTH",
"50 52 OFFCURVE",
"158 -10 OFFCURVE",
"288 -10 CURVE SMOOTH"
);
}
);
width = 618;
},
{
guideLines = (
{
position = "{0, -10}";
},
{
angle = 90;
position = "{424, 0}";
},
{
angle = 90;
position = "{307, 0}";
},
{
angle = 90;
position = "{170, 0}";
}
);
hints = (
{
horizontal = 1;
place = "{-2147483648, 0}";
type = Tag;
}
);
layerId = "EC64484B-0978-4CB1-9EE9-C40A2D8C4059";
paths = (
{
closed = 1;
nodes = (
"509 -10 OFFCURVE",
"653 73 OFFCURVE",
"653 258 CURVE SMOOTH",
"653 673 LINE SMOOTH",
"653 688 OFFCURVE",
"641 700 OFFCURVE",
"626 700 CURVE SMOOTH",
"97 700 LINE SMOOTH",
"82 700 OFFCURVE",
"70 688 OFFCURVE",
"70 673 CURVE SMOOTH",
"70 524 LINE SMOOTH",
"70 509 OFFCURVE",
"82 497 OFFCURVE",
"97 497 CURVE SMOOTH",
"394 497 LINE",
"394 266 LINE SMOOTH",
"394 205 OFFCURVE",
"371 185 OFFCURVE",
"335 185 CURVE SMOOTH",
"302 185 OFFCURVE",
"290 198 OFFCURVE",
"277 225 CURVE SMOOTH",
"267 247 OFFCURVE",
"258 257 OFFCURVE",
"236 257 CURVE SMOOTH",
"32 257 LINE SMOOTH",
"20 257 OFFCURVE",
"10 247 OFFCURVE",
"10 235 CURVE SMOOTH",
"13 78 OFFCURVE",
"162 -10 OFFCURVE",
"327 -10 CURVE SMOOTH"
);
}
);
width = 702;
}
);
leftKerningGroup = J;
rightKerningGroup = U;
unicode = 004A;
userData = {
com.typemytype.robofont.guides = (
{
angle = 0;
isGlobal = 0;
magnetic = 5;
x = 0;
y = "-10";
},
{
angle = 0;
isGlobal = 0;
magnetic = 5;
x = 0;
y = 133;
},
{
angle = 0;
isGlobal = 0;
magnetic = 5;
x = 0;
y = 677;
},
{
angle = 90;
isGlobal = 0;
magnetic = 5;
x = 303;
y = 0;
},
{
angle = 90;
isGlobal = 0;
magnetic = 5;
x = 60;
y = 0;
},
{
angle = 90;
isGlobal = 0;
magnetic = 5;
x = 91;
y = 0;
}
);
};
},
{
glyphname = K;
layers = (
{
guideLines = (
{
position = "{0, 365}";
},
{
angle = 90;
position = "{547, 0}";
},
{
angle = 90;
position = "{94, 0}";
},
{
angle = 90;
position = "{139, 0}";
}
);
layerId = "581BC726-83A6-4935-8633-5A6508251040";
paths = (
{
closed = 1;
nodes = (
"134 0 LINE SMOOTH",
"148 0 OFFCURVE",
"157 9 OFFCURVE",
"157 22 CURVE SMOOTH",
"157 311 LINE",
"481 15 LINE SMOOTH",
"486 11 OFFCURVE",
"498 0 OFFCURVE",
"519 0 CURVE SMOOTH",
"536 0 LINE SMOOTH",
"547 0 OFFCURVE",
"556 9 OFFCURVE",
"556 20 CURVE SMOOTH",
"556 24 OFFCURVE",
"555 29 OFFCURVE",
"550 34 CURVE SMOOTH",
"190 365 LINE",
"529 667 LINE SMOOTH",
"533 671 OFFCURVE",
"534 676 OFFCURVE",
"534 680 CURVE SMOOTH",
"534 691 OFFCURVE",
"525 700 OFFCURVE",
"514 700 CURVE SMOOTH",
"498 700 LINE SMOOTH",
"477 700 OFFCURVE",
"465 689 OFFCURVE",
"460 685 CURVE SMOOTH",
"157 417 LINE",
"157 677 LINE SMOOTH",
"157 691 OFFCURVE",
"148 700 OFFCURVE",
"134 700 CURVE SMOOTH",
"116 700 LINE SMOOTH",
"103 700 OFFCURVE",
"94 691 OFFCURVE",
"94 677 CURVE SMOOTH",
"94 22 LINE SMOOTH",
"94 9 OFFCURVE",
"103 0 OFFCURVE",
"116 0 CURVE SMOOTH"
);
}
);
width = 575;
},
{
layerId = "EC64484B-0978-4CB1-9EE9-C40A2D8C4059";
paths = (
{
closed = 1;
nodes = (
"273 0 LINE SMOOTH",
"288 0 OFFCURVE",
"300 12 OFFCURVE",
"300 27 CURVE SMOOTH",
"300 241 LINE",
"422 23 LINE SMOOTH",
"425 17 OFFCURVE",
"436 0 OFFCURVE",
"463 0 CURVE SMOOTH",
"691 0 LINE SMOOTH",
"703 0 OFFCURVE",
"713 10 OFFCURVE",
"713 22 CURVE SMOOTH",
"713 25 OFFCURVE",
"712 30 OFFCURVE",
"710 33 CURVE SMOOTH",
"513 365 LINE",
"693 667 LINE SMOOTH",
"695 670 OFFCURVE",
"696 674 OFFCURVE",
"696 678 CURVE SMOOTH",
"696 690 OFFCURVE",
"686 700 OFFCURVE",
"674 700 CURVE SMOOTH",
"453 700 LINE SMOOTH",
"431 700 OFFCURVE",
"419 689 OFFCURVE",
"413 678 CURVE SMOOTH",
"300 475 LINE",
"300 673 LINE SMOOTH",
"300 688 OFFCURVE",
"288 700 OFFCURVE",
"273 700 CURVE SMOOTH",
"82 700 LINE SMOOTH",
"67 700 OFFCURVE",
"55 688 OFFCURVE",
"55 673 CURVE SMOOTH",
"55 27 LINE SMOOTH",
"55 12 OFFCURVE",
"67 0 OFFCURVE",
"82 0 CURVE SMOOTH"
);
}
);
width = 715;
}
);
leftKerningGroup = I;
rightKerningGroup = K;
unicode = 004B;
userData = {
com.typemytype.robofont.guides = (
{
angle = 0;
isGlobal = 0;
magnetic = 5;
x = 0;
y = 365;
},
{
angle = 90;
isGlobal = 0;
magnetic = 5;
x = 547;
y = 0;
},
{
angle = 90;
isGlobal = 0;
magnetic = 5;
x = 94;
y = 0;
},
{
angle = 90;
isGlobal = 0;
magnetic = 5;
x = 139;
y = 0;
}
);
};
},
{
glyphname = L;
layers = (
{
anchors = (
{
name = bottom;
position = "{274, 0}";
},
{
name = center;
position = "{274, 350}";
},
{
name = top;
position = "{125, 700}";
},
{
name = topright;
position = "{528, 700}";
}
);
layerId = "581BC726-83A6-4935-8633-5A6508251040";
paths = (
{
closed = 1;
nodes = (
"502 0 LINE",
"516 0 OFFCURVE",
"525 9 OFFCURVE",
"525 22 CURVE",
"525 37 LINE",
"525 51 OFFCURVE",
"516 60 OFFCURVE",
"502 60 CURVE",
"157 60 LINE",
"157 678 LINE",
"157 691 OFFCURVE",
"148 700 OFFCURVE",
"135 700 CURVE",
"116 700 LINE",
"103 700 OFFCURVE",
"94 691 OFFCURVE",
"94 678 CURVE",
"94 22 LINE",
"94 9 OFFCURVE",
"103 0 OFFCURVE",
"116 0 CURVE"
);
}
);
width = 548;
},
{
anchors = (
{
name = bottom;
position = "{313, 0}";
},
{
name = center;
position = "{313, 350}";
},
{
name = top;
position = "{173, 700}";
},
{
name = topright;
position = "{606, 700}";
}
);
layerId = "EC64484B-0978-4CB1-9EE9-C40A2D8C4059";
paths = (
{
closed = 1;
nodes = (
"586 0 LINE SMOOTH",
"601 0 OFFCURVE",
"613 12 OFFCURVE",
"613 27 CURVE SMOOTH",
"613 178 LINE SMOOTH",
"613 193 OFFCURVE",
"601 205 OFFCURVE",
"586 205 CURVE SMOOTH",
"309 205 LINE",
"309 673 LINE SMOOTH",
"309 688 OFFCURVE",
"297 700 OFFCURVE",
"282 700 CURVE SMOOTH",
"82 700 LINE SMOOTH",
"67 700 OFFCURVE",
"55 688 OFFCURVE",
"55 673 CURVE SMOOTH",
"55 27 LINE SMOOTH",
"55 12 OFFCURVE",
"67 0 OFFCURVE",
"82 0 CURVE SMOOTH"
);
}
);
width = 626;
}
);
leftKerningGroup = I;
rightKerningGroup = L;
unicode = 004C;
},
{
glyphname = M;
layers = (
{
guideLines = (
{
position = "{0, 168}";
},
{
position = "{0, 9}";
},
{
position = "{0, 691}";
},
{
angle = 90;
position = "{126, 0}";
},
{
angle = 90;
position = "{636, 0}";
}
);
layerId = "581BC726-83A6-4935-8633-5A6508251040";
paths = (
{
closed = 1;
nodes = (
"135 0 LINE SMOOTH",
"148 0 OFFCURVE",
"157 9 OFFCURVE",
"157 22 CURVE SMOOTH",
"157 564 LINE",
"348 188 LINE SMOOTH",
"354 175 OFFCURVE",
"363 168 OFFCURVE",
"379 168 CURVE SMOOTH",
"401 168 LINE SMOOTH",
"417 168 OFFCURVE",
"426 175 OFFCURVE",
"432 188 CURVE SMOOTH",
"623 564 LINE",
"623 22 LINE SMOOTH",
"623 9 OFFCURVE",
"632 0 OFFCURVE",
"645 0 CURVE SMOOTH",
"663 0 LINE SMOOTH",
"677 0 OFFCURVE",
"686 9 OFFCURVE",
"686 22 CURVE SMOOTH",
"686 677 LINE SMOOTH",
"686 691 OFFCURVE",
"677 700 OFFCURVE",
"663 700 CURVE SMOOTH",
"639 700 LINE SMOOTH",
"626 700 OFFCURVE",
"620 691 OFFCURVE",
"618 687 CURVE SMOOTH",
"390 245 LINE",
"163 687 LINE SMOOTH",
"161 691 OFFCURVE",
"155 700 OFFCURVE",
"142 700 CURVE SMOOTH",
"117 700 LINE SMOOTH",
"103 700 OFFCURVE",
"94 691 OFFCURVE",
"94 677 CURVE SMOOTH",
"94 22 LINE SMOOTH",
"94 9 OFFCURVE",
"103 0 OFFCURVE",
"117 0 CURVE SMOOTH"
);
}
);
width = 780;
},
{
guideLines = (
{
position = "{0, 193}";
},
{
angle = 90;
position = "{438, 0}";
},
{
angle = 90;
position = "{473, 0}";
},
{
angle = 90;
position = "{403, 0}";
},
{
angle = 90;
position = "{300, 0}";
},
{
angle = 90;
position = "{576, 0}";
},
{
angle = 90;
position = "{250, 0}";
}
);
hints = (
{
horizontal = 1;
place = "{-2147483648, 0}";
type = Tag;
}
);
layerId = "EC64484B-0978-4CB1-9EE9-C40A2D8C4059";
paths = (
{
closed = 1;
nodes = (
"263 0 LINE SMOOTH",
"278 0 OFFCURVE",
"290 12 OFFCURVE",
"290 27 CURVE SMOOTH",
"290 301 LINE",
"356 193 LINE SMOOTH",
"363 182 OFFCURVE",
"373 168 OFFCURVE",
"393 168 CURVE SMOOTH",
"463 168 LINE SMOOTH",
"483 168 OFFCURVE",
"493 182 OFFCURVE",
"500 193 CURVE SMOOTH",
"566 301 LINE",
"566 27 LINE SMOOTH",
"566 12 OFFCURVE",
"578 0 OFFCURVE",
"593 0 CURVE SMOOTH",
"774 0 LINE SMOOTH",
"789 0 OFFCURVE",
"801 12 OFFCURVE",
"801 27 CURVE SMOOTH",
"801 673 LINE SMOOTH",
"801 688 OFFCURVE",
"789 700 OFFCURVE",
"774 700 CURVE SMOOTH",
"616 700 LINE SMOOTH",
"589 700 OFFCURVE",
"577 680 OFFCURVE",
"573 673 CURVE SMOOTH",
"428 433 LINE",
"283 673 LINE SMOOTH",
"279 680 OFFCURVE",
"267 700 OFFCURVE",
"240 700 CURVE SMOOTH",
"82 700 LINE SMOOTH",
"67 700 OFFCURVE",
"55 688 OFFCURVE",
"55 673 CURVE SMOOTH",
"55 27 LINE SMOOTH",
"55 12 OFFCURVE",
"67 0 OFFCURVE",
"82 0 CURVE SMOOTH"
);
}
);
width = 856;
}
);
leftKerningGroup = I;
rightKerningGroup = I;
unicode = 004D;
userData = {
com.typemytype.robofont.guides = (
{
angle = 0;
isGlobal = 0;
magnetic = 5;
x = 0;
y = 168;
},
{
angle = 0;
isGlobal = 0;
magnetic = 5;
x = 0;
y = 9;
},
{
angle = 0;
isGlobal = 0;
magnetic = 5;
x = 0;
y = 691;
},
{
angle = 90;
isGlobal = 0;
magnetic = 5;
x = 126;
y = 0;
},
{
angle = 90;
isGlobal = 0;
magnetic = 5;
x = 636;
y = 0;
}
);
};
},
{
glyphname = N;
layers = (
{
anchors = (
{
name = bottom;
position = "{342, 0}";
},
{
name = top;
position = "{342, 700}";
}
);
guideLines = (
{
position = "{0, 9}";
},
{
position = "{0, 691}";
},
{
angle = 90;
position = "{540, 0}";
},
{
angle = 90;
position = "{125, 0}";
}
);
layerId = "581BC726-83A6-4935-8633-5A6508251040";
paths = (
{
closed = 1;
nodes = (
"134 0 LINE SMOOTH",
"148 0 OFFCURVE",
"157 9 OFFCURVE",
"157 22 CURVE SMOOTH",
"157 574 LINE",
"525 12 LINE",
"527 9 OFFCURVE",
"533 0 OFFCURVE",
"546 0 CURVE SMOOTH",
"568 0 LINE SMOOTH",
"581 0 OFFCURVE",
"590 9 OFFCURVE",
"590 23 CURVE SMOOTH",
"590 677 LINE SMOOTH",
"590 691 OFFCURVE",
"581 700 OFFCURVE",
"567 700 CURVE SMOOTH",
"549 700 LINE SMOOTH",
"536 700 OFFCURVE",
"527 691 OFFCURVE",
"527 677 CURVE SMOOTH",
"527 124 LINE",
"158 688 LINE SMOOTH",
"156 691 OFFCURVE",
"150 700 OFFCURVE",
"137 700 CURVE SMOOTH",
"116 700 LINE SMOOTH",
"103 700 OFFCURVE",
"94 691 OFFCURVE",
"94 677 CURVE SMOOTH",
"94 22 LINE SMOOTH",
"94 9 OFFCURVE",
"103 0 OFFCURVE",
"116 0 CURVE SMOOTH"
);
}
);
width = 684;
},
{
anchors = (
{
name = bottom;
position = "{370, 0}";
},
{
name = top;
position = "{370, 700}";
}
);
guideLines = (
{
angle = 90;
position = "{460, 0}";
},
{
angle = 90;
position = "{300, 0}";
}
);
layerId = "EC64484B-0978-4CB1-9EE9-C40A2D8C4059";
paths = (
{
closed = 1;
nodes = (
"263 0 LINE SMOOTH",
"278 0 OFFCURVE",
"290 12 OFFCURVE",
"290 27 CURVE SMOOTH",
"290 278 LINE",
"459 23 LINE SMOOTH",
"463 17 OFFCURVE",
"473 0 OFFCURVE",
"500 0 CURVE SMOOTH",
"658 0 LINE SMOOTH",
"673 0 OFFCURVE",
"685 12 OFFCURVE",
"685 27 CURVE SMOOTH",
"685 673 LINE SMOOTH",
"685 688 OFFCURVE",
"673 700 OFFCURVE",
"658 700 CURVE SMOOTH",
"477 700 LINE SMOOTH",
"462 700 OFFCURVE",
"450 688 OFFCURVE",
"450 673 CURVE SMOOTH",
"450 400 LINE",
"281 677 LINE SMOOTH",
"277 684 OFFCURVE",
"267 700 OFFCURVE",
"240 700 CURVE SMOOTH",
"82 700 LINE SMOOTH",
"67 700 OFFCURVE",
"55 688 OFFCURVE",
"55 673 CURVE SMOOTH",
"55 27 LINE SMOOTH",
"55 12 OFFCURVE",
"67 0 OFFCURVE",
"82 0 CURVE SMOOTH"
);
}
);
width = 740;
}
);
leftKerningGroup = I;
rightKerningGroup = I;
unicode = 004E;
userData = {
com.typemytype.robofont.guides = (
{
angle = 0;
isGlobal = 0;
magnetic = 5;
x = 0;
y = 9;
},
{
angle = 0;
isGlobal = 0;
magnetic = 5;
x = 0;
y = 691;
},
{
angle = 90;
isGlobal = 0;
magnetic = 5;
x = 540;
y = 0;
},
{
angle = 90;
isGlobal = 0;
magnetic = 5;
x = 125;
y = 0;
}
);
};
},
{
glyphname = O;
layers = (
{
anchors = (
{
name = bottom;
position = "{331, 0}";
},
{
name = center;
position = "{331, 350}";
},
{
name = ogonek;
position = "{596, 10}";
},
{
name = top;
position = "{331, 700}";
},
{
name = topleft;
position = "{20, 700}";
},
{
name = topright;
position = "{642, 700}";
}
);
guideLines = (
{
position = "{0, -10}";
},
{
position = "{0, 710}";
},
{
position = "{0, 335}";
},
{
position = "{0, 434}";
},
{
position = "{0, 266}";
},
{
angle = 90;
position = "{496, 0}";
}
);
layerId = "581BC726-83A6-4935-8633-5A6508251040";
paths = (
{
closed = 1;
nodes = (
"497 -10 OFFCURVE",
"590 77 OFFCURVE",
"595 266 CURVE SMOOTH",
"597 326 OFFCURVE",
"597 374 OFFCURVE",
"595 434 CURVE SMOOTH",
"590 620 OFFCURVE",
"487 710 OFFCURVE",
"331 710 CURVE SMOOTH",
"175 710 OFFCURVE",
"72 620 OFFCURVE",
"67 434 CURVE SMOOTH",
"65 374 OFFCURVE",
"65 326 OFFCURVE",
"67 266 CURVE SMOOTH",
"72 77 OFFCURVE",
"165 -10 OFFCURVE",
"331 -10 CURVE SMOOTH"
);
},
{
closed = 1;
nodes = (
"217 50 OFFCURVE",
"135 115 OFFCURVE",
"130 271 CURVE SMOOTH",
"128 331 OFFCURVE",
"128 369 OFFCURVE",
"130 429 CURVE SMOOTH",
"135 585 OFFCURVE",
"218 650 OFFCURVE",
"331 650 CURVE SMOOTH",
"444 650 OFFCURVE",
"527 585 OFFCURVE",
"532 429 CURVE SMOOTH",
"534 369 OFFCURVE",
"534 331 OFFCURVE",
"532 271 CURVE SMOOTH",
"527 115 OFFCURVE",
"445 50 OFFCURVE",
"331 50 CURVE SMOOTH"
);
}
);
width = 662;
},
{
anchors = (
{
name = bottom;
position = "{371, 0}";
},
{
name = center;
position = "{371, 350}";
},
{
name = ogonek;
position = "{668, 10}";
},
{
name = top;
position = "{371, 700}";
},
{
name = topleft;
position = "{20, 700}";
},
{
name = topright;
position = "{722, 700}";
}
);
guideLines = (
{
position = "{0, -10}";
},
{
position = "{0, 710}";
},
{
position = "{0, 515}";
},
{
position = "{0, 434}";
}
);
layerId = "EC64484B-0978-4CB1-9EE9-C40A2D8C4059";
paths = (
{
closed = 1;
nodes = (
"567 -10 OFFCURVE",
"697 81 OFFCURVE",
"705 260 CURVE SMOOTH",
"707 314 OFFCURVE",
"707 379 OFFCURVE",
"705 436 CURVE SMOOTH",
"698 611 OFFCURVE",
"567 710 OFFCURVE",
"371 710 CURVE SMOOTH",
"175 710 OFFCURVE",
"44 611 OFFCURVE",
"37 436 CURVE SMOOTH",
"35 379 OFFCURVE",
"35 314 OFFCURVE",
"37 260 CURVE SMOOTH",
"45 81 OFFCURVE",
"175 -10 OFFCURVE",
"371 -10 CURVE SMOOTH"
);
},
{
closed = 1;
nodes = (
"327 185 OFFCURVE",
"299 210 OFFCURVE",
"297 266 CURVE SMOOTH",
"295 323 OFFCURVE",
"295 379 OFFCURVE",
"297 434 CURVE SMOOTH",
"299 490 OFFCURVE",
"328 515 OFFCURVE",
"371 515 CURVE SMOOTH",
"414 515 OFFCURVE",
"443 490 OFFCURVE",
"445 434 CURVE SMOOTH",
"447 379 OFFCURVE",
"447 323 OFFCURVE",
"445 266 CURVE SMOOTH",
"443 210 OFFCURVE",
"415 185 OFFCURVE",
"371 185 CURVE SMOOTH"
);
}
);
width = 742;
}
);
leftKerningGroup = O;
rightKerningGroup = O;
unicode = 004F;
userData = {
com.typemytype.robofont.guides = (
{
angle = 0;
isGlobal = 0;
magnetic = 5;
x = 0;
y = "-10";
},
{
angle = 0;
isGlobal = 0;
magnetic = 5;
x = 0;
y = 710;
},
{
angle = 0;
isGlobal = 0;
magnetic = 5;
x = 0;
y = 335;
},
{
angle = 0;
isGlobal = 0;
magnetic = 5;
x = 0;
y = 434;
},
{
angle = 0;
isGlobal = 0;
magnetic = 5;
x = 0;
y = 266;
},
{
angle = 90;
isGlobal = 0;
magnetic = 5;
x = 496;
y = 0;
}
);
};
},
{
glyphname = P;
layers = (
{
guideLines = (
{
position = "{0, 493}";
},
{
position = "{0, 403}";
},
{
position = "{0, 218}";
},
{
position = "{0, 310}";
},
{
position = "{0, 9}";
},
{
position = "{0, 691}";
},
{
angle = 90;
position = "{345, 0}";
},
{
angle = 90;
position = "{94, 0}";
},
{
angle = 90;
position = "{139, 0}";
}
);
layerId = "581BC726-83A6-4935-8633-5A6508251040";
paths = (
{
closed = 1;
nodes = (
"134 0 LINE SMOOTH",
"148 0 OFFCURVE",
"157 9 OFFCURVE",
"157 22 CURVE SMOOTH",
"157 286 LINE",
"359 286 LINE SMOOTH",
"499 286 OFFCURVE",
"589 357 OFFCURVE",
"589 493 CURVE SMOOTH",
"589 629 OFFCURVE",
"499 700 OFFCURVE",
"359 700 CURVE SMOOTH",
"116 700 LINE SMOOTH",
"103 700 OFFCURVE",
"94 691 OFFCURVE",
"94 677 CURVE SMOOTH",
"94 22 LINE SMOOTH",
"94 9 OFFCURVE",
"103 0 OFFCURVE",
"116 0 CURVE SMOOTH"
);
},
{
closed = 1;
nodes = (
"157 640 LINE",
"354 640 LINE SMOOTH",
"470 640 OFFCURVE",
"526 588 OFFCURVE",
"526 493 CURVE SMOOTH",
"526 398 OFFCURVE",
"470 346 OFFCURVE",
"354 346 CURVE SMOOTH",
"157 346 LINE"
);
}
);
width = 628;
},
{
guideLines = (
{
position = "{0, 459}";
},
{
angle = 90;
position = "{390, 0}";
}
);
hints = (
{
horizontal = 1;
place = "{-2147483648, 0}";
type = Tag;
}
);
layerId = "EC64484B-0978-4CB1-9EE9-C40A2D8C4059";
paths = (
{
closed = 1;
nodes = (
"288 0 LINE SMOOTH",
"303 0 OFFCURVE",
"315 12 OFFCURVE",
"315 27 CURVE SMOOTH",
"315 218 LINE",
"385 218 LINE SMOOTH",
"566 218 OFFCURVE",
"686 289 OFFCURVE",
"686 455 CURVE SMOOTH",
"686 621 OFFCURVE",
"566 700 OFFCURVE",
"385 700 CURVE SMOOTH",
"82 700 LINE SMOOTH",
"67 700 OFFCURVE",
"55 688 OFFCURVE",
"55 673 CURVE SMOOTH",
"55 27 LINE SMOOTH",
"55 12 OFFCURVE",
"67 0 OFFCURVE",
"82 0 CURVE SMOOTH"
);
},
{
closed = 1;
nodes = (
"310 514 LINE",
"380 514 LINE SMOOTH",
"416 514 OFFCURVE",
"426 482 OFFCURVE",
"426 457 CURVE SMOOTH",
"426 418 OFFCURVE",
"401 403 OFFCURVE",
"380 403 CURVE SMOOTH",
"310 403 LINE"
);
}
);
width = 705;
}
);
leftKerningGroup = I;
unicode = 0050;
userData = {
com.typemytype.robofont.guides = (
{
angle = 0;
isGlobal = 0;
magnetic = 5;
x = 0;
y = 493;
},
{
angle = 0;
isGlobal = 0;
magnetic = 5;
x = 0;
y = 403;
},
{
angle = 0;
isGlobal = 0;
magnetic = 5;
x = 0;
y = 218;
},
{
angle = 0;
isGlobal = 0;
magnetic = 5;
x = 0;
y = 310;
},
{
angle = 0;
isGlobal = 0;
magnetic = 5;
x = 0;
y = 9;
},
{
angle = 0;
isGlobal = 0;
magnetic = 5;
x = 0;
y = 691;
},
{
angle = 90;
isGlobal = 0;
magnetic = 5;
x = 345;
y = 0;
},
{
angle = 90;
isGlobal = 0;
magnetic = 5;
x = 94;
y = 0;
},
{
angle = 90;
isGlobal = 0;
magnetic = 5;
x = 139;
y = 0;
}
);
};
},
{
glyphname = Q;
layers = (
{
guideLines = (
{
position = "{0, 710}";
},
{
position = "{0, -10}";
},
{
position = "{0, -56}";
},
{
angle = 90;
position = "{82, 0}";
},
{
angle = 90;
position = "{750, 0}";
},
{
angle = 90;
position = "{580, 0}";
}
);
layerId = "581BC726-83A6-4935-8633-5A6508251040";
paths = (
{
closed = 1;
nodes = (
"569 -65 LINE",
"580 -65 OFFCURVE",
"589 -56 OFFCURVE",
"589 -45 CURVE SMOOTH",
"589 -39 OFFCURVE",
"587 -36 OFFCURVE",
"586 -34 CURVE",
"522 56 LINE",
"568 101 OFFCURVE",
"592 171 OFFCURVE",
"595 266 CURVE SMOOTH",
"597 326 OFFCURVE",
"597 374 OFFCURVE",
"595 434 CURVE SMOOTH",
"590 620 OFFCURVE",
"487 710 OFFCURVE",
"331 710 CURVE SMOOTH",
"175 710 OFFCURVE",
"72 620 OFFCURVE",
"67 434 CURVE SMOOTH",
"65 374 OFFCURVE",
"65 326 OFFCURVE",
"67 266 CURVE SMOOTH",
"72 77 OFFCURVE",
"165 -10 OFFCURVE",
"331 -10 CURVE SMOOTH",
"386 -10 OFFCURVE",
"432 0 OFFCURVE",
"471 19 CURVE",
"515 -42 LINE",
"521 -50 OFFCURVE",
"532 -65 OFFCURVE",
"547 -65 CURVE"
);
},
{
closed = 1;
nodes = (
"217 50 OFFCURVE",
"135 115 OFFCURVE",
"130 271 CURVE SMOOTH",
"128 331 OFFCURVE",
"128 369 OFFCURVE",
"130 429 CURVE SMOOTH",
"135 585 OFFCURVE",
"218 650 OFFCURVE",
"331 650 CURVE SMOOTH",
"444 650 OFFCURVE",
"527 585 OFFCURVE",
"532 429 CURVE SMOOTH",
"534 369 OFFCURVE",
"534 331 OFFCURVE",
"532 271 CURVE SMOOTH",
"527 115 OFFCURVE",
"445 50 OFFCURVE",
"331 50 CURVE SMOOTH"
);
}
);
width = 662;
},
{
guideLines = (
{
position = "{0, 710}";
},
{
position = "{0, -10}";
},
{
position = "{0, -42}";
},
{
angle = 90;
position = "{47, 0}";
},
{
angle = 90;
position = "{715, 0}";
}
);
hints = (
{
horizontal = 1;
place = "{-2147483648, 0}";
type = Tag;
}
);
layerId = "EC64484B-0978-4CB1-9EE9-C40A2D8C4059";
paths = (
{
closed = 1;
nodes = (
"694 -65 LINE",
"706 -65 OFFCURVE",
"716 -55 OFFCURVE",
"714 -43 CURVE SMOOTH",
"714 -40 OFFCURVE",
"712 -36 OFFCURVE",
"711 -34 CURVE",
"632 79 LINE",
"675 123 OFFCURVE",
"700 184 OFFCURVE",
"704 260 CURVE SMOOTH",
"706 314 OFFCURVE",
"706 379 OFFCURVE",
"704 436 CURVE SMOOTH",
"697 611 OFFCURVE",
"566 710 OFFCURVE",
"370 710 CURVE SMOOTH",
"174 710 OFFCURVE",
"43 611 OFFCURVE",
"36 436 CURVE SMOOTH",
"34 379 OFFCURVE",
"34 314 OFFCURVE",
"36 260 CURVE SMOOTH",
"44 81 OFFCURVE",
"174 -10 OFFCURVE",
"370 -10 CURVE SMOOTH",
"390 -10 OFFCURVE",
"410 -9 OFFCURVE",
"428 -7 CURVE",
"456 -42 LINE",
"462 -50 OFFCURVE",
"473 -65 OFFCURVE",
"498 -65 CURVE"
);
},
{
closed = 1;
nodes = (
"326 185 OFFCURVE",
"298 210 OFFCURVE",
"296 266 CURVE SMOOTH",
"294 323 OFFCURVE",
"294 379 OFFCURVE",
"296 434 CURVE SMOOTH",
"298 490 OFFCURVE",
"327 515 OFFCURVE",
"370 515 CURVE SMOOTH",
"413 515 OFFCURVE",
"442 490 OFFCURVE",
"444 434 CURVE SMOOTH",
"446 379 OFFCURVE",
"446 323 OFFCURVE",
"444 266 CURVE SMOOTH",
"442 210 OFFCURVE",
"414 185 OFFCURVE",
"370 185 CURVE SMOOTH"
);
}
);
width = 742;
}
);
leftKerningGroup = O;
rightKerningGroup = O;
unicode = 0051;
userData = {
com.typemytype.robofont.guides = (
{
angle = 0;
isGlobal = 0;
magnetic = 5;
x = 0;
y = 710;
},
{
angle = 0;
isGlobal = 0;
magnetic = 5;
x = 0;
y = "-10";
},
{
angle = 0;
isGlobal = 0;
magnetic = 5;
x = 0;
y = "-56";
},
{
angle = 90;
isGlobal = 0;
magnetic = 5;
x = 82;
y = 0;
},
{
angle = 90;
isGlobal = 0;
magnetic = 5;
x = 750;
y = 0;
},
{
angle = 90;
isGlobal = 0;
magnetic = 5;
x = 580;
y = 0;
}
);
};
},
{
glyphname = R;
layers = (
{
anchors = (
{
name = bottom;
position = "{320, 0}";
},
{
name = top;
position = "{300, 700}";
}
);
guideLines = (
{
position = "{0, 691}";
},
{
position = "{0, 9}";
},
{
angle = 90;
position = "{616, 0}";
},
{
angle = 90;
position = "{574, 0}";
},
{
angle = 90;
position = "{94, 0}";
},
{
angle = 90;
position = "{139, 0}";
}
);
layerId = "581BC726-83A6-4935-8633-5A6508251040";
paths = (
{
closed = 1;
nodes = (
"134 0 LINE SMOOTH",
"148 0 OFFCURVE",
"157 9 OFFCURVE",
"157 22 CURVE SMOOTH",
"157 296 LINE",
"363 296 LINE",
"522 27 LINE SMOOTH",
"530 13 OFFCURVE",
"538 0 OFFCURVE",
"560 0 CURVE SMOOTH",
"572 0 LINE SMOOTH",
"583 0 OFFCURVE",
"592 9 OFFCURVE",
"592 20 CURVE SMOOTH",
"592 24 OFFCURVE",
"591 27 OFFCURVE",
"589 31 CURVE SMOOTH",
"428 305 LINE",
"523 327 OFFCURVE",
"579 391 OFFCURVE",
"579 498 CURVE SMOOTH",
"579 634 OFFCURVE",
"489 700 OFFCURVE",
"349 700 CURVE SMOOTH",
"116 700 LINE SMOOTH",
"103 700 OFFCURVE",
"94 691 OFFCURVE",
"94 677 CURVE SMOOTH",
"94 22 LINE SMOOTH",
"94 9 OFFCURVE",
"103 0 OFFCURVE",
"116 0 CURVE SMOOTH"
);
},
{
closed = 1;
nodes = (
"157 640 LINE",
"344 640 LINE SMOOTH",
"460 640 OFFCURVE",
"516 593 OFFCURVE",
"516 498 CURVE SMOOTH",
"516 403 OFFCURVE",
"460 356 OFFCURVE",
"344 356 CURVE SMOOTH",
"157 356 LINE"
);
}
);
width = 640;
},
{
anchors = (
{
name = bottom;
position = "{361, 0}";
},
{
name = top;
position = "{341, 700}";
}
);
guideLines = (
{
angle = 90;
position = "{388, 0}";
},
{
angle = 90;
position = "{694, 0}";
}
);
layerId = "EC64484B-0978-4CB1-9EE9-C40A2D8C4059";
paths = (
{
closed = 1;
nodes = (
"278 0 LINE SMOOTH",
"293 0 OFFCURVE",
"305 12 OFFCURVE",
"305 27 CURVE SMOOTH",
"305 218 LINE",
"346 218 LINE",
"432 27 LINE SMOOTH",
"436 18 OFFCURVE",
"448 0 OFFCURVE",
"475 0 CURVE SMOOTH",
"680 0 LINE SMOOTH",
"692 0 OFFCURVE",
"702 10 OFFCURVE",
"702 22 CURVE SMOOTH",
"702 27 OFFCURVE",
"701 29 OFFCURVE",
"699 33 CURVE SMOOTH",
"576 261 LINE",
"639 301 OFFCURVE",
"684 367 OFFCURVE",
"684 457 CURVE SMOOTH",
"684 608 OFFCURVE",
"570 700 OFFCURVE",
"378 700 CURVE SMOOTH",
"82 700 LINE SMOOTH",
"67 700 OFFCURVE",
"55 688 OFFCURVE",
"55 673 CURVE SMOOTH",
"55 27 LINE SMOOTH",
"55 12 OFFCURVE",
"67 0 OFFCURVE",
"82 0 CURVE SMOOTH"
);
},
{
closed = 1;
nodes = (
"305 514 LINE",
"378 514 LINE SMOOTH",
"411 514 OFFCURVE",
"424 485 OFFCURVE",
"424 459 CURVE SMOOTH",
"424 432 OFFCURVE",
"409 408 OFFCURVE",
"378 408 CURVE SMOOTH",
"305 408 LINE"
);
}
);
width = 722;
}
);
leftKerningGroup = I;
rightKerningGroup = R;
unicode = 0052;
userData = {
com.typemytype.robofont.guides = (
{
angle = 0;
isGlobal = 0;
magnetic = 5;
x = 0;
y = 691;
},
{
angle = 0;
isGlobal = 0;
magnetic = 5;
x = 0;
y = 9;
},
{
angle = 90;
isGlobal = 0;
magnetic = 5;
x = 616;
y = 0;
},
{
angle = 90;
isGlobal = 0;
magnetic = 5;
x = 574;
y = 0;
},
{
angle = 90;
isGlobal = 0;
magnetic = 5;
x = 94;
y = 0;
},
{
angle = 90;
isGlobal = 0;
magnetic = 5;
x = 139;
y = 0;
}
);
};
},
{
glyphname = S;
layers = (
{
anchors = (
{
name = bottom;
position = "{303, 0}";
},
{
name = top;
position = "{303, 700}";
}
);
guideLines = (
{
position = "{0, 355}";
},
{
angle = 90;
position = "{306, 0}";
}
);
layerId = "581BC726-83A6-4935-8633-5A6508251040";
paths = (
{
closed = 1;
nodes = (
"459 -10 OFFCURVE",
"555 60 OFFCURVE",
"555 181 CURVE SMOOTH",
"555 291 OFFCURVE",
"484 329 OFFCURVE",
"334 377 CURVE SMOOTH",
"191 423 OFFCURVE",
"131 450 OFFCURVE",
"131 530 CURVE SMOOTH",
"131 612 OFFCURVE",
"200 650 OFFCURVE",
"299 650 CURVE SMOOTH",
"397 650 OFFCURVE",
"464 601 OFFCURVE",
"472 535 CURVE SMOOTH",
"474 519 OFFCURVE",
"487 515 OFFCURVE",
"494 515 CURVE SMOOTH",
"514 515 LINE SMOOTH",
"528 515 OFFCURVE",
"535 525 OFFCURVE",
"535 535 CURVE SMOOTH",
"532 612 OFFCURVE",
"457 710 OFFCURVE",
"299 710 CURVE SMOOTH",
"151 710 OFFCURVE",
"68 631 OFFCURVE",
"68 530 CURVE SMOOTH",
"68 420 OFFCURVE",
"131 379 OFFCURVE",
"274 333 CURVE SMOOTH",
"423 285 OFFCURVE",
"492 260 OFFCURVE",
"492 181 CURVE SMOOTH",
"492 101 OFFCURVE",
"434 50 OFFCURVE",
"304 50 CURVE SMOOTH",
"174 50 OFFCURVE",
"119 114 OFFCURVE",
"111 170 CURVE SMOOTH",
"109 181 OFFCURVE",
"102 190 OFFCURVE",
"89 190 CURVE SMOOTH",
"69 190 LINE SMOOTH",
"57 190 OFFCURVE",
"48 181 OFFCURVE",
"48 170 CURVE SMOOTH",
"51 79 OFFCURVE",
"142 -10 OFFCURVE",
"304 -10 CURVE SMOOTH"
);
}
);
width = 605;
},
{
anchors = (
{
name = bottom;
position = "{349, 0}";
},
{
name = top;
position = "{349, 700}";
}
);
guideLines = (
{
position = "{0, 710}";
},
{
position = "{0, -10}";
},
{
position = "{0, 487}";
},
{
position = "{0, 226}";
},
{
angle = 90;
position = "{-1244, 0}";
}
);
layerId = "EC64484B-0978-4CB1-9EE9-C40A2D8C4059";
paths = (
{
closed = 1;
nodes = (
"536 -10 OFFCURVE",
"679 80 OFFCURVE",
"679 226 CURVE SMOOTH",
"679 356 OFFCURVE",
"603 419 OFFCURVE",
"403 444 CURVE SMOOTH",
"313 455 OFFCURVE",
"292 468 OFFCURVE",
"292 487 CURVE SMOOTH",
"292 504 OFFCURVE",
"306 515 OFFCURVE",
"340 515 CURVE SMOOTH",
"368 515 OFFCURVE",
"386 503 OFFCURVE",
"393 497 CURVE SMOOTH",
"405 486 OFFCURVE",
"414 481 OFFCURVE",
"433 481 CURVE SMOOTH",
"633 481 LINE SMOOTH",
"644 481 OFFCURVE",
"654 491 OFFCURVE",
"654 503 CURVE SMOOTH",
"651 590 OFFCURVE",
"540 710 OFFCURVE",
"340 710 CURVE SMOOTH",
"158 710 OFFCURVE",
"35 616 OFFCURVE",
"35 480 CURVE SMOOTH",
"35 347 OFFCURVE",
"135 281 OFFCURVE",
"293 260 CURVE SMOOTH",
"392 247 OFFCURVE",
"422 237 OFFCURVE",
"422 213 CURVE SMOOTH",
"422 195 OFFCURVE",
"392 185 OFFCURVE",
"347 185 CURVE SMOOTH",
"314 185 OFFCURVE",
"292 193 OFFCURVE",
"273 208 CURVE SMOOTH",
"259 219 OFFCURVE",
"251 225 OFFCURVE",
"230 225 CURVE SMOOTH",
"40 225 LINE SMOOTH",
"28 225 OFFCURVE",
"18 215 OFFCURVE",
"18 203 CURVE SMOOTH",
"21 92 OFFCURVE",
"126 -10 OFFCURVE",
"347 -10 CURVE SMOOTH"
);
}
);
width = 697;
}
);
leftKerningGroup = S;
rightKerningGroup = S;
unicode = 0053;
userData = {
com.typemytype.robofont.guides = (
{
angle = 0;
isGlobal = 0;
magnetic = 5;
x = 0;
y = 355;
},
{
angle = 90;
isGlobal = 0;
magnetic = 5;
x = 306;
y = 0;
}
);
};
},
{
glyphname = T;
layers = (
{
guideLines = (
{
position = "{0, 495}";
},
{
position = "{0, 9}";
},
{
position = "{0, 691}";
},
{
position = "{0, 649}";
},
{
angle = 90;
position = "{279, 0}";
},
{
angle = 90;
position = "{324, 0}";
},
{
angle = 90;
position = "{59, 0}";
},
{
angle = 90;
position = "{544, 0}";
}
);
layerId = "581BC726-83A6-4935-8633-5A6508251040";
paths = (
{
closed = 1;
nodes = (
"287 0 LINE SMOOTH",
"301 0 OFFCURVE",
"310 9 OFFCURVE",
"310 22 CURVE SMOOTH",
"310 640 LINE",
"507 640 LINE SMOOTH",
"521 640 OFFCURVE",
"530 649 OFFCURVE",
"530 662 CURVE SMOOTH",
"530 677 LINE SMOOTH",
"530 691 OFFCURVE",
"521 700 OFFCURVE",
"507 700 CURVE SMOOTH",
"49 700 LINE SMOOTH",
"36 700 OFFCURVE",
"27 691 OFFCURVE",
"27 677 CURVE SMOOTH",
"27 662 LINE SMOOTH",
"27 649 OFFCURVE",
"36 640 OFFCURVE",
"49 640 CURVE SMOOTH",
"247 640 LINE",
"247 22 LINE SMOOTH",
"247 9 OFFCURVE",
"256 0 OFFCURVE",
"269 0 CURVE SMOOTH"
);
}
);
width = 557;
},
{
guideLines = (
{
position = "{0, 495}";
}
);
hints = (
{
horizontal = 1;
place = "{-2147483648, 0}";
type = Tag;
}
);
layerId = "EC64484B-0978-4CB1-9EE9-C40A2D8C4059";
paths = (
{
closed = 1;
nodes = (
"437 0 LINE SMOOTH",
"452 0 OFFCURVE",
"464 12 OFFCURVE",
"464 27 CURVE SMOOTH",
"464 485 LINE",
"630 485 LINE SMOOTH",
"645 485 OFFCURVE",
"657 497 OFFCURVE",
"657 512 CURVE SMOOTH",
"657 673 LINE SMOOTH",
"657 688 OFFCURVE",
"645 700 OFFCURVE",
"630 700 CURVE SMOOTH",
"44 700 LINE SMOOTH",
"29 700 OFFCURVE",
"17 688 OFFCURVE",
"17 673 CURVE SMOOTH",
"17 512 LINE SMOOTH",
"17 497 OFFCURVE",
"29 485 OFFCURVE",
"44 485 CURVE SMOOTH",
"210 485 LINE",
"210 27 LINE SMOOTH",
"210 12 OFFCURVE",
"222 0 OFFCURVE",
"237 0 CURVE SMOOTH"
);
}
);
width = 674;
}
);
leftKerningGroup = T;
rightKerningGroup = T;
unicode = 0054;
userData = {
com.typemytype.robofont.guides = (
{
angle = 0;
isGlobal = 0;
magnetic = 5;
x = 0;
y = 495;
},
{
angle = 0;
isGlobal = 0;
magnetic = 5;
x = 0;
y = 9;
},
{
angle = 0;
isGlobal = 0;
magnetic = 5;
x = 0;
y = 691;
},
{
angle = 0;
isGlobal = 0;
magnetic = 5;
x = 0;
y = 649;
},
{
angle = 90;
isGlobal = 0;
magnetic = 5;
x = 279;
y = 0;
},
{
angle = 90;
isGlobal = 0;
magnetic = 5;
x = 324;
y = 0;
},
{
angle = 90;
isGlobal = 0;
magnetic = 5;
x = 59;
y = 0;
},
{
angle = 90;
isGlobal = 0;
magnetic = 5;
x = 544;
y = 0;
}
);
};
},
{
glyphname = U;
layers = (
{
anchors = (
{
name = bottom;
position = "{346, 0}";
},
{
name = ogonek;
position = "{622, 10}";
},
{
name = top;
position = "{346, 700}";
},
{
name = topright;
position = "{671, 700}";
}
);
guideLines = (
{
position = "{0, 267}";
},
{
angle = 90;
position = "{333, 0}";
},
{
angle = 90;
position = "{535, 0}";
},
{
angle = 90;
position = "{580, 0}";
},
{
angle = 90;
position = "{84, 0}";
},
{
angle = 90;
position = "{129, 0}";
}
);
layerId = "581BC726-83A6-4935-8633-5A6508251040";
paths = (
{
closed = 1;
nodes = (
"509 -10 OFFCURVE",
"603 77 OFFCURVE",
"603 271 CURVE",
"603 677 LINE",
"603 691 OFFCURVE",
"594 700 OFFCURVE",
"581 700 CURVE",
"563 700 LINE",
"549 700 OFFCURVE",
"540 691 OFFCURVE",
"540 677 CURVE",
"540 268 LINE",
"540 118 OFFCURVE",
"465 50 OFFCURVE",
"346 50 CURVE",
"226 50 OFFCURVE",
"151 118 OFFCURVE",
"151 268 CURVE",
"151 677 LINE",
"151 691 OFFCURVE",
"142 700 OFFCURVE",
"128 700 CURVE",
"110 700 LINE",
"97 700 OFFCURVE",
"88 691 OFFCURVE",
"88 677 CURVE",
"88 271 LINE",
"88 77 OFFCURVE",
"184 -10 OFFCURVE",
"346 -10 CURVE"
);
}
);
width = 691;
},
{
anchors = (
{
name = bottom;
position = "{373, 0}";
},
{
name = ogonek;
position = "{671, 10}";
},
{
name = top;
position = "{373, 700}";
},
{
name = topright;
position = "{726, 700}";
}
);
guideLines = (
{
position = "{0, -10}";
},
{
position = "{0, 268}";
},
{
angle = 90;
position = "{380, 0}";
}
);
layerId = "EC64484B-0978-4CB1-9EE9-C40A2D8C4059";
paths = (
{
closed = 1;
nodes = (
"564 -10 OFFCURVE",
"697 75 OFFCURVE",
"697 264 CURVE SMOOTH",
"697 673 LINE SMOOTH",
"697 688 OFFCURVE",
"685 700 OFFCURVE",
"670 700 CURVE SMOOTH",
"474 700 LINE SMOOTH",
"459 700 OFFCURVE",
"447 688 OFFCURVE",
"447 673 CURVE SMOOTH",
"447 268 LINE SMOOTH",
"447 218 OFFCURVE",
"422 191 OFFCURVE",
"373 191 CURVE SMOOTH",
"324 191 OFFCURVE",
"299 218 OFFCURVE",
"299 268 CURVE SMOOTH",
"299 673 LINE SMOOTH",
"299 688 OFFCURVE",
"287 700 OFFCURVE",
"272 700 CURVE SMOOTH",
"76 700 LINE SMOOTH",
"61 700 OFFCURVE",
"49 688 OFFCURVE",
"49 673 CURVE SMOOTH",
"49 264 LINE SMOOTH",
"49 75 OFFCURVE",
"182 -10 OFFCURVE",
"374 -10 CURVE SMOOTH"
);
}
);
width = 746;
}
);
leftKerningGroup = U;
rightKerningGroup = U;
unicode = 0055;
userData = {
com.typemytype.robofont.guides = (
{
angle = 0;
isGlobal = 0;
magnetic = 5;
x = 0;
y = 267;
},
{
angle = 90;
isGlobal = 0;
magnetic = 5;
x = 333;
y = 0;
},
{
angle = 90;
isGlobal = 0;
magnetic = 5;
x = 535;
y = 0;
},
{
angle = 90;
isGlobal = 0;
magnetic = 5;
x = 580;
y = 0;
},
{
angle = 90;
isGlobal = 0;
magnetic = 5;
x = 84;
y = 0;
},
{
angle = 90;
isGlobal = 0;
magnetic = 5;
x = 129;
y = 0;
}
);
};
},
{
glyphname = V;
layers = (
{
guideLines = (
{
position = "{0, 24}";
}
);
layerId = "581BC726-83A6-4935-8633-5A6508251040";
paths = (
{
closed = 1;
nodes = (
"333 0 LINE SMOOTH",
"351 0 OFFCURVE",
"361 8 OFFCURVE",
"367 24 CURVE SMOOTH",
"599 669 LINE SMOOTH",
"600 672 OFFCURVE",
"601 678 OFFCURVE",
"601 680 CURVE SMOOTH",
"601 691 OFFCURVE",
"592 700 OFFCURVE",
"581 700 CURVE SMOOTH",
"560 700 LINE SMOOTH",
"547 700 OFFCURVE",
"540 690 OFFCURVE",
"538 685 CURVE SMOOTH",
"319 73 LINE",
"100 685 LINE SMOOTH",
"98 690 OFFCURVE",
"91 700 OFFCURVE",
"78 700 CURVE SMOOTH",
"57 700 LINE SMOOTH",
"46 700 OFFCURVE",
"37 691 OFFCURVE",
"37 680 CURVE SMOOTH",
"37 678 OFFCURVE",
"38 672 OFFCURVE",
"39 669 CURVE SMOOTH",
"271 24 LINE SMOOTH",
"277 8 OFFCURVE",
"287 0 OFFCURVE",
"305 0 CURVE SMOOTH"
);
}
);
width = 638;
},
{
hints = (
{
horizontal = 1;
place = "{-2147483648, 0}";
type = Tag;
}
);
layerId = "EC64484B-0978-4CB1-9EE9-C40A2D8C4059";
paths = (
{
closed = 1;
nodes = (
"477 0 LINE SMOOTH",
"504 0 OFFCURVE",
"518 18 OFFCURVE",
"522 33 CURVE SMOOTH",
"710 671 LINE SMOOTH",
"711 675 OFFCURVE",
"711 676 OFFCURVE",
"711 678 CURVE SMOOTH",
"711 690 OFFCURVE",
"701 700 OFFCURVE",
"689 700 CURVE SMOOTH",
"503 700 LINE SMOOTH",
"476 700 OFFCURVE",
"462 682 OFFCURVE",
"458 667 CURVE SMOOTH",
"363 295 LINE",
"268 667 LINE SMOOTH",
"264 682 OFFCURVE",
"250 700 OFFCURVE",
"223 700 CURVE SMOOTH",
"37 700 LINE SMOOTH",
"25 700 OFFCURVE",
"15 690 OFFCURVE",
"15 678 CURVE SMOOTH",
"15 676 OFFCURVE",
"15 675 OFFCURVE",
"16 671 CURVE SMOOTH",
"204 33 LINE SMOOTH",
"208 18 OFFCURVE",
"222 0 OFFCURVE",
"249 0 CURVE SMOOTH"
);
}
);
width = 726;
}
);
unicode = 0056;
userData = {
com.typemytype.robofont.guides = (
{
angle = 0;
isGlobal = 0;
magnetic = 5;
x = 0;
y = 24;
}
);
};
},
{
glyphname = W;
layers = (
{
anchors = (
{
name = bottom;
position = "{394, 0}";
},
{
name = top;
position = "{394, 700}";
}
);
guideLines = (
{
position = "{0, 545}";
},
{
position = "{0, 670}";
},
{
position = "{0, 24}";
}
);
layerId = "581BC726-83A6-4935-8633-5A6508251040";
paths = (
{
closed = 1;
nodes = (
"230 0 LINE",
"246 0 OFFCURVE",
"256 8 OFFCURVE",
"261 24 CURVE",
"394 446 LINE",
"527 24 LINE",
"532 8 OFFCURVE",
"542 0 OFFCURVE",
"558 0 CURVE",
"573 0 LINE",
"589 0 OFFCURVE",
"597 7 OFFCURVE",
"601 24 CURVE",
"738 668 LINE",
"739 673 OFFCURVE",
"740 678 OFFCURVE",
"740 680 CURVE SMOOTH",
"740 691 OFFCURVE",
"731 700 OFFCURVE",
"720 700 CURVE",
"699 700 LINE",
"686 700 OFFCURVE",
"679 694 OFFCURVE",
"677 685 CURVE",
"560 115 LINE",
"436 522 LINE",
"432 534 OFFCURVE",
"423 545 OFFCURVE",
"405 545 CURVE",
"383 545 LINE",
"365 545 OFFCURVE",
"356 534 OFFCURVE",
"352 522 CURVE",
"228 115 LINE",
"111 685 LINE",
"109 694 OFFCURVE",
"102 700 OFFCURVE",
"89 700 CURVE",
"68 700 LINE",
"57 700 OFFCURVE",
"48 691 OFFCURVE",
"48 680 CURVE SMOOTH",
"48 678 OFFCURVE",
"49 673 OFFCURVE",
"50 668 CURVE",
"187 24 LINE",
"191 7 OFFCURVE",
"199 0 OFFCURVE",
"215 0 CURVE"
);
}
);
width = 788;
},
{
anchors = (
{
name = bottom;
position = "{428, 0}";
},
{
name = top;
position = "{428, 700}";
}
);
guideLines = (
{
position = "{0, 545}";
}
);
layerId = "EC64484B-0978-4CB1-9EE9-C40A2D8C4059";
paths = (
{
closed = 1;
nodes = (
"305 0 LINE SMOOTH",
"332 0 OFFCURVE",
"343 19 OFFCURVE",
"346 27 CURVE SMOOTH",
"428 232 LINE",
"510 27 LINE SMOOTH",
"513 19 OFFCURVE",
"524 0 OFFCURVE",
"551 0 CURVE SMOOTH",
"694 0 LINE SMOOTH",
"721 0 OFFCURVE",
"738 20 OFFCURVE",
"740 38 CURVE",
"832 675 LINE",
"832 676 OFFCURVE",
"832 677 OFFCURVE",
"832 678 CURVE SMOOTH",
"832 690 OFFCURVE",
"822 700 OFFCURVE",
"810 700 CURVE SMOOTH",
"624 700 LINE SMOOTH",
"601 700 OFFCURVE",
"590 693 OFFCURVE",
"588 673 CURVE SMOOTH",
"554 392 LINE",
"513 516 LINE SMOOTH",
"510 525 OFFCURVE",
"503 545 OFFCURVE",
"479 545 CURVE SMOOTH",
"377 545 LINE SMOOTH",
"353 545 OFFCURVE",
"346 525 OFFCURVE",
"343 516 CURVE SMOOTH",
"302 391 LINE",
"268 673 LINE SMOOTH",
"266 693 OFFCURVE",
"255 700 OFFCURVE",
"232 700 CURVE SMOOTH",
"46 700 LINE SMOOTH",
"34 700 OFFCURVE",
"24 690 OFFCURVE",
"24 678 CURVE SMOOTH",
"24 677 OFFCURVE",
"24 676 OFFCURVE",
"24 675 CURVE",
"116 38 LINE",
"118 20 OFFCURVE",
"135 0 OFFCURVE",
"162 0 CURVE SMOOTH"
);
}
);
width = 856;
}
);
leftKerningGroup = W;
rightKerningGroup = W;
unicode = 0057;
userData = {
com.typemytype.robofont.guides = (
{
angle = 0;
isGlobal = 0;
magnetic = 5;
x = 0;
y = 545;
},
{
angle = 0;
isGlobal = 0;
magnetic = 5;
x = 0;
y = 670;
},
{
angle = 0;
isGlobal = 0;
magnetic = 5;
x = 0;
y = 24;
}
);
};
},
{
glyphname = X;
layers = (
{
guideLines = (
{
position = "{0, 350}";
},
{
angle = 90;
position = "{28, 0}";
},
{
angle = 90;
position = "{580, 0}";
}
);
layerId = "581BC726-83A6-4935-8633-5A6508251040";
paths = (
{
closed = 1;
nodes = (
"72 0 LINE",
"81 0 OFFCURVE",
"88 5 OFFCURVE",
"95 15 CURVE",
"304 304 LINE",
"513 15 LINE",
"520 5 OFFCURVE",
"527 0 OFFCURVE",
"536 0 CURVE",
"560 0 LINE",
"571 0 OFFCURVE",
"580 9 OFFCURVE",
"580 20 CURVE SMOOTH",
"580 25 OFFCURVE",
"578 30 OFFCURVE",
"576 33 CURVE",
"344 354 LINE",
"565 667 LINE",
"567 670 OFFCURVE",
"569 675 OFFCURVE",
"569 680 CURVE SMOOTH",
"569 691 OFFCURVE",
"560 700 OFFCURVE",
"549 700 CURVE",
"527 700 LINE",
"518 700 OFFCURVE",
"511 695 OFFCURVE",
"504 685 CURVE",
"307 405 LINE",
"106 685 LINE",
"99 695 OFFCURVE",
"92 700 OFFCURVE",
"83 700 CURVE",
"59 700 LINE",
"48 700 OFFCURVE",
"39 691 OFFCURVE",
"39 680 CURVE SMOOTH",
"39 675 OFFCURVE",
"41 670 OFFCURVE",
"43 667 CURVE",
"267 356 LINE",
"34 33 LINE",
"32 30 OFFCURVE",
"30 25 OFFCURVE",
"30 20 CURVE SMOOTH",
"30 9 OFFCURVE",
"39 0 OFFCURVE",
"50 0 CURVE"
);
}
);
width = 609;
},
{
guideLines = (
{
position = "{0, 359}";
},
{
angle = 90;
position = "{383, 0}";
}
);
hints = (
{
horizontal = 1;
place = "{-2147483648, 0}";
type = Tag;
}
);
layerId = "EC64484B-0978-4CB1-9EE9-C40A2D8C4059";
paths = (
{
closed = 1;
nodes = (
"240 0 LINE SMOOTH",
"266 0 OFFCURVE",
"278 18 OFFCURVE",
"281 23 CURVE SMOOTH",
"364 157 LINE",
"451 23 LINE SMOOTH",
"454 18 OFFCURVE",
"466 0 OFFCURVE",
"492 0 CURVE SMOOTH",
"717 0 LINE SMOOTH",
"729 0 OFFCURVE",
"739 10 OFFCURVE",
"739 22 CURVE SMOOTH",
"739 24 OFFCURVE",
"739 28 OFFCURVE",
"736 33 CURVE SMOOTH",
"523 361 LINE",
"716 667 LINE SMOOTH",
"719 672 OFFCURVE",
"719 673 OFFCURVE",
"719 678 CURVE SMOOTH",
"719 690 OFFCURVE",
"709 700 OFFCURVE",
"697 700 CURVE SMOOTH",
"490 700 LINE SMOOTH",
"464 700 OFFCURVE",
"452 682 OFFCURVE",
"448 675 CURVE SMOOTH",
"372 553 LINE",
"302 675 LINE SMOOTH",
"298 682 OFFCURVE",
"286 700 OFFCURVE",
"260 700 CURVE SMOOTH",
"43 700 LINE SMOOTH",
"31 700 OFFCURVE",
"21 690 OFFCURVE",
"21 678 CURVE SMOOTH",
"21 673 OFFCURVE",
"22 671 OFFCURVE",
"24 667 CURVE SMOOTH",
"213 358 LINE",
"3 33 LINE SMOOTH",
"0 28 OFFCURVE",
"0 24 OFFCURVE",
"0 22 CURVE SMOOTH",
"0 10 OFFCURVE",
"10 0 OFFCURVE",
"22 0 CURVE SMOOTH"
);
}
);
width = 739;
}
);
unicode = 0058;
userData = {
com.typemytype.robofont.guides = (
{
angle = 0;
isGlobal = 0;
magnetic = 5;
x = 0;
y = 350;
},
{
angle = 90;
isGlobal = 0;
magnetic = 5;
x = 28;
y = 0;
},
{
angle = 90;
isGlobal = 0;
magnetic = 5;
x = 580;
y = 0;
}
);
};
},
{
glyphname = Y;
layers = (
{
anchors = (
{
name = bottom;
position = "{316, 0}";
},
{
name = top;
position = "{316, 700}";
},
{
name = topleft;
position = "{20, 700}";
}
);
guideLines = (
{
angle = 90;
position = "{310, 0}";
}
);
layerId = "581BC726-83A6-4935-8633-5A6508251040";
paths = (
{
closed = 1;
nodes = (
"325 0 LINE SMOOTH",
"339 0 OFFCURVE",
"348 9 OFFCURVE",
"348 22 CURVE SMOOTH",
"348 267 LINE",
"592 667 LINE SMOOTH",
"594 671 OFFCURVE",
"596 675 OFFCURVE",
"596 680 CURVE SMOOTH",
"596 691 OFFCURVE",
"587 700 OFFCURVE",
"576 700 CURVE SMOOTH",
"556 700 LINE SMOOTH",
"547 700 OFFCURVE",
"539 695 OFFCURVE",
"533 685 CURVE SMOOTH",
"316 332 LINE",
"99 685 LINE SMOOTH",
"93 695 OFFCURVE",
"85 700 OFFCURVE",
"76 700 CURVE SMOOTH",
"56 700 LINE SMOOTH",
"45 700 OFFCURVE",
"36 691 OFFCURVE",
"36 680 CURVE SMOOTH",
"36 675 OFFCURVE",
"38 671 OFFCURVE",
"40 667 CURVE SMOOTH",
"284 267 LINE",
"284 22 LINE SMOOTH",
"284 9 OFFCURVE",
"293 0 OFFCURVE",
"306 0 CURVE SMOOTH"
);
}
);
width = 632;
},
{
anchors = (
{
name = bottom;
position = "{355, 0}";
},
{
name = top;
position = "{355, 700}";
},
{
name = topleft;
position = "{20, 700}";
}
);
layerId = "EC64484B-0978-4CB1-9EE9-C40A2D8C4059";
paths = (
{
closed = 1;
nodes = (
"453 0 LINE SMOOTH",
"468 0 OFFCURVE",
"480 12 OFFCURVE",
"480 27 CURVE SMOOTH",
"480 224 LINE",
"705 669 LINE SMOOTH",
"706 671 OFFCURVE",
"707 675 OFFCURVE",
"707 678 CURVE SMOOTH",
"707 690 OFFCURVE",
"697 700 OFFCURVE",
"685 700 CURVE SMOOTH",
"497 700 LINE SMOOTH",
"470 700 OFFCURVE",
"458 681 OFFCURVE",
"455 675 CURVE SMOOTH",
"355 474 LINE",
"255 675 LINE SMOOTH",
"252 681 OFFCURVE",
"240 700 OFFCURVE",
"213 700 CURVE SMOOTH",
"25 700 LINE SMOOTH",
"13 700 OFFCURVE",
"3 690 OFFCURVE",
"3 678 CURVE SMOOTH",
"3 675 OFFCURVE",
"4 671 OFFCURVE",
"5 669 CURVE SMOOTH",
"230 224 LINE",
"230 27 LINE SMOOTH",
"230 12 OFFCURVE",
"242 0 OFFCURVE",
"257 0 CURVE SMOOTH"
);
}
);
width = 710;
}
);
leftKerningGroup = Y;
rightKerningGroup = Y;
unicode = 0059;
userData = {
com.typemytype.robofont.guides = (
{
angle = 90;
isGlobal = 0;
magnetic = 5;
x = 310;
y = 0;
}
);
};
},
{
glyphname = Z;
layers = (
{
anchors = (
{
name = bottom;
position = "{290, 0}";
},
{
name = top;
position = "{280, 700}";
}
);
guideLines = (
{
position = "{0, 51}";
},
{
position = "{0, 9}";
},
{
position = "{0, 691}";
},
{
position = "{0, 649}";
},
{
angle = 90;
position = "{189, 0}";
},
{
angle = 90;
position = "{815, 0}";
},
{
angle = 90;
position = "{732, 0}";
},
{
angle = 90;
position = "{-431, 0}";
},
{
angle = 90;
position = "{74, 0}";
},
{
angle = 90;
position = "{541, 0}";
}
);
layerId = "581BC726-83A6-4935-8633-5A6508251040";
paths = (
{
closed = 1;
nodes = (
"514 0 LINE SMOOTH",
"528 0 OFFCURVE",
"537 9 OFFCURVE",
"537 22 CURVE SMOOTH",
"537 37 LINE SMOOTH",
"537 51 OFFCURVE",
"528 60 OFFCURVE",
"514 60 CURVE SMOOTH",
"122 60 LINE",
"514 621 LINE SMOOTH",
"520 630 OFFCURVE",
"527 640 OFFCURVE",
"527 657 CURVE SMOOTH",
"527 677 LINE SMOOTH",
"527 691 OFFCURVE",
"518 700 OFFCURVE",
"504 700 CURVE SMOOTH",
"73 700 LINE SMOOTH",
"60 700 OFFCURVE",
"51 691 OFFCURVE",
"51 677 CURVE SMOOTH",
"51 662 LINE SMOOTH",
"51 649 OFFCURVE",
"60 640 OFFCURVE",
"73 640 CURVE SMOOTH",
"451 640 LINE",
"57 81 LINE SMOOTH",
"53 75 OFFCURVE",
"42 63 OFFCURVE",
"42 43 CURVE SMOOTH",
"42 23 LINE SMOOTH",
"42 9 OFFCURVE",
"51 0 OFFCURVE",
"64 0 CURVE SMOOTH"
);
}
);
width = 579;
},
{
anchors = (
{
name = bottom;
position = "{347, 0}";
},
{
name = top;
position = "{337, 700}";
}
);
guideLines = (
{
angle = 90;
position = "{45, 0}";
},
{
angle = 90;
position = "{670, 0}";
}
);
layerId = "EC64484B-0978-4CB1-9EE9-C40A2D8C4059";
paths = (
{
closed = 1;
nodes = (
"633 0 LINE SMOOTH",
"648 0 OFFCURVE",
"660 12 OFFCURVE",
"660 27 CURVE SMOOTH",
"660 178 LINE SMOOTH",
"660 193 OFFCURVE",
"648 205 OFFCURVE",
"633 205 CURVE SMOOTH",
"369 205 LINE",
"634 498 LINE SMOOTH",
"642 506 OFFCURVE",
"647 517 OFFCURVE",
"647 531 CURVE SMOOTH",
"647 673 LINE SMOOTH",
"647 688 OFFCURVE",
"635 700 OFFCURVE",
"620 700 CURVE SMOOTH",
"72 700 LINE SMOOTH",
"57 700 OFFCURVE",
"45 688 OFFCURVE",
"45 673 CURVE SMOOTH",
"45 524 LINE SMOOTH",
"45 509 OFFCURVE",
"57 497 OFFCURVE",
"72 497 CURVE SMOOTH",
"330 497 LINE",
"50 206 LINE SMOOTH",
"45 201 OFFCURVE",
"35 190 OFFCURVE",
"35 171 CURVE SMOOTH",
"35 27 LINE SMOOTH",
"35 12 OFFCURVE",
"47 0 OFFCURVE",
"62 0 CURVE SMOOTH"
);
}
);
width = 693;
}
);
leftKerningGroup = Z;
rightKerningGroup = Z;
unicode = 005A;
userData = {
com.typemytype.robofont.guides = (
{
angle = 0;
isGlobal = 0;
magnetic = 5;
x = 0;
y = 51;
},
{
angle = 0;
isGlobal = 0;
magnetic = 5;
x = 0;
y = 9;
},
{
angle = 0;
isGlobal = 0;
magnetic = 5;
x = 0;
y = 691;
},
{
angle = 0;
isGlobal = 0;
magnetic = 5;
x = 0;
y = 649;
},
{
angle = 90;
isGlobal = 0;
magnetic = 5;
x = 189;
y = 0;
},
{
angle = 90;
isGlobal = 0;
magnetic = 5;
x = 815;
y = 0;
},
{
angle = 90;
isGlobal = 0;
magnetic = 5;
x = 732;
y = 0;
},
{
angle = 90;
isGlobal = 0;
magnetic = 5;
x = "-431";
y = 0;
},
{
angle = 90;
isGlobal = 0;
magnetic = 5;
x = 74;
y = 0;
},
{
angle = 90;
isGlobal = 0;
magnetic = 5;
x = 541;
y = 0;
}
);
};
},
{
glyphname = a;
layers = (
{
layerId = "581BC726-83A6-4935-8633-5A6508251040";
paths = (
{
closed = 1;
nodes = (
"324 -10 OFFCURVE",
"374 33 OFFCURVE",
"398 69 CURVE",
"398 22 LINE SMOOTH",
"398 9 OFFCURVE",
"407 0 OFFCURVE",
"420 0 CURVE",
"437 0 LINE SMOOTH",
"450 0 OFFCURVE",
"459 9 OFFCURVE",
"459 22 CURVE SMOOTH",
"459 355 LINE SMOOTH",
"459 435 OFFCURVE",
"420 530 OFFCURVE",
"262 530 CURVE SMOOTH",
"129 530 OFFCURVE",
"77 442 OFFCURVE",
"77 405 CURVE SMOOTH",
"77 393 OFFCURVE",
"87 383 OFFCURVE",
"99 383 CURVE SMOOTH",
"113 383 LINE SMOOTH",
"125 383 OFFCURVE",
"132 388 OFFCURVE",
"137 404 CURVE SMOOTH",
"148 437 OFFCURVE",
"188 472 OFFCURVE",
"262 472 CURVE SMOOTH",
"356 472 OFFCURVE",
"398 429 OFFCURVE",
"398 358 CURVE SMOOTH",
"398 323 LINE",
"240 301 LINE SMOOTH",
"123 285 OFFCURVE",
"42 229 OFFCURVE",
"42 139 CURVE SMOOTH",
"42 55 OFFCURVE",
"125 -10 OFFCURVE",
"221 -10 CURVE SMOOTH"
);
},
{
closed = 1;
nodes = (
"169 48 OFFCURVE",
"103 78 OFFCURVE",
"103 144 CURVE SMOOTH",
"103 198 OFFCURVE",
"160 235 OFFCURVE",
"269 250 CURVE SMOOTH",
"398 268 LINE",
"398 234 LINE SMOOTH",
"398 108 OFFCURVE",
"323 48 OFFCURVE",
"231 48 CURVE SMOOTH"
);
}
);
width = 536;
},
{
guideLines = (
{
position = "{0, 530}";
},
{
position = "{0, 335}";
},
{
position = "{0, 390}";
},
{
position = "{0, -10}";
},
{
position = "{0, 55}";
}
);
hints = (
{
horizontal = 1;
place = "{-2147483648, 0}";
type = Tag;
},
{
horizontal = 1;
place = "{-2147483648, 0}";
type = Tag;
}
);
layerId = "EC64484B-0978-4CB1-9EE9-C40A2D8C4059";
paths = (
{
closed = 1;
nodes = (
"273 -10 OFFCURVE",
"324 15 OFFCURVE",
"353 55 CURVE",
"353 27 LINE SMOOTH",
"353 12 OFFCURVE",
"365 0 OFFCURVE",
"380 0 CURVE SMOOTH",
"555 0 LINE SMOOTH",
"570 0 OFFCURVE",
"582 12 OFFCURVE",
"582 27 CURVE SMOOTH",
"582 314 LINE SMOOTH",
"582 451 OFFCURVE",
"495 530 OFFCURVE",
"314 530 CURVE SMOOTH",
"127 530 OFFCURVE",
"54 431 OFFCURVE",
"51 380 CURVE SMOOTH",
"50 367 OFFCURVE",
"60 358 OFFCURVE",
"73 358 CURVE SMOOTH",
"240 358 LINE",
"241 358 OFFCURVE",
"242 358 OFFCURVE",
"243 358 CURVE SMOOTH",
"275 358 OFFCURVE",
"278 390 OFFCURVE",
"312 390 CURVE SMOOTH",
"340 390 OFFCURVE",
"342 375 OFFCURVE",
"342 340 CURVE",
"342 339 LINE",
"236 322 LINE",
"103 299 OFFCURVE",
"17 246 OFFCURVE",
"17 149 CURVE SMOOTH",
"17 59 OFFCURVE",
"96 -10 OFFCURVE",
"211 -10 CURVE SMOOTH"
);
},
{
closed = 1;
nodes = (
"255 138 OFFCURVE",
"242 151 OFFCURVE",
"242 166 CURVE SMOOTH",
"242 180 OFFCURVE",
"251 195 OFFCURVE",
"286 203 CURVE SMOOTH",
"345 216 LINE",
"345 215 LINE",
"345 162 OFFCURVE",
"319 138 OFFCURVE",
"280 138 CURVE SMOOTH"
);
}
);
width = 622;
}
);
leftKerningGroup = a;
rightKerningGroup = a;
unicode = 0061;
},
{
glyphname = b;
layers = (
{
guideLines = (
{
position = "{0, 530}";
},
{
position = "{0, -10}";
},
{
position = "{0, 710}";
},
{
position = "{0, 288}";
},
{
position = "{0, 232}";
},
{
position = "{0, 451}";
},
{
position = "{0, 69}";
},
{
angle = 90;
position = "{121, 0}";
},
{
angle = 90;
position = "{79, 0}";
}
);
layerId = "581BC726-83A6-4935-8633-5A6508251040";
paths = (
{
closed = 1;
nodes = (
"467 -10 OFFCURVE",
"521 115 OFFCURVE",
"525 232 CURVE SMOOTH",
"526 252 OFFCURVE",
"526 268 OFFCURVE",
"525 288 CURVE SMOOTH",
"521 405 OFFCURVE",
"467 530 OFFCURVE",
"311 530 CURVE SMOOTH",
"228 530 OFFCURVE",
"176 495 OFFCURVE",
"143 451 CURVE",
"143 688 LINE SMOOTH",
"143 701 OFFCURVE",
"134 710 OFFCURVE",
"121 710 CURVE SMOOTH",
"104 710 LINE SMOOTH",
"91 710 OFFCURVE",
"82 701 OFFCURVE",
"82 688 CURVE SMOOTH",
"82 22 LINE SMOOTH",
"82 9 OFFCURVE",
"91 0 OFFCURVE",
"104 0 CURVE SMOOTH",
"121 0 LINE SMOOTH",
"134 0 OFFCURVE",
"143 9 OFFCURVE",
"143 22 CURVE SMOOTH",
"143 69 LINE",
"176 24 OFFCURVE",
"228 -10 OFFCURVE",
"311 -10 CURVE SMOOTH"
);
},
{
closed = 1;
nodes = (
"191 48 OFFCURVE",
"146 142 OFFCURVE",
"143 224 CURVE SMOOTH",
"142 244 OFFCURVE",
"142 282 OFFCURVE",
"143 302 CURVE SMOOTH",
"145 382 OFFCURVE",
"194 472 OFFCURVE",
"305 472 CURVE SMOOTH",
"422 472 OFFCURVE",
"460 384 OFFCURVE",
"464 288 CURVE SMOOTH",
"465 268 OFFCURVE",
"465 252 OFFCURVE",
"464 232 CURVE SMOOTH",
"460 136 OFFCURVE",
"422 48 OFFCURVE",
"305 48 CURVE SMOOTH"
);
}
);
width = 580;
},
{
guideLines = (
{
position = "{0, 525}";
},
{
position = "{0, -10}";
},
{
position = "{0, 740}";
},
{
position = "{0, 710}";
},
{
position = "{0, 50}";
},
{
position = "{0, 650}";
},
{
position = "{0, 470}";
},
{
angle = 90;
position = "{289, 0}";
}
);
hints = (
{
horizontal = 1;
place = "{-2147483648, 0}";
type = Tag;
},
{
horizontal = 1;
place = "{-2147483648, 0}";
type = Tag;
}
);
layerId = "EC64484B-0978-4CB1-9EE9-C40A2D8C4059";
paths = (
{
closed = 1;
nodes = (
"533 -10 OFFCURVE",
"622 54 OFFCURVE",
"629 221 CURVE SMOOTH",
"630 251 OFFCURVE",
"630 270 OFFCURVE",
"629 300 CURVE SMOOTH",
"623 457 OFFCURVE",
"533 530 OFFCURVE",
"417 530 CURVE SMOOTH",
"361 530 OFFCURVE",
"316 512 OFFCURVE",
"284 483 CURVE",
"284 683 LINE SMOOTH",
"284 698 OFFCURVE",
"272 710 OFFCURVE",
"257 710 CURVE SMOOTH",
"72 710 LINE SMOOTH",
"57 710 OFFCURVE",
"45 698 OFFCURVE",
"45 683 CURVE SMOOTH",
"45 27 LINE SMOOTH",
"45 12 OFFCURVE",
"57 0 OFFCURVE",
"72 0 CURVE SMOOTH",
"242 0 LINE SMOOTH",
"257 0 OFFCURVE",
"269 12 OFFCURVE",
"269 27 CURVE SMOOTH",
"269 50 LINE",
"301 14 OFFCURVE",
"348 -10 OFFCURVE",
"417 -10 CURVE SMOOTH"
);
},
{
closed = 1;
nodes = (
"297 169 OFFCURVE",
"286 191 OFFCURVE",
"284 227 CURVE SMOOTH",
"282 257 OFFCURVE",
"282 271 OFFCURVE",
"284 301 CURVE SMOOTH",
"286 333 OFFCURVE",
"300 351 OFFCURVE",
"334 351 CURVE SMOOTH",
"371 351 OFFCURVE",
"380 329 OFFCURVE",
"384 293 CURVE SMOOTH",
"386 273 OFFCURVE",
"386 247 OFFCURVE",
"384 227 CURVE SMOOTH",
"380 191 OFFCURVE",
"371 169 OFFCURVE",
"334 169 CURVE SMOOTH"
);
}
);
width = 661;
}
);
leftKerningGroup = h;
rightKerningGroup = b;
unicode = 0062;
userData = {
com.typemytype.robofont.guides = (
{
angle = 0;
isGlobal = 0;
magnetic = 5;
x = 0;
y = 530;
},
{
angle = 0;
isGlobal = 0;
magnetic = 5;
x = 0;
y = "-10";
},
{
angle = 0;
isGlobal = 0;
magnetic = 5;
x = 0;
y = 710;
},
{
angle = 0;
isGlobal = 0;
magnetic = 5;
x = 0;
y = 288;
},
{
angle = 0;
isGlobal = 0;
magnetic = 5;
x = 0;
y = 232;
},
{
angle = 0;
isGlobal = 0;
magnetic = 5;
x = 0;
y = 451;
},
{
angle = 0;
isGlobal = 0;
magnetic = 5;
x = 0;
y = 69;
},
{
angle = 90;
isGlobal = 0;
magnetic = 5;
x = 121;
y = 0;
},
{
angle = 90;
isGlobal = 0;
magnetic = 5;
x = 79;
y = 0;
}
);
};
},
{
glyphname = c;
layers = (
{
guideLines = (
{
position = "{0, -10}";
},
{
position = "{0, 295}";
},
{
position = "{0, 225}";
},
{
angle = 90;
position = "{445, 0}";
},
{
angle = 90;
position = "{484, 0}";
},
{
angle = 90;
position = "{137, 0}";
},
{
angle = 90;
position = "{270, 0}";
}
);
layerId = "581BC726-83A6-4935-8633-5A6508251040";
paths = (
{
closed = 1;
nodes = (
"419 -10 OFFCURVE",
"482 77 OFFCURVE",
"485 149 CURVE SMOOTH",
"486 162 OFFCURVE",
"475 171 OFFCURVE",
"463 171 CURVE SMOOTH",
"449 171 LINE SMOOTH",
"435 171 OFFCURVE",
"431 166 OFFCURVE",
"425 150 CURVE SMOOTH",
"397 74 OFFCURVE",
"348 48 OFFCURVE",
"278 48 CURVE SMOOTH",
"187 48 OFFCURVE",
"122 100 OFFCURVE",
"118 225 CURVE SMOOTH",
"117 245 OFFCURVE",
"117 275 OFFCURVE",
"118 295 CURVE SMOOTH",
"122 420 OFFCURVE",
"187 472 OFFCURVE",
"278 472 CURVE SMOOTH",
"348 472 OFFCURVE",
"397 446 OFFCURVE",
"425 370 CURVE SMOOTH",
"431 354 OFFCURVE",
"435 349 OFFCURVE",
"449 349 CURVE SMOOTH",
"463 349 LINE SMOOTH",
"475 349 OFFCURVE",
"486 358 OFFCURVE",
"485 371 CURVE SMOOTH",
"482 443 OFFCURVE",
"419 530 OFFCURVE",
"278 530 CURVE SMOOTH",
"137 530 OFFCURVE",
"61 443 OFFCURVE",
"57 300 CURVE SMOOTH",
"56 280 OFFCURVE",
"56 240 OFFCURVE",
"57 220 CURVE SMOOTH",
"61 77 OFFCURVE",
"137 -10 OFFCURVE",
"278 -10 CURVE SMOOTH"
);
}
);
width = 536;
},
{
guideLines = (
{
position = "{0, -10}";
},
{
position = "{0, 295}";
},
{
position = "{0, 224}";
},
{
angle = 90;
position = "{-650, 0}";
},
{
angle = 90;
position = "{-405, 0}";
}
);
hints = (
{
horizontal = 1;
place = "{-2147483648, 0}";
type = Tag;
},
{
horizontal = 1;
place = "{-2147483648, 0}";
type = Tag;
}
);
layerId = "EC64484B-0978-4CB1-9EE9-C40A2D8C4059";
paths = (
{
closed = 1;
nodes = (
"531 -10 OFFCURVE",
"600 141 OFFCURVE",
"603 184 CURVE SMOOTH",
"604 199 OFFCURVE",
"591 211 OFFCURVE",
"576 211 CURVE SMOOTH",
"381 211 LINE SMOOTH",
"366 211 OFFCURVE",
"357 203 OFFCURVE",
"352 191 CURVE SMOOTH",
"344 172 OFFCURVE",
"339 161 OFFCURVE",
"315 161 CURVE SMOOTH",
"284 161 OFFCURVE",
"277 181 OFFCURVE",
"275 224 CURVE SMOOTH",
"274 243 OFFCURVE",
"274 266 OFFCURVE",
"275 295 CURVE SMOOTH",
"276 335 OFFCURVE",
"284 359 OFFCURVE",
"315 359 CURVE SMOOTH",
"335 359 OFFCURVE",
"343 348 OFFCURVE",
"352 329 CURVE SMOOTH",
"358 317 OFFCURVE",
"366 309 OFFCURVE",
"381 309 CURVE SMOOTH",
"576 309 LINE SMOOTH",
"591 309 OFFCURVE",
"604 321 OFFCURVE",
"603 336 CURVE SMOOTH",
"600 389 OFFCURVE",
"521 530 OFFCURVE",
"310 530 CURVE SMOOTH",
"157 530 OFFCURVE",
"37 448 OFFCURVE",
"30 300 CURVE SMOOTH",
"29 277 OFFCURVE",
"29 240 OFFCURVE",
"30 219 CURVE SMOOTH",
"38 71 OFFCURVE",
"157 -10 OFFCURVE",
"310 -10 CURVE SMOOTH"
);
}
);
width = 622;
}
);
leftKerningGroup = o;
rightKerningGroup = c;
unicode = 0063;
userData = {
com.typemytype.robofont.guides = (
{
angle = 0;
isGlobal = 0;
magnetic = 5;
x = 0;
y = "-10";
},
{
angle = 0;
isGlobal = 0;
magnetic = 5;
x = 0;
y = 295;
},
{
angle = 0;
isGlobal = 0;
magnetic = 5;
x = 0;
y = 225;
},
{
angle = 90;
isGlobal = 0;
magnetic = 5;
x = 445;
y = 0;
},
{
angle = 90;
isGlobal = 0;
magnetic = 5;
x = 484;
y = 0;
},
{
angle = 90;
isGlobal = 0;
magnetic = 5;
x = 137;
y = 0;
},
{
angle = 90;
isGlobal = 0;
magnetic = 5;
x = 270;
y = 0;
}
);
};
},
{
glyphname = d;
layers = (
{
guideLines = (
{
position = "{0, 650}";
},
{
position = "{0, 530}";
},
{
angle = 90;
position = "{438, 0}";
},
{
angle = 90;
position = "{499, 0}";
}
);
layerId = "581BC726-83A6-4935-8633-5A6508251040";
paths = (
{
closed = 1;
nodes = (
"352 -10 OFFCURVE",
"404 24 OFFCURVE",
"437 69 CURVE",
"437 22 LINE SMOOTH",
"437 9 OFFCURVE",
"446 0 OFFCURVE",
"459 0 CURVE SMOOTH",
"476 0 LINE SMOOTH",
"489 0 OFFCURVE",
"498 9 OFFCURVE",
"498 22 CURVE SMOOTH",
"498 688 LINE SMOOTH",
"498 701 OFFCURVE",
"489 710 OFFCURVE",
"476 710 CURVE SMOOTH",
"459 710 LINE SMOOTH",
"446 710 OFFCURVE",
"437 701 OFFCURVE",
"437 688 CURVE SMOOTH",
"437 451 LINE",
"404 495 OFFCURVE",
"352 530 OFFCURVE",
"269 530 CURVE SMOOTH",
"113 530 OFFCURVE",
"59 405 OFFCURVE",
"55 288 CURVE SMOOTH",
"54 268 OFFCURVE",
"54 252 OFFCURVE",
"55 232 CURVE SMOOTH",
"59 115 OFFCURVE",
"113 -10 OFFCURVE",
"269 -10 CURVE SMOOTH"
);
},
{
closed = 1;
nodes = (
"158 48 OFFCURVE",
"120 136 OFFCURVE",
"116 232 CURVE SMOOTH",
"115 252 OFFCURVE",
"115 268 OFFCURVE",
"116 288 CURVE SMOOTH",
"120 384 OFFCURVE",
"158 472 OFFCURVE",
"275 472 CURVE SMOOTH",
"386 472 OFFCURVE",
"435 382 OFFCURVE",
"437 302 CURVE SMOOTH",
"438 282 OFFCURVE",
"438 244 OFFCURVE",
"437 224 CURVE SMOOTH",
"434 142 OFFCURVE",
"389 48 OFFCURVE",
"275 48 CURVE SMOOTH"
);
}
);
width = 580;
},
{
guideLines = (
{
position = "{0, 675}";
},
{
position = "{0, 650}";
},
{
position = "{0, 530}";
},
{
angle = 90;
position = "{248, 0}";
}
);
hints = (
{
horizontal = 1;
place = "{-2147483648, 0}";
type = Tag;
},
{
horizontal = 1;
place = "{-2147483648, 0}";
type = Tag;
}
);
layerId = "EC64484B-0978-4CB1-9EE9-C40A2D8C4059";
paths = (
{
closed = 1;
nodes = (
"313 -10 OFFCURVE",
"360 14 OFFCURVE",
"392 50 CURVE",
"392 27 LINE SMOOTH",
"392 12 OFFCURVE",
"404 0 OFFCURVE",
"419 0 CURVE SMOOTH",
"589 0 LINE SMOOTH",
"604 0 OFFCURVE",
"616 12 OFFCURVE",
"616 27 CURVE SMOOTH",
"616 683 LINE SMOOTH",
"616 698 OFFCURVE",
"604 710 OFFCURVE",
"589 710 CURVE SMOOTH",
"404 710 LINE SMOOTH",
"389 710 OFFCURVE",
"377 698 OFFCURVE",
"377 683 CURVE SMOOTH",
"377 483 LINE",
"345 512 OFFCURVE",
"300 530 OFFCURVE",
"244 530 CURVE SMOOTH",
"128 530 OFFCURVE",
"38 457 OFFCURVE",
"32 300 CURVE SMOOTH",
"31 270 OFFCURVE",
"31 251 OFFCURVE",
"32 221 CURVE SMOOTH",
"39 54 OFFCURVE",
"128 -10 OFFCURVE",
"244 -10 CURVE SMOOTH"
);
},
{
closed = 1;
nodes = (
"290 169 OFFCURVE",
"281 191 OFFCURVE",
"277 227 CURVE SMOOTH",
"275 247 OFFCURVE",
"275 273 OFFCURVE",
"277 293 CURVE SMOOTH",
"281 329 OFFCURVE",
"290 351 OFFCURVE",
"327 351 CURVE SMOOTH",
"361 351 OFFCURVE",
"375 333 OFFCURVE",
"377 301 CURVE SMOOTH",
"379 271 OFFCURVE",
"379 257 OFFCURVE",
"377 227 CURVE SMOOTH",
"375 191 OFFCURVE",
"364 169 OFFCURVE",
"327 169 CURVE SMOOTH"
);
}
);
width = 661;
}
);
leftKerningGroup = d;
rightKerningGroup = d;
unicode = 0064;
userData = {
com.typemytype.robofont.guides = (
{
angle = 0;
isGlobal = 0;
magnetic = 5;
x = 0;
y = 650;
},
{
angle = 0;
isGlobal = 0;
magnetic = 5;
x = 0;
y = 530;
},
{
angle = 90;
isGlobal = 0;
magnetic = 5;
x = 438;
y = 0;
},
{
angle = 90;
isGlobal = 0;
magnetic = 5;
x = 499;
y = 0;
}
);
};
},
{
glyphname = e;
layers = (
{
guideLines = (
{
position = "{0, -10}";
},
{
angle = 90;
position = "{275, 0}";
},
{
angle = 90;
position = "{496, 0}";
},
{
angle = 90;
position = "{61, 0}";
},
{
angle = 90;
position = "{122, 0}";
},
{
angle = 90;
position = "{430, 0}";
}
);
layerId = "581BC726-83A6-4935-8633-5A6508251040";
paths = (
{
closed = 1;
nodes = (
"400 -10 OFFCURVE",
"478 73 OFFCURVE",
"480 111 CURVE SMOOTH",
"481 123 OFFCURVE",
"471 131 OFFCURVE",
"459 131 CURVE SMOOTH",
"443 131 LINE SMOOTH",
"428 131 OFFCURVE",
"425 130 OFFCURVE",
"413 113 CURVE SMOOTH",
"402 97 OFFCURVE",
"359 48 OFFCURVE",
"274 48 CURVE SMOOTH",
"177 48 OFFCURVE",
"120 134 OFFCURVE",
"116 225 CURVE SMOOTH",
"116 228 OFFCURVE",
"116 235 OFFCURVE",
"116 235 CURVE",
"472 235 LINE SMOOTH",
"485 235 OFFCURVE",
"495 244 OFFCURVE",
"495 257 CURVE SMOOTH",
"495 272 LINE SMOOTH",
"495 432 OFFCURVE",
"413 530 OFFCURVE",
"274 530 CURVE SMOOTH",
"144 530 OFFCURVE",
"65 436 OFFCURVE",
"55 300 CURVE SMOOTH",
"54 280 OFFCURVE",
"54 240 OFFCURVE",
"55 220 CURVE SMOOTH",
"65 83 OFFCURVE",
"145 -10 OFFCURVE",
"274 -10 CURVE SMOOTH"
);
},
{
closed = 1;
nodes = (
"116 295 LINE SMOOTH",
"116 395 OFFCURVE",
"174 472 OFFCURVE",
"274 472 CURVE SMOOTH",
"374 472 OFFCURVE",
"434 395 OFFCURVE",
"434 295 CURVE SMOOTH",
"434 291 LINE",
"116 291 LINE"
);
}
);
width = 546;
},
{
guideLines = (
{
position = "{0, -10}";
},
{
angle = 90;
position = "{605, 0}";
}
);
hints = (
{
horizontal = 1;
place = "{-2147483648, 0}";
type = Tag;
}
);
layerId = "EC64484B-0978-4CB1-9EE9-C40A2D8C4059";
paths = (
{
closed = 1;
nodes = (
"499 -10 OFFCURVE",
"582 94 OFFCURVE",
"585 145 CURVE SMOOTH",
"586 158 OFFCURVE",
"576 167 OFFCURVE",
"563 167 CURVE SMOOTH",
"374 167 LINE SMOOTH",
"358 167 OFFCURVE",
"353 165 OFFCURVE",
"341 153 CURVE SMOOTH",
"330 142 OFFCURVE",
"324 135 OFFCURVE",
"312 135 CURVE SMOOTH",
"283 135 OFFCURVE",
"273 156 OFFCURVE",
"273 196 CURVE SMOOTH",
"273 198 OFFCURVE",
"273 199 OFFCURVE",
"273 201 CURVE",
"571 201 LINE SMOOTH",
"586 201 OFFCURVE",
"598 213 OFFCURVE",
"598 228 CURVE SMOOTH",
"598 258 LINE SMOOTH",
"598 405 OFFCURVE",
"509 530 OFFCURVE",
"313 530 CURVE SMOOTH",
"142 530 OFFCURVE",
"31 438 OFFCURVE",
"28 266 CURVE SMOOTH",
"28 264 OFFCURVE",
"28 261 OFFCURVE",
"28 259 CURVE SMOOTH",
"28 72 OFFCURVE",
"139 -10 OFFCURVE",
"314 -10 CURVE SMOOTH"
);
},
{
closed = 1;
nodes = (
"273 327 LINE",
"273 371 OFFCURVE",
"287 390 OFFCURVE",
"313 390 CURVE SMOOTH",
"339 390 OFFCURVE",
"353 371 OFFCURVE",
"353 327 CURVE",
"353 326 LINE",
"273 326 LINE"
);
}
);
width = 623;
}
);
leftKerningGroup = o;
rightKerningGroup = e;
unicode = 0065;
userData = {
com.typemytype.robofont.guides = (
{
angle = 0;
isGlobal = 0;
magnetic = 5;
x = 0;
y = "-10";
},
{
angle = 90;
isGlobal = 0;
magnetic = 5;
x = 275;
y = 0;
},
{
angle = 90;
isGlobal = 0;
magnetic = 5;
x = 496;
y = 0;
},
{
angle = 90;
isGlobal = 0;
magnetic = 5;
x = 61;
y = 0;
},
{
angle = 90;
isGlobal = 0;
magnetic = 5;
x = 122;
y = 0;
},
{
angle = 90;
isGlobal = 0;
magnetic = 5;
x = 430;
y = 0;
}
);
};
},
{
glyphname = f;
layers = (
{
guideLines = (
{
position = "{0, 345}";
},
{
position = "{0, 9}";
},
{
position = "{0, 740}";
},
{
angle = 90;
position = "{297, 0}";
},
{
angle = 90;
position = "{371, 0}";
}
);
layerId = "581BC726-83A6-4935-8633-5A6508251040";
paths = (
{
closed = 1;
nodes = (
"169 0 LINE SMOOTH",
"182 0 OFFCURVE",
"191 9 OFFCURVE",
"191 22 CURVE SMOOTH",
"191 462 LINE",
"323 462 LINE SMOOTH",
"336 462 OFFCURVE",
"345 471 OFFCURVE",
"345 484 CURVE SMOOTH",
"345 498 LINE SMOOTH",
"345 511 OFFCURVE",
"336 520 OFFCURVE",
"323 520 CURVE SMOOTH",
"191 520 LINE",
"191 572 LINE SMOOTH",
"191 643 OFFCURVE",
"210 682 OFFCURVE",
"281 682 CURVE SMOOTH",
"333 682 LINE SMOOTH",
"346 682 OFFCURVE",
"355 691 OFFCURVE",
"355 704 CURVE SMOOTH",
"355 718 LINE SMOOTH",
"355 731 OFFCURVE",
"346 740 OFFCURVE",
"333 740 CURVE SMOOTH",
"281 740 LINE SMOOTH",
"159 740 OFFCURVE",
"130 666 OFFCURVE",
"130 577 CURVE SMOOTH",
"130 520 LINE",
"41 520 LINE SMOOTH",
"28 520 OFFCURVE",
"19 511 OFFCURVE",
"19 498 CURVE SMOOTH",
"19 484 LINE SMOOTH",
"19 471 OFFCURVE",
"28 462 OFFCURVE",
"41 462 CURVE SMOOTH",
"130 462 LINE",
"130 22 LINE SMOOTH",
"130 9 OFFCURVE",
"139 0 OFFCURVE",
"152 0 CURVE SMOOTH"
);
}
);
width = 360;
},
{
guideLines = (
{
position = "{0, 740}";
},
{
position = "{0, 345}";
},
{
position = "{0, 565}";
},
{
position = "{0, 532}";
},
{
angle = 90;
position = "{491, 0}";
},
{
angle = 90;
position = "{383, 0}";
}
);
hints = (
{
horizontal = 1;
place = "{-2147483648, 0}";
type = Tag;
}
);
layerId = "EC64484B-0978-4CB1-9EE9-C40A2D8C4059";
paths = (
{
closed = 1;
nodes = (
"313 0 LINE SMOOTH",
"328 0 OFFCURVE",
"340 12 OFFCURVE",
"340 27 CURVE SMOOTH",
"340 345 LINE",
"454 345 LINE SMOOTH",
"469 345 OFFCURVE",
"481 357 OFFCURVE",
"481 372 CURVE SMOOTH",
"481 493 LINE SMOOTH",
"481 508 OFFCURVE",
"469 520 OFFCURVE",
"454 520 CURVE SMOOTH",
"340 520 LINE",
"340 532 LINE SMOOTH",
"340 553 OFFCURVE",
"353 565 OFFCURVE",
"383 565 CURVE SMOOTH",
"464 565 LINE SMOOTH",
"479 565 OFFCURVE",
"491 577 OFFCURVE",
"491 592 CURVE SMOOTH",
"491 713 LINE SMOOTH",
"491 728 OFFCURVE",
"479 740 OFFCURVE",
"464 740 CURVE SMOOTH",
"371 740 LINE SMOOTH",
"226 740 OFFCURVE",
"111 701 OFFCURVE",
"111 537 CURVE SMOOTH",
"111 520 LINE",
"42 520 LINE SMOOTH",
"27 520 OFFCURVE",
"15 508 OFFCURVE",
"15 493 CURVE SMOOTH",
"15 372 LINE SMOOTH",
"15 357 OFFCURVE",
"27 345 OFFCURVE",
"42 345 CURVE SMOOTH",
"111 345 LINE",
"111 27 LINE SMOOTH",
"111 12 OFFCURVE",
"123 0 OFFCURVE",
"138 0 CURVE SMOOTH"
);
}
);
width = 492;
}
);
leftKerningGroup = f;
rightKerningGroup = f;
unicode = 0066;
userData = {
com.typemytype.robofont.guides = (
{
angle = 0;
isGlobal = 0;
magnetic = 5;
x = 0;
y = 345;
},
{
angle = 0;
isGlobal = 0;
magnetic = 5;
x = 0;
y = 9;
},
{
angle = 0;
isGlobal = 0;
magnetic = 5;
x = 0;
y = 740;
},
{
angle = 90;
isGlobal = 0;
magnetic = 5;
x = 297;
y = 0;
},
{
angle = 90;
isGlobal = 0;
magnetic = 5;
x = 371;
y = 0;
}
);
};
},
{
glyphname = g;
layers = (
{
guideLines = (
{
position = "{0, 530}";
},
{
position = "{0, -220}";
},
{
position = "{0, 288}";
},
{
position = "{0, 232}";
},
{
angle = 90;
position = "{56, 0}";
},
{
angle = 90;
position = "{270, 0}";
}
);
layerId = "581BC726-83A6-4935-8633-5A6508251040";
paths = (
{
closed = 1;
nodes = (
"453 -220 OFFCURVE",
"499 -118 OFFCURVE",
"499 10 CURVE SMOOTH",
"499 497 LINE SMOOTH",
"499 510 OFFCURVE",
"489 520 OFFCURVE",
"476 520 CURVE SMOOTH",
"460 520 LINE SMOOTH",
"447 520 OFFCURVE",
"438 510 OFFCURVE",
"438 497 CURVE SMOOTH",
"438 451 LINE",
"405 495 OFFCURVE",
"352 530 OFFCURVE",
"270 530 CURVE SMOOTH",
"114 530 OFFCURVE",
"59 405 OFFCURVE",
"56 288 CURVE SMOOTH",
"55 268 OFFCURVE",
"55 252 OFFCURVE",
"56 232 CURVE SMOOTH",
"59 115 OFFCURVE",
"114 -10 OFFCURVE",
"270 -10 CURVE SMOOTH",
"352 -10 OFFCURVE",
"405 24 OFFCURVE",
"438 69 CURVE",
"438 0 LINE SMOOTH",
"438 -127 OFFCURVE",
"379 -162 OFFCURVE",
"270 -162 CURVE SMOOTH",
"166 -162 OFFCURVE",
"137 -103 OFFCURVE",
"126 -71 CURVE SMOOTH",
"120 -53 OFFCURVE",
"112 -50 OFFCURVE",
"102 -50 CURVE SMOOTH",
"88 -50 LINE SMOOTH",
"76 -50 OFFCURVE",
"65 -60 OFFCURVE",
"66 -73 CURVE SMOOTH",
"68 -113 OFFCURVE",
"105 -220 OFFCURVE",
"275 -220 CURVE SMOOTH"
);
},
{
closed = 1;
nodes = (
"159 48 OFFCURVE",
"120 136 OFFCURVE",
"117 232 CURVE SMOOTH",
"116 252 OFFCURVE",
"116 268 OFFCURVE",
"117 288 CURVE SMOOTH",
"120 384 OFFCURVE",
"159 472 OFFCURVE",
"276 472 CURVE SMOOTH",
"390 472 OFFCURVE",
"434 378 OFFCURVE",
"438 296 CURVE",
"439 276 OFFCURVE",
"439 244 OFFCURVE",
"438 224 CURVE",
"434 142 OFFCURVE",
"390 48 OFFCURVE",
"276 48 CURVE SMOOTH"
);
}
);
width = 581;
},
{
guideLines = (
{
position = "{0, 530}";
},
{
position = "{0, -220}";
},
{
position = "{0, 351}";
},
{
angle = 90;
position = "{381, 0}";
}
);
hints = (
{
horizontal = 1;
place = "{-2147483648, 0}";
type = Tag;
},
{
horizontal = 1;
place = "{-2147483648, 0}";
type = Tag;
},
{
horizontal = 1;
place = "{-2147483648, 0}";
type = Tag;
}
);
layerId = "EC64484B-0978-4CB1-9EE9-C40A2D8C4059";
paths = (
{
closed = 1;
nodes = (
"496 -220 OFFCURVE",
"621 -151 OFFCURVE",
"621 17 CURVE",
"620 493 LINE",
"620 508 OFFCURVE",
"608 520 OFFCURVE",
"593 520 CURVE",
"418 520 LINE",
"403 520 OFFCURVE",
"391 508 OFFCURVE",
"391 493 CURVE",
"391 462 LINE",
"359 502 OFFCURVE",
"308 530 OFFCURVE",
"243 530 CURVE SMOOTH",
"117 530 OFFCURVE",
"39 457 OFFCURVE",
"31 300 CURVE",
"30 280 OFFCURVE",
"30 269 OFFCURVE",
"31 249 CURVE",
"40 82 OFFCURVE",
"117 23 OFFCURVE",
"243 23 CURVE SMOOTH",
"301 23 OFFCURVE",
"345 39 OFFCURVE",
"376 66 CURVE",
"376 0 LINE",
"376 -40 OFFCURVE",
"362 -59 OFFCURVE",
"333 -59 CURVE SMOOTH",
"309 -59 OFFCURVE",
"300 -51 OFFCURVE",
"291 -34 CURVE SMOOTH",
"285 -22 OFFCURVE",
"278 -14 OFFCURVE",
"263 -14 CURVE",
"68 -14 LINE",
"53 -14 OFFCURVE",
"40 -26 OFFCURVE",
"41 -41 CURVE SMOOTH",
"44 -84 OFFCURVE",
"112 -220 OFFCURVE",
"338 -220 CURVE SMOOTH"
);
},
{
closed = 1;
nodes = (
"289 197 OFFCURVE",
"279 219 OFFCURVE",
"276 255 CURVE SMOOTH",
"275 265 OFFCURVE",
"275 283 OFFCURVE",
"276 293 CURVE",
"279 329 OFFCURVE",
"289 351 OFFCURVE",
"326 351 CURVE SMOOTH",
"360 351 OFFCURVE",
"373 333 OFFCURVE",
"376 301 CURVE SMOOTH",
"377 291 OFFCURVE",
"377 257 OFFCURVE",
"376 247 CURVE SMOOTH",
"373 215 OFFCURVE",
"360 197 OFFCURVE",
"326 197 CURVE SMOOTH"
);
}
);
width = 666;
}
);
leftKerningGroup = g;
rightKerningGroup = u;
unicode = 0067;
userData = {
com.typemytype.robofont.guides = (
{
angle = 0;
isGlobal = 0;
magnetic = 5;
x = 0;
y = 530;
},
{
angle = 0;
isGlobal = 0;
magnetic = 5;
x = 0;
y = "-220";
},
{
angle = 0;
isGlobal = 0;
magnetic = 5;
x = 0;
y = 288;
},
{
angle = 0;
isGlobal = 0;
magnetic = 5;
x = 0;
y = 232;
},
{
angle = 90;
isGlobal = 0;
magnetic = 5;
x = 56;
y = 0;
},
{
angle = 90;
isGlobal = 0;
magnetic = 5;
x = 270;
y = 0;
}
);
};
},
{
glyphname = h;
layers = (
{
guideLines = (
{
position = "{0, 9}";
},
{
position = "{0, 301}";
},
{
position = "{0, 414}";
},
{
position = "{0, 710}";
},
{
angle = 90;
position = "{79, 0}";
},
{
angle = 90;
position = "{291, 0}";
}
);
layerId = "581BC726-83A6-4935-8633-5A6508251040";
paths = (
{
closed = 1;
nodes = (
"121 0 LINE SMOOTH",
"134 0 OFFCURVE",
"143 9 OFFCURVE",
"143 22 CURVE SMOOTH",
"143 301 LINE SMOOTH",
"143 408 OFFCURVE",
"206 472 OFFCURVE",
"301 472 CURVE SMOOTH",
"401 472 OFFCURVE",
"454 407 OFFCURVE",
"454 301 CURVE SMOOTH",
"454 22 LINE SMOOTH",
"454 9 OFFCURVE",
"463 0 OFFCURVE",
"476 0 CURVE SMOOTH",
"493 0 LINE SMOOTH",
"506 0 OFFCURVE",
"515 9 OFFCURVE",
"515 22 CURVE SMOOTH",
"515 306 LINE SMOOTH",
"515 433 OFFCURVE",
"447 530 OFFCURVE",
"311 530 CURVE SMOOTH",
"225 530 OFFCURVE",
"179 498 OFFCURVE",
"143 451 CURVE",
"143 688 LINE SMOOTH",
"143 701 OFFCURVE",
"134 710 OFFCURVE",
"121 710 CURVE SMOOTH",
"104 710 LINE SMOOTH",
"91 710 OFFCURVE",
"82 701 OFFCURVE",
"82 688 CURVE SMOOTH",
"82 22 LINE SMOOTH",
"82 9 OFFCURVE",
"91 0 OFFCURVE",
"104 0 CURVE SMOOTH"
);
}
);
width = 591;
},
{
guideLines = (
{
position = "{0, 296}";
},
{
angle = 90;
position = "{451, 0}";
}
);
layerId = "EC64484B-0978-4CB1-9EE9-C40A2D8C4059";
paths = (
{
closed = 1;
nodes = (
"267 0 LINE SMOOTH",
"282 0 OFFCURVE",
"294 12 OFFCURVE",
"294 27 CURVE SMOOTH",
"294 296 LINE SMOOTH",
"294 332 OFFCURVE",
"313 351 OFFCURVE",
"345 351 CURVE SMOOTH",
"377 351 OFFCURVE",
"395 332 OFFCURVE",
"395 296 CURVE SMOOTH",
"395 27 LINE SMOOTH",
"395 12 OFFCURVE",
"407 0 OFFCURVE",
"422 0 CURVE SMOOTH",
"618 0 LINE SMOOTH",
"633 0 OFFCURVE",
"645 12 OFFCURVE",
"645 27 CURVE SMOOTH",
"645 303 LINE SMOOTH",
"645 461 OFFCURVE",
"547 530 OFFCURVE",
"446 530 CURVE SMOOTH",
"384 530 OFFCURVE",
"329 506 OFFCURVE",
"294 468 CURVE",
"294 683 LINE SMOOTH",
"294 698 OFFCURVE",
"282 710 OFFCURVE",
"267 710 CURVE SMOOTH",
"72 710 LINE SMOOTH",
"57 710 OFFCURVE",
"45 698 OFFCURVE",
"45 683 CURVE SMOOTH",
"45 27 LINE SMOOTH",
"45 12 OFFCURVE",
"57 0 OFFCURVE",
"72 0 CURVE SMOOTH"
);
}
);
width = 685;
}
);
leftKerningGroup = h;
rightKerningGroup = n;
unicode = 0068;
userData = {
com.typemytype.robofont.guides = (
{
angle = 0;
isGlobal = 0;
magnetic = 5;
x = 0;
y = 9;
},
{
angle = 0;
isGlobal = 0;
magnetic = 5;
x = 0;
y = 301;
},
{
angle = 0;
isGlobal = 0;
magnetic = 5;
x = 0;
y = 414;
},
{
angle = 0;
isGlobal = 0;
magnetic = 5;
x = 0;
y = 710;
},
{
angle = 90;
isGlobal = 0;
magnetic = 5;
x = 79;
y = 0;
},
{
angle = 90;
isGlobal = 0;
magnetic = 5;
x = 291;
y = 0;
}
);
};
},
{
glyphname = i;
layers = (
{
guideLines = (
{
position = "{0, 510}";
},
{
position = "{0, 22}";
},
{
position = "{0, 627}";
},
{
angle = 90;
position = "{79, 0}";
},
{
angle = 90;
position = "{121, 0}";
},
{
angle = 90;
position = "{70, 0}";
},
{
angle = 90;
position = "{131, 0}";
}
);
layerId = "581BC726-83A6-4935-8633-5A6508251040";
paths = (
{
closed = 1;
nodes = (
"120 0 LINE SMOOTH",
"133 0 OFFCURVE",
"142 9 OFFCURVE",
"142 22 CURVE SMOOTH",
"142 498 LINE SMOOTH",
"142 511 OFFCURVE",
"133 520 OFFCURVE",
"120 520 CURVE SMOOTH",
"103 520 LINE SMOOTH",
"90 520 OFFCURVE",
"81 511 OFFCURVE",
"81 498 CURVE SMOOTH",
"81 22 LINE SMOOTH",
"81 9 OFFCURVE",
"90 0 OFFCURVE",
"103 0 CURVE SMOOTH"
);
},
{
closed = 1;
nodes = (
"130 627 LINE SMOOTH",
"143 627 OFFCURVE",
"153 636 OFFCURVE",
"153 649 CURVE SMOOTH",
"153 687 LINE SMOOTH",
"153 700 OFFCURVE",
"143 710 OFFCURVE",
"130 710 CURVE SMOOTH",
"92 710 LINE SMOOTH",
"79 710 OFFCURVE",
"70 700 OFFCURVE",
"70 687 CURVE SMOOTH",
"70 649 LINE SMOOTH",
"70 636 OFFCURVE",
"79 627 OFFCURVE",
"92 627 CURVE SMOOTH"
);
}
);
width = 223;
},
{
guideLines = (
{
position = "{0, 740}";
},
{
position = "{0, 575}";
},
{
angle = 90;
position = "{50, 0}";
},
{
angle = 90;
position = "{283, 0}";
},
{
angle = 90;
position = "{166, 0}";
}
);
hints = (
{
horizontal = 1;
place = "{-2147483648, 0}";
type = Tag;
}
);
layerId = "EC64484B-0978-4CB1-9EE9-C40A2D8C4059";
paths = (
{
closed = 1;
nodes = (
"251 0 LINE SMOOTH",
"266 0 OFFCURVE",
"278 12 OFFCURVE",
"278 27 CURVE SMOOTH",
"278 493 LINE SMOOTH",
"278 508 OFFCURVE",
"266 520 OFFCURVE",
"251 520 CURVE SMOOTH",
"72 520 LINE SMOOTH",
"57 520 OFFCURVE",
"45 508 OFFCURVE",
"45 493 CURVE SMOOTH",
"45 27 LINE SMOOTH",
"45 12 OFFCURVE",
"57 0 OFFCURVE",
"72 0 CURVE SMOOTH"
);
},
{
closed = 1;
nodes = (
"246 575 LINE SMOOTH",
"261 575 OFFCURVE",
"273 587 OFFCURVE",
"273 602 CURVE SMOOTH",
"273 723 LINE SMOOTH",
"273 738 OFFCURVE",
"261 750 OFFCURVE",
"246 750 CURVE SMOOTH",
"77 750 LINE SMOOTH",
"62 750 OFFCURVE",
"50 738 OFFCURVE",
"50 723 CURVE SMOOTH",
"50 602 LINE SMOOTH",
"50 587 OFFCURVE",
"62 575 OFFCURVE",
"77 575 CURVE SMOOTH"
);
}
);
width = 323;
}
);
leftKerningGroup = i;
rightKerningGroup = i;
unicode = 0069;
userData = {
com.typemytype.robofont.guides = (
{
angle = 0;
isGlobal = 0;
magnetic = 5;
x = 0;
y = 510;
},
{
angle = 0;
isGlobal = 0;
magnetic = 5;
x = 0;
y = 22;
},
{
angle = 0;
isGlobal = 0;
magnetic = 5;
x = 0;
y = 627;
},
{
angle = 90;
isGlobal = 0;
magnetic = 5;
x = 79;
y = 0;
},
{
angle = 90;
isGlobal = 0;
magnetic = 5;
x = 121;
y = 0;
},
{
angle = 90;
isGlobal = 0;
magnetic = 5;
x = 70;
y = 0;
},
{
angle = 90;
isGlobal = 0;
magnetic = 5;
x = 131;
y = 0;
}
);
};
},
{
glyphname = j;
layers = (
{
guideLines = (
{
position = "{0, 740}";
},
{
position = "{0, -190}";
},
{
angle = 90;
position = "{-46, 0}";
}
);
layerId = "581BC726-83A6-4935-8633-5A6508251040";
paths = (
{
closed = 1;
nodes = (
"0 -190 LINE SMOOTH",
"122 -190 OFFCURVE",
"151 -116 OFFCURVE",
"151 -22 CURVE SMOOTH",
"151 498 LINE SMOOTH",
"151 511 OFFCURVE",
"142 520 OFFCURVE",
"129 520 CURVE SMOOTH",
"112 520 LINE SMOOTH",
"99 520 OFFCURVE",
"90 511 OFFCURVE",
"90 498 CURVE SMOOTH",
"90 -22 LINE SMOOTH",
"90 -83 OFFCURVE",
"81 -132 OFFCURVE",
"0 -132 CURVE SMOOTH",
"-4 -132 LINE SMOOTH",
"-17 -132 OFFCURVE",
"-26 -141 OFFCURVE",
"-26 -154 CURVE SMOOTH",
"-26 -168 LINE SMOOTH",
"-26 -181 OFFCURVE",
"-17 -190 OFFCURVE",
"-4 -190 CURVE SMOOTH"
);
},
{
closed = 1;
nodes = (
"139 627 LINE SMOOTH",
"152 627 OFFCURVE",
"162 636 OFFCURVE",
"162 649 CURVE SMOOTH",
"162 687 LINE SMOOTH",
"162 700 OFFCURVE",
"152 710 OFFCURVE",
"139 710 CURVE SMOOTH",
"101 710 LINE SMOOTH",
"88 710 OFFCURVE",
"79 700 OFFCURVE",
"79 687 CURVE SMOOTH",
"79 649 LINE SMOOTH",
"79 636 OFFCURVE",
"88 627 OFFCURVE",
"101 627 CURVE SMOOTH"
);
}
);
width = 233;
},
{
guideLines = (
{
position = "{0, 740}";
},
{
position = "{0, 560}";
},
{
position = "{0, -190}";
},
{
position = "{0, 35}";
},
{
angle = 90;
position = "{189, 0}";
},
{
angle = 90;
position = "{68, 0}";
},
{
angle = 90;
position = "{310, 0}";
}
);
layerId = "EC64484B-0978-4CB1-9EE9-C40A2D8C4059";
paths = (
{
closed = 1;
nodes = (
"45 -190 LINE SMOOTH",
"190 -190 OFFCURVE",
"300 -121 OFFCURVE",
"300 29 CURVE SMOOTH",
"300 493 LINE SMOOTH",
"300 508 OFFCURVE",
"288 520 OFFCURVE",
"273 520 CURVE SMOOTH",
"85 520 LINE SMOOTH",
"70 520 OFFCURVE",
"58 508 OFFCURVE",
"58 493 CURVE SMOOTH",
"58 35 LINE SMOOTH",
"58 4 OFFCURVE",
"45 -15 OFFCURVE",
"15 -15 CURVE SMOOTH",
"-43 -15 LINE SMOOTH",
"-58 -15 OFFCURVE",
"-70 -27 OFFCURVE",
"-70 -42 CURVE SMOOTH",
"-70 -163 LINE SMOOTH",
"-70 -178 OFFCURVE",
"-58 -190 OFFCURVE",
"-43 -190 CURVE SMOOTH"
);
},
{
closed = 1;
nodes = (
"268 575 LINE SMOOTH",
"283 575 OFFCURVE",
"295 587 OFFCURVE",
"295 602 CURVE SMOOTH",
"295 723 LINE SMOOTH",
"295 738 OFFCURVE",
"283 750 OFFCURVE",
"268 750 CURVE SMOOTH",
"90 750 LINE SMOOTH",
"75 750 OFFCURVE",
"63 738 OFFCURVE",
"63 723 CURVE SMOOTH",
"63 602 LINE SMOOTH",
"63 587 OFFCURVE",
"75 575 OFFCURVE",
"90 575 CURVE SMOOTH"
);
}
);
width = 345;
}
);
rightKerningGroup = i;
unicode = 006A;
userData = {
com.typemytype.robofont.guides = (
{
angle = 0;
isGlobal = 0;
magnetic = 5;
x = 0;
y = 740;
},
{
angle = 0;
isGlobal = 0;
magnetic = 5;
x = 0;
y = "-190";
},
{
angle = 90;
isGlobal = 0;
magnetic = 5;
x = "-46";
y = 0;
}
);
};
},
{
glyphname = k;
layers = (
{
guideLines = (
{
position = "{0, 520}";
},
{
position = "{0, 710}";
},
{
position = "{0, 260}";
},
{
angle = 90;
position = "{460, 0}";
},
{
angle = 90;
position = "{430, 0}";
}
);
layerId = "581BC726-83A6-4935-8633-5A6508251040";
paths = (
{
closed = 1;
nodes = (
"121 0 LINE SMOOTH",
"134 0 OFFCURVE",
"143 9 OFFCURVE",
"143 22 CURVE SMOOTH",
"143 240 LINE",
"394 17 LINE SMOOTH",
"412 1 OFFCURVE",
"416 0 OFFCURVE",
"436 0 CURVE SMOOTH",
"452 0 LINE SMOOTH",
"464 0 OFFCURVE",
"472 8 OFFCURVE",
"472 20 CURVE SMOOTH",
"472 25 OFFCURVE",
"468 32 OFFCURVE",
"459 40 CURVE SMOOTH",
"181 288 LINE",
"434 480 LINE SMOOTH",
"444 487 OFFCURVE",
"447 495 OFFCURVE",
"447 500 CURVE SMOOTH",
"447 512 OFFCURVE",
"439 520 OFFCURVE",
"427 520 CURVE SMOOTH",
"408 520 LINE SMOOTH",
"388 520 OFFCURVE",
"385 517 OFFCURVE",
"366 503 CURVE SMOOTH",
"143 334 LINE",
"143 688 LINE SMOOTH",
"143 701 OFFCURVE",
"134 710 OFFCURVE",
"121 710 CURVE SMOOTH",
"104 710 LINE SMOOTH",
"91 710 OFFCURVE",
"82 701 OFFCURVE",
"82 688 CURVE SMOOTH",
"82 22 LINE SMOOTH",
"82 9 OFFCURVE",
"91 0 OFFCURVE",
"104 0 CURVE SMOOTH"
);
}
);
width = 487;
},
{
guideLines = (
{
position = "{0, 286}";
},
{
angle = 90;
position = "{646, 0}";
}
);
hints = (
{
horizontal = 1;
place = "{-2147483648, 0}";
type = Tag;
}
);
layerId = "EC64484B-0978-4CB1-9EE9-C40A2D8C4059";
paths = (
{
closed = 1;
nodes = (
"247 0 LINE SMOOTH",
"262 0 OFFCURVE",
"274 12 OFFCURVE",
"274 27 CURVE SMOOTH",
"274 187 LINE",
"376 17 LINE SMOOTH",
"378 14 OFFCURVE",
"387 0 OFFCURVE",
"407 0 CURVE SMOOTH",
"617 0 LINE SMOOTH",
"630 0 OFFCURVE",
"641 11 OFFCURVE",
"641 24 CURVE SMOOTH",
"641 30 OFFCURVE",
"639 34 OFFCURVE",
"637 37 CURVE SMOOTH",
"475 286 LINE",
"612 481 LINE SMOOTH",
"614 484 OFFCURVE",
"617 490 OFFCURVE",
"617 496 CURVE SMOOTH",
"617 509 OFFCURVE",
"606 520 OFFCURVE",
"593 520 CURVE SMOOTH",
"391 520 LINE SMOOTH",
"373 520 OFFCURVE",
"365 508 OFFCURVE",
"362 503 CURVE SMOOTH",
"274 359 LINE",
"274 683 LINE SMOOTH",
"274 698 OFFCURVE",
"262 710 OFFCURVE",
"247 710 CURVE SMOOTH",
"72 710 LINE SMOOTH",
"57 710 OFFCURVE",
"45 698 OFFCURVE",
"45 683 CURVE SMOOTH",
"45 27 LINE SMOOTH",
"45 12 OFFCURVE",
"57 0 OFFCURVE",
"72 0 CURVE SMOOTH"
);
}
);
width = 643;
}
);
leftKerningGroup = h;
rightKerningGroup = k;
unicode = 006B;
userData = {
com.typemytype.robofont.guides = (
{
angle = 0;
isGlobal = 0;
magnetic = 5;
x = 0;
y = 520;
},
{
angle = 0;
isGlobal = 0;
magnetic = 5;
x = 0;
y = 710;
},
{
angle = 0;
isGlobal = 0;
magnetic = 5;
x = 0;
y = 260;
},
{
angle = 90;
isGlobal = 0;
magnetic = 5;
x = 460;
y = 0;
},
{
angle = 90;
isGlobal = 0;
magnetic = 5;
x = 430;
y = 0;
}
);
};
},
{
glyphname = l;
layers = (
{
guideLines = (
{
position = "{0, 9}";
},
{
position = "{0, 710}";
}
);
layerId = "581BC726-83A6-4935-8633-5A6508251040";
paths = (
{
closed = 1;
nodes = (
"121 0 LINE SMOOTH",
"134 0 OFFCURVE",
"143 9 OFFCURVE",
"143 22 CURVE SMOOTH",
"143 688 LINE SMOOTH",
"143 701 OFFCURVE",
"134 710 OFFCURVE",
"121 710 CURVE SMOOTH",
"104 710 LINE SMOOTH",
"91 710 OFFCURVE",
"82 701 OFFCURVE",
"82 688 CURVE SMOOTH",
"82 22 LINE SMOOTH",
"82 9 OFFCURVE",
"91 0 OFFCURVE",
"104 0 CURVE SMOOTH"
);
}
);
width = 225;
},
{
layerId = "EC64484B-0978-4CB1-9EE9-C40A2D8C4059";
paths = (
{
closed = 1;
nodes = (
"251 0 LINE SMOOTH",
"266 0 OFFCURVE",
"278 12 OFFCURVE",
"278 27 CURVE SMOOTH",
"278 683 LINE SMOOTH",
"278 698 OFFCURVE",
"266 710 OFFCURVE",
"251 710 CURVE SMOOTH",
"72 710 LINE SMOOTH",
"57 710 OFFCURVE",
"45 698 OFFCURVE",
"45 683 CURVE SMOOTH",
"45 27 LINE SMOOTH",
"45 12 OFFCURVE",
"57 0 OFFCURVE",
"72 0 CURVE SMOOTH"
);
}
);
width = 323;
}
);
leftKerningGroup = l;
rightKerningGroup = l;
unicode = 006C;
userData = {
com.typemytype.robofont.guides = (
{
angle = 0;
isGlobal = 0;
magnetic = 5;
x = 0;
y = 9;
},
{
angle = 0;
isGlobal = 0;
magnetic = 5;
x = 0;
y = 710;
}
);
};
},
{
glyphname = m;
layers = (
{
layerId = "581BC726-83A6-4935-8633-5A6508251040";
paths = (
{
closed = 1;
nodes = (
"120 0 LINE SMOOTH",
"133 0 OFFCURVE",
"142 9 OFFCURVE",
"142 22 CURVE SMOOTH",
"142 304 LINE SMOOTH",
"142 434 OFFCURVE",
"214 472 OFFCURVE",
"275 472 CURVE SMOOTH",
"342 472 OFFCURVE",
"411 434 OFFCURVE",
"411 303 CURVE SMOOTH",
"411 22 LINE SMOOTH",
"411 9 OFFCURVE",
"420 0 OFFCURVE",
"433 0 CURVE SMOOTH",
"450 0 LINE SMOOTH",
"463 0 OFFCURVE",
"472 9 OFFCURVE",
"472 22 CURVE SMOOTH",
"472 303 LINE SMOOTH",
"472 434 OFFCURVE",
"544 472 OFFCURVE",
"605 472 CURVE SMOOTH",
"677 472 OFFCURVE",
"741 434 OFFCURVE",
"741 303 CURVE SMOOTH",
"741 22 LINE SMOOTH",
"741 9 OFFCURVE",
"750 0 OFFCURVE",
"763 0 CURVE SMOOTH",
"780 0 LINE SMOOTH",
"793 0 OFFCURVE",
"802 9 OFFCURVE",
"802 22 CURVE SMOOTH",
"802 313 LINE SMOOTH",
"802 456 OFFCURVE",
"721 530 OFFCURVE",
"615 530 CURVE SMOOTH",
"538 530 OFFCURVE",
"476 493 OFFCURVE",
"445 436 CURVE",
"414 497 OFFCURVE",
"360 530 OFFCURVE",
"285 530 CURVE SMOOTH",
"219 530 OFFCURVE",
"175 506 OFFCURVE",
"142 463 CURVE",
"142 498 LINE SMOOTH",
"142 511 OFFCURVE",
"133 520 OFFCURVE",
"120 520 CURVE SMOOTH",
"103 520 LINE SMOOTH",
"90 520 OFFCURVE",
"81 511 OFFCURVE",
"81 498 CURVE SMOOTH",
"81 22 LINE SMOOTH",
"81 9 OFFCURVE",
"90 0 OFFCURVE",
"103 0 CURVE SMOOTH"
);
}
);
width = 878;
},
{
guideLines = (
{
position = "{0, 461}";
},
{
position = "{0, 530}";
},
{
position = "{0, 302}";
},
{
angle = 90;
position = "{324, 0}";
},
{
angle = 90;
position = "{633, 0}";
}
);
hints = (
{
horizontal = 1;
place = "{-2147483648, 0}";
type = Tag;
},
{
horizontal = 1;
place = "{-2147483648, 0}";
type = Tag;
}
);
layerId = "EC64484B-0978-4CB1-9EE9-C40A2D8C4059";
paths = (
{
closed = 1;
nodes = (
"252 0 LINE SMOOTH",
"267 0 OFFCURVE",
"279 12 OFFCURVE",
"279 27 CURVE SMOOTH",
"279 302 LINE SMOOTH",
"279 333 OFFCURVE",
"294 351 OFFCURVE",
"319 351 CURVE SMOOTH",
"344 351 OFFCURVE",
"359 334 OFFCURVE",
"359 302 CURVE SMOOTH",
"359 27 LINE SMOOTH",
"359 12 OFFCURVE",
"371 0 OFFCURVE",
"386 0 CURVE SMOOTH",
"562 0 LINE SMOOTH",
"577 0 OFFCURVE",
"589 12 OFFCURVE",
"589 27 CURVE SMOOTH",
"589 302 LINE SMOOTH",
"589 334 OFFCURVE",
"603 351 OFFCURVE",
"628 351 CURVE SMOOTH",
"653 351 OFFCURVE",
"668 334 OFFCURVE",
"668 302 CURVE SMOOTH",
"668 27 LINE SMOOTH",
"668 12 OFFCURVE",
"680 0 OFFCURVE",
"695 0 CURVE SMOOTH",
"871 0 LINE SMOOTH",
"886 0 OFFCURVE",
"898 12 OFFCURVE",
"898 27 CURVE SMOOTH",
"898 307 LINE SMOOTH",
"898 465 OFFCURVE",
"815 530 OFFCURVE",
"714 530 CURVE SMOOTH",
"653 530 OFFCURVE",
"592 494 OFFCURVE",
"561 448 CURVE",
"534 506 OFFCURVE",
"482 533 OFFCURVE",
"403 530 CURVE SMOOTH",
"337 527 OFFCURVE",
"287 490 OFFCURVE",
"264 460 CURVE",
"264 493 LINE SMOOTH",
"264 508 OFFCURVE",
"252 520 OFFCURVE",
"237 520 CURVE SMOOTH",
"72 520 LINE SMOOTH",
"57 520 OFFCURVE",
"45 508 OFFCURVE",
"45 493 CURVE SMOOTH",
"45 27 LINE SMOOTH",
"45 12 OFFCURVE",
"57 0 OFFCURVE",
"72 0 CURVE SMOOTH"
);
}
);
width = 938;
}
);
leftKerningGroup = n;
rightKerningGroup = n;
unicode = 006D;
},
{
glyphname = n;
layers = (
{
guideLines = (
{
position = "{0, 530}";
},
{
position = "{0, 301}";
},
{
position = "{0, 650}";
},
{
position = "{0, 407}";
},
{
position = "{0, 451}";
},
{
angle = 90;
position = "{291, 0}";
},
{
angle = 90;
position = "{131, 0}";
}
);
layerId = "581BC726-83A6-4935-8633-5A6508251040";
paths = (
{
closed = 1;
nodes = (
"120 0 LINE SMOOTH",
"133 0 OFFCURVE",
"142 9 OFFCURVE",
"142 22 CURVE SMOOTH",
"142 301 LINE SMOOTH",
"142 408 OFFCURVE",
"205 472 OFFCURVE",
"300 472 CURVE SMOOTH",
"400 472 OFFCURVE",
"453 407 OFFCURVE",
"453 301 CURVE SMOOTH",
"453 22 LINE SMOOTH",
"453 9 OFFCURVE",
"462 0 OFFCURVE",
"475 0 CURVE SMOOTH",
"492 0 LINE SMOOTH",
"505 0 OFFCURVE",
"514 9 OFFCURVE",
"514 22 CURVE SMOOTH",
"514 306 LINE SMOOTH",
"514 433 OFFCURVE",
"446 530 OFFCURVE",
"310 530 CURVE SMOOTH",
"224 530 OFFCURVE",
"178 498 OFFCURVE",
"142 451 CURVE",
"142 498 LINE SMOOTH",
"142 511 OFFCURVE",
"133 520 OFFCURVE",
"120 520 CURVE SMOOTH",
"103 520 LINE SMOOTH",
"90 520 OFFCURVE",
"81 511 OFFCURVE",
"81 498 CURVE SMOOTH",
"81 22 LINE SMOOTH",
"81 9 OFFCURVE",
"90 0 OFFCURVE",
"103 0 CURVE SMOOTH"
);
}
);
width = 590;
},
{
guideLines = (
{
position = "{0, 530}";
},
{
position = "{0, 470}";
},
{
angle = 90;
position = "{468, 0}";
},
{
angle = 90;
position = "{294, 0}";
}
);
hints = (
{
horizontal = 1;
place = "{-2147483648, 0}";
type = Tag;
},
{
horizontal = 1;
place = "{-2147483648, 0}";
type = Tag;
}
);
layerId = "EC64484B-0978-4CB1-9EE9-C40A2D8C4059";
paths = (
{
closed = 1;
nodes = (
"262 0 LINE SMOOTH",
"277 0 OFFCURVE",
"289 12 OFFCURVE",
"289 27 CURVE SMOOTH",
"289 296 LINE SMOOTH",
"289 332 OFFCURVE",
"307 351 OFFCURVE",
"339 351 CURVE SMOOTH",
"371 351 OFFCURVE",
"389 332 OFFCURVE",
"389 296 CURVE SMOOTH",
"389 27 LINE SMOOTH",
"389 12 OFFCURVE",
"401 0 OFFCURVE",
"416 0 CURVE SMOOTH",
"607 0 LINE SMOOTH",
"622 0 OFFCURVE",
"634 12 OFFCURVE",
"634 27 CURVE SMOOTH",
"634 303 LINE SMOOTH",
"634 461 OFFCURVE",
"541 530 OFFCURVE",
"440 530 CURVE SMOOTH",
"369 530 OFFCURVE",
"307 499 OFFCURVE",
"274 460 CURVE",
"274 493 LINE SMOOTH",
"274 508 OFFCURVE",
"262 520 OFFCURVE",
"247 520 CURVE SMOOTH",
"72 520 LINE SMOOTH",
"57 520 OFFCURVE",
"45 508 OFFCURVE",
"45 493 CURVE SMOOTH",
"45 27 LINE SMOOTH",
"45 12 OFFCURVE",
"57 0 OFFCURVE",
"72 0 CURVE SMOOTH"
);
}
);
width = 674;
}
);
leftKerningGroup = n;
rightKerningGroup = n;
unicode = 006E;
userData = {
com.typemytype.robofont.guides = (
{
angle = 0;
isGlobal = 0;
magnetic = 5;
x = 0;
y = 530;
},
{
angle = 0;
isGlobal = 0;
magnetic = 5;
x = 0;
y = 301;
},
{
angle = 0;
isGlobal = 0;
magnetic = 5;
x = 0;
y = 650;
},
{
angle = 0;
isGlobal = 0;
magnetic = 5;
x = 0;
y = 407;
},
{
angle = 0;
isGlobal = 0;
magnetic = 5;
x = 0;
y = 451;
},
{
angle = 90;
isGlobal = 0;
magnetic = 5;
x = 291;
y = 0;
},
{
angle = 90;
isGlobal = 0;
magnetic = 5;
x = 131;
y = 0;
}
);
};
},
{
glyphname = o;
layers = (
{
guideLines = (
{
position = "{0, 302}";
},
{
position = "{0, 218}";
},
{
position = "{0, 411}";
},
{
position = "{0, 109}";
},
{
angle = 90;
position = "{278, 0}";
},
{
angle = 90;
position = "{56, 0}";
},
{
angle = 90;
position = "{500, 0}";
}
);
layerId = "581BC726-83A6-4935-8633-5A6508251040";
paths = (
{
closed = 1;
nodes = (
"423 -10 OFFCURVE",
"497 89 OFFCURVE",
"501 218 CURVE SMOOTH",
"502 238 OFFCURVE",
"502 282 OFFCURVE",
"501 302 CURVE SMOOTH",
"497 431 OFFCURVE",
"423 530 OFFCURVE",
"279 530 CURVE SMOOTH",
"135 530 OFFCURVE",
"61 431 OFFCURVE",
"57 302 CURVE SMOOTH",
"56 282 OFFCURVE",
"56 238 OFFCURVE",
"57 218 CURVE SMOOTH",
"61 89 OFFCURVE",
"135 -10 OFFCURVE",
"279 -10 CURVE SMOOTH"
);
},
{
closed = 1;
nodes = (
"186 48 OFFCURVE",
"122 109 OFFCURVE",
"118 223 CURVE SMOOTH",
"117 243 OFFCURVE",
"117 277 OFFCURVE",
"118 297 CURVE SMOOTH",
"122 411 OFFCURVE",
"186 472 OFFCURVE",
"279 472 CURVE SMOOTH",
"372 472 OFFCURVE",
"436 411 OFFCURVE",
"440 297 CURVE SMOOTH",
"441 277 OFFCURVE",
"441 243 OFFCURVE",
"440 223 CURVE SMOOTH",
"436 109 OFFCURVE",
"372 48 OFFCURVE",
"279 48 CURVE SMOOTH"
);
}
);
width = 558;
},
{
guideLines = (
{
position = "{0, 302}";
},
{
position = "{0, 218}";
}
);
hints = (
{
horizontal = 1;
place = "{-2147483648, 0}";
type = Tag;
}
);
layerId = "EC64484B-0978-4CB1-9EE9-C40A2D8C4059";
paths = (
{
closed = 1;
nodes = (
"505 -10 OFFCURVE",
"601 66 OFFCURVE",
"611 213 CURVE SMOOTH",
"613 243 OFFCURVE",
"613 277 OFFCURVE",
"611 307 CURVE SMOOTH",
"601 454 OFFCURVE",
"494 530 OFFCURVE",
"321 530 CURVE SMOOTH",
"148 530 OFFCURVE",
"41 454 OFFCURVE",
"31 307 CURVE SMOOTH",
"29 277 OFFCURVE",
"29 243 OFFCURVE",
"31 213 CURVE SMOOTH",
"41 66 OFFCURVE",
"137 -10 OFFCURVE",
"321 -10 CURVE SMOOTH"
);
},
{
closed = 1;
nodes = (
"283 150 OFFCURVE",
"279 171 OFFCURVE",
"276 218 CURVE SMOOTH",
"275 238 OFFCURVE",
"275 282 OFFCURVE",
"276 302 CURVE SMOOTH",
"279 346 OFFCURVE",
"283 370 OFFCURVE",
"321 370 CURVE SMOOTH",
"359 370 OFFCURVE",
"363 346 OFFCURVE",
"366 302 CURVE SMOOTH",
"367 282 OFFCURVE",
"367 238 OFFCURVE",
"366 218 CURVE SMOOTH",
"363 171 OFFCURVE",
"359 150 OFFCURVE",
"321 150 CURVE SMOOTH"
);
}
);
width = 642;
}
);
leftKerningGroup = o;
rightKerningGroup = o;
unicode = 006F;
userData = {
com.typemytype.robofont.guides = (
{
angle = 0;
isGlobal = 0;
magnetic = 5;
x = 0;
y = 302;
},
{
angle = 0;
isGlobal = 0;
magnetic = 5;
x = 0;
y = 218;
},
{
angle = 0;
isGlobal = 0;
magnetic = 5;
x = 0;
y = 411;
},
{
angle = 0;
isGlobal = 0;
magnetic = 5;
x = 0;
y = 109;
},
{
angle = 90;
isGlobal = 0;
magnetic = 5;
x = 278;
y = 0;
},
{
angle = 90;
isGlobal = 0;
magnetic = 5;
x = 56;
y = 0;
},
{
angle = 90;
isGlobal = 0;
magnetic = 5;
x = 500;
y = 0;
}
);
};
},
{
glyphname = p;
layers = (
{
guideLines = (
{
position = "{0, 530}";
},
{
position = "{0, -10}";
},
{
position = "{0, 422}";
},
{
position = "{0, -190}";
},
{
angle = 90;
position = "{419, 0}";
},
{
angle = 90;
position = "{-609, 0}";
},
{
angle = 90;
position = "{79, 0}";
},
{
angle = 90;
position = "{122, 0}";
},
{
angle = 90;
position = "{291, 0}";
}
);
layerId = "581BC726-83A6-4935-8633-5A6508251040";
paths = (
{
closed = 1;
nodes = (
"121 -190 LINE SMOOTH",
"134 -190 OFFCURVE",
"143 -181 OFFCURVE",
"143 -168 CURVE SMOOTH",
"143 69 LINE",
"176 25 OFFCURVE",
"228 -10 OFFCURVE",
"311 -10 CURVE SMOOTH",
"467 -10 OFFCURVE",
"521 110 OFFCURVE",
"525 227 CURVE SMOOTH",
"526 247 OFFCURVE",
"526 273 OFFCURVE",
"525 293 CURVE SMOOTH",
"521 410 OFFCURVE",
"467 530 OFFCURVE",
"311 530 CURVE SMOOTH",
"228 530 OFFCURVE",
"176 496 OFFCURVE",
"143 451 CURVE",
"143 498 LINE SMOOTH",
"143 511 OFFCURVE",
"134 520 OFFCURVE",
"121 520 CURVE SMOOTH",
"104 520 LINE SMOOTH",
"91 520 OFFCURVE",
"82 511 OFFCURVE",
"82 498 CURVE SMOOTH",
"82 -168 LINE SMOOTH",
"82 -181 OFFCURVE",
"91 -190 OFFCURVE",
"104 -190 CURVE SMOOTH"
);
},
{
closed = 1;
nodes = (
"194 48 OFFCURVE",
"145 138 OFFCURVE",
"143 218 CURVE SMOOTH",
"142 238 OFFCURVE",
"142 276 OFFCURVE",
"143 296 CURVE SMOOTH",
"146 378 OFFCURVE",
"191 472 OFFCURVE",
"305 472 CURVE SMOOTH",
"422 472 OFFCURVE",
"460 384 OFFCURVE",
"464 288 CURVE SMOOTH",
"465 268 OFFCURVE",
"465 252 OFFCURVE",
"464 232 CURVE SMOOTH",
"460 136 OFFCURVE",
"422 48 OFFCURVE",
"305 48 CURVE SMOOTH"
);
}
);
width = 581;
},
{
guideLines = (
{
position = "{0, 530}";
},
{
position = "{0, -10}";
},
{
position = "{0, 50}";
}
);
hints = (
{
horizontal = 1;
place = "{-2147483648, 0}";
type = Tag;
},
{
horizontal = 1;
place = "{-2147483648, 0}";
type = Tag;
}
);
layerId = "EC64484B-0978-4CB1-9EE9-C40A2D8C4059";
paths = (
{
closed = 1;
nodes = (
"257 -190 LINE SMOOTH",
"272 -190 OFFCURVE",
"284 -178 OFFCURVE",
"284 -163 CURVE SMOOTH",
"284 50 LINE",
"314 7 OFFCURVE",
"361 -10 OFFCURVE",
"417 -10 CURVE SMOOTH",
"533 -10 OFFCURVE",
"623 63 OFFCURVE",
"629 220 CURVE SMOOTH",
"630 250 OFFCURVE",
"630 269 OFFCURVE",
"629 299 CURVE SMOOTH",
"622 466 OFFCURVE",
"533 530 OFFCURVE",
"417 530 CURVE SMOOTH",
"348 530 OFFCURVE",
"299 502 OFFCURVE",
"269 463 CURVE",
"269 493 LINE SMOOTH",
"269 508 OFFCURVE",
"257 520 OFFCURVE",
"242 520 CURVE SMOOTH",
"72 520 LINE SMOOTH",
"57 520 OFFCURVE",
"45 508 OFFCURVE",
"45 493 CURVE SMOOTH",
"45 -163 LINE SMOOTH",
"45 -178 OFFCURVE",
"57 -190 OFFCURVE",
"72 -190 CURVE SMOOTH"
);
},
{
closed = 1;
nodes = (
"300 169 OFFCURVE",
"286 187 OFFCURVE",
"284 219 CURVE SMOOTH",
"282 249 OFFCURVE",
"282 263 OFFCURVE",
"284 293 CURVE SMOOTH",
"286 329 OFFCURVE",
"297 351 OFFCURVE",
"334 351 CURVE SMOOTH",
"371 351 OFFCURVE",
"380 329 OFFCURVE",
"384 293 CURVE SMOOTH",
"386 273 OFFCURVE",
"386 247 OFFCURVE",
"384 227 CURVE SMOOTH",
"380 191 OFFCURVE",
"371 169 OFFCURVE",
"334 169 CURVE SMOOTH"
);
}
);
width = 661;
}
);
leftKerningGroup = n;
rightKerningGroup = b;
unicode = 0070;
userData = {
com.typemytype.robofont.guides = (
{
angle = 0;
isGlobal = 0;
magnetic = 5;
x = 0;
y = 530;
},
{
angle = 0;
isGlobal = 0;
magnetic = 5;
x = 0;
y = "-10";
},
{
angle = 0;
isGlobal = 0;
magnetic = 5;
x = 0;
y = 422;
},
{
angle = 0;
isGlobal = 0;
magnetic = 5;
x = 0;
y = "-190";
},
{
angle = 90;
isGlobal = 0;
magnetic = 5;
x = 419;
y = 0;
},
{
angle = 90;
isGlobal = 0;
magnetic = 5;
x = "-609";
y = 0;
},
{
angle = 90;
isGlobal = 0;
magnetic = 5;
x = 79;
y = 0;
},
{
angle = 90;
isGlobal = 0;
magnetic = 5;
x = 122;
y = 0;
},
{
angle = 90;
isGlobal = 0;
magnetic = 5;
x = 291;
y = 0;
}
);
};
},
{
glyphname = q;
layers = (
{
guideLines = (
{
position = "{0, 530}";
},
{
position = "{0, -10}";
},
{
position = "{0, -190}";
}
);
layerId = "581BC726-83A6-4935-8633-5A6508251040";
paths = (
{
closed = 1;
nodes = (
"477 -190 LINE SMOOTH",
"490 -190 OFFCURVE",
"499 -181 OFFCURVE",
"499 -168 CURVE SMOOTH",
"499 498 LINE SMOOTH",
"499 511 OFFCURVE",
"490 520 OFFCURVE",
"477 520 CURVE SMOOTH",
"460 520 LINE SMOOTH",
"447 520 OFFCURVE",
"438 511 OFFCURVE",
"438 498 CURVE SMOOTH",
"438 451 LINE",
"405 496 OFFCURVE",
"353 530 OFFCURVE",
"270 530 CURVE SMOOTH",
"114 530 OFFCURVE",
"60 410 OFFCURVE",
"56 293 CURVE SMOOTH",
"55 273 OFFCURVE",
"55 247 OFFCURVE",
"56 227 CURVE SMOOTH",
"60 110 OFFCURVE",
"114 -10 OFFCURVE",
"270 -10 CURVE SMOOTH",
"353 -10 OFFCURVE",
"405 25 OFFCURVE",
"438 69 CURVE",
"438 -168 LINE SMOOTH",
"438 -181 OFFCURVE",
"447 -190 OFFCURVE",
"460 -190 CURVE SMOOTH"
);
},
{
closed = 1;
nodes = (
"159 48 OFFCURVE",
"121 136 OFFCURVE",
"117 232 CURVE SMOOTH",
"116 252 OFFCURVE",
"116 268 OFFCURVE",
"117 288 CURVE SMOOTH",
"121 384 OFFCURVE",
"159 472 OFFCURVE",
"276 472 CURVE SMOOTH",
"390 472 OFFCURVE",
"435 378 OFFCURVE",
"438 296 CURVE SMOOTH",
"439 276 OFFCURVE",
"439 238 OFFCURVE",
"438 218 CURVE SMOOTH",
"436 138 OFFCURVE",
"387 48 OFFCURVE",
"276 48 CURVE SMOOTH"
);
}
);
width = 581;
},
{
guideLines = (
{
position = "{0, 530}";
},
{
position = "{0, -10}";
}
);
hints = (
{
horizontal = 1;
place = "{-2147483648, 0}";
type = Tag;
},
{
horizontal = 1;
place = "{-2147483648, 0}";
type = Tag;
}
);
layerId = "EC64484B-0978-4CB1-9EE9-C40A2D8C4059";
paths = (
{
closed = 1;
nodes = (
"589 -190 LINE SMOOTH",
"604 -190 OFFCURVE",
"616 -178 OFFCURVE",
"616 -163 CURVE SMOOTH",
"616 493 LINE SMOOTH",
"616 508 OFFCURVE",
"604 520 OFFCURVE",
"589 520 CURVE SMOOTH",
"419 520 LINE SMOOTH",
"404 520 OFFCURVE",
"392 508 OFFCURVE",
"392 493 CURVE SMOOTH",
"392 463 LINE",
"362 502 OFFCURVE",
"313 530 OFFCURVE",
"244 530 CURVE SMOOTH",
"128 530 OFFCURVE",
"39 466 OFFCURVE",
"32 299 CURVE SMOOTH",
"31 269 OFFCURVE",
"31 250 OFFCURVE",
"32 220 CURVE SMOOTH",
"38 63 OFFCURVE",
"128 -10 OFFCURVE",
"244 -10 CURVE SMOOTH",
"300 -10 OFFCURVE",
"347 7 OFFCURVE",
"377 50 CURVE",
"377 -163 LINE SMOOTH",
"377 -178 OFFCURVE",
"389 -190 OFFCURVE",
"404 -190 CURVE SMOOTH"
);
},
{
closed = 1;
nodes = (
"290 169 OFFCURVE",
"281 191 OFFCURVE",
"277 227 CURVE SMOOTH",
"275 247 OFFCURVE",
"275 273 OFFCURVE",
"277 293 CURVE SMOOTH",
"281 329 OFFCURVE",
"290 351 OFFCURVE",
"327 351 CURVE SMOOTH",
"364 351 OFFCURVE",
"375 329 OFFCURVE",
"377 293 CURVE SMOOTH",
"379 263 OFFCURVE",
"379 249 OFFCURVE",
"377 219 CURVE SMOOTH",
"375 187 OFFCURVE",
"361 169 OFFCURVE",
"327 169 CURVE SMOOTH"
);
}
);
width = 661;
}
);
leftKerningGroup = d;
rightKerningGroup = u;
unicode = 0071;
userData = {
com.typemytype.robofont.guides = (
{
angle = 0;
isGlobal = 0;
magnetic = 5;
x = 0;
y = 530;
},
{
angle = 0;
isGlobal = 0;
magnetic = 5;
x = 0;
y = "-10";
},
{
angle = 0;
isGlobal = 0;
magnetic = 5;
x = 0;
y = "-190";
}
);
};
},
{
glyphname = r;
layers = (
{
guideLines = (
{
position = "{0, 462}";
}
);
layerId = "581BC726-83A6-4935-8633-5A6508251040";
paths = (
{
closed = 1;
nodes = (
"119 0 LINE SMOOTH",
"132 0 OFFCURVE",
"142 9 OFFCURVE",
"142 22 CURVE SMOOTH",
"142 332 LINE SMOOTH",
"142 412 OFFCURVE",
"192 462 OFFCURVE",
"272 462 CURVE SMOOTH",
"315 462 LINE SMOOTH",
"328 462 OFFCURVE",
"337 471 OFFCURVE",
"337 484 CURVE SMOOTH",
"337 498 LINE SMOOTH",
"337 511 OFFCURVE",
"328 520 OFFCURVE",
"315 520 CURVE SMOOTH",
"278 520 LINE SMOOTH",
"211 520 OFFCURVE",
"166 497 OFFCURVE",
"142 451 CURVE",
"142 497 LINE SMOOTH",
"142 510 OFFCURVE",
"132 520 OFFCURVE",
"119 520 CURVE SMOOTH",
"103 520 LINE SMOOTH",
"90 520 OFFCURVE",
"81 510 OFFCURVE",
"81 497 CURVE SMOOTH",
"81 22 LINE SMOOTH",
"81 9 OFFCURVE",
"90 0 OFFCURVE",
"103 0 CURVE SMOOTH"
);
}
);
width = 348;
},
{
hints = (
{
horizontal = 1;
place = "{-2147483648, 0}";
type = Tag;
}
);
layerId = "EC64484B-0978-4CB1-9EE9-C40A2D8C4059";
paths = (
{
closed = 1;
nodes = (
"262 0 LINE SMOOTH",
"277 0 OFFCURVE",
"289 12 OFFCURVE",
"289 27 CURVE SMOOTH",
"289 250 LINE SMOOTH",
"289 290 OFFCURVE",
"309 310 OFFCURVE",
"349 310 CURVE SMOOTH",
"478 310 LINE SMOOTH",
"493 310 OFFCURVE",
"505 322 OFFCURVE",
"505 337 CURVE SMOOTH",
"505 493 LINE SMOOTH",
"505 508 OFFCURVE",
"493 520 OFFCURVE",
"478 520 CURVE SMOOTH",
"430 520 LINE SMOOTH",
"370 520 OFFCURVE",
"316 495 OFFCURVE",
"274 458 CURVE",
"274 493 LINE SMOOTH",
"274 508 OFFCURVE",
"262 520 OFFCURVE",
"247 520 CURVE SMOOTH",
"72 520 LINE SMOOTH",
"57 520 OFFCURVE",
"45 508 OFFCURVE",
"45 493 CURVE SMOOTH",
"45 27 LINE SMOOTH",
"45 12 OFFCURVE",
"57 0 OFFCURVE",
"72 0 CURVE SMOOTH"
);
}
);
width = 518;
}
);
leftKerningGroup = n;
rightKerningGroup = r;
unicode = 0072;
userData = {
com.typemytype.robofont.guides = (
{
angle = 0;
isGlobal = 0;
magnetic = 5;
x = 0;
y = 462;
}
);
};
},
{
glyphname = s;
layers = (
{
guideLines = (
{
position = "{0, 265}";
},
{
position = "{0, 139}";
},
{
angle = 90;
position = "{250, 0}";
}
);
layerId = "581BC726-83A6-4935-8633-5A6508251040";
paths = (
{
closed = 1;
nodes = (
"376 -10 OFFCURVE",
"445 59 OFFCURVE",
"445 139 CURVE SMOOTH",
"445 214 OFFCURVE",
"404 259 OFFCURVE",
"276 288 CURVE SMOOTH",
"149 317 OFFCURVE",
"123 340 OFFCURVE",
"123 385 CURVE SMOOTH",
"123 435 OFFCURVE",
"161 472 OFFCURVE",
"241 472 CURVE SMOOTH",
"321 472 OFFCURVE",
"345 443 OFFCURVE",
"366 411 CURVE SMOOTH",
"371 403 OFFCURVE",
"377 398 OFFCURVE",
"388 398 CURVE SMOOTH",
"403 398 LINE SMOOTH",
"415 398 OFFCURVE",
"426 407 OFFCURVE",
"425 420 CURVE SMOOTH",
"423 449 OFFCURVE",
"371 530 OFFCURVE",
"241 530 CURVE SMOOTH",
"121 530 OFFCURVE",
"62 455 OFFCURVE",
"62 385 CURVE SMOOTH",
"62 320 OFFCURVE",
"89 270 OFFCURVE",
"216 241 CURVE SMOOTH",
"342 212 OFFCURVE",
"384 194 OFFCURVE",
"384 139 CURVE SMOOTH",
"384 79 OFFCURVE",
"326 48 OFFCURVE",
"246 48 CURVE SMOOTH",
"166 48 OFFCURVE",
"131 79 OFFCURVE",
"106 114 CURVE SMOOTH",
"97 126 OFFCURVE",
"92 127 OFFCURVE",
"84 127 CURVE SMOOTH",
"69 127 LINE SMOOTH",
"60 127 OFFCURVE",
"46 120 OFFCURVE",
"47 105 CURVE SMOOTH",
"49 78 OFFCURVE",
"106 -10 OFFCURVE",
"246 -10 CURVE SMOOTH"
);
}
);
width = 492;
},
{
guideLines = (
{
position = "{0, 766}";
},
{
position = "{0, 710}";
},
{
position = "{0, -10}";
},
{
angle = 90;
position = "{306, 0}";
},
{
angle = 90;
position = "{577, 0}";
}
);
hints = (
{
horizontal = 1;
place = "{-2147483648, 0}";
type = Tag;
},
{
horizontal = 1;
place = "{-2147483648, 0}";
type = Tag;
}
);
layerId = "EC64484B-0978-4CB1-9EE9-C40A2D8C4059";
paths = (
{
closed = 1;
nodes = (
"469 -10 OFFCURVE",
"569 55 OFFCURVE",
"569 162 CURVE SMOOTH",
"569 230 OFFCURVE",
"518 309 OFFCURVE",
"374 330 CURVE SMOOTH",
"270 345 OFFCURVE",
"264 357 OFFCURVE",
"264 374 CURVE SMOOTH",
"264 383 OFFCURVE",
"274 390 OFFCURVE",
"284 390 CURVE SMOOTH",
"313 390 OFFCURVE",
"328 360 OFFCURVE",
"357 360 CURVE SMOOTH",
"360 360 OFFCURVE",
"364 360 OFFCURVE",
"367 360 CURVE",
"525 360 LINE SMOOTH",
"537 360 OFFCURVE",
"548 372 OFFCURVE",
"547 387 CURVE SMOOTH",
"544 444 OFFCURVE",
"450 530 OFFCURVE",
"285 530 CURVE SMOOTH",
"120 530 OFFCURVE",
"32 445 OFFCURVE",
"32 359 CURVE SMOOTH",
"32 254 OFFCURVE",
"122 209 OFFCURVE",
"215 192 CURVE SMOOTH",
"314 174 OFFCURVE",
"319 162 OFFCURVE",
"319 145 CURVE SMOOTH",
"319 135 OFFCURVE",
"307 130 OFFCURVE",
"296 130 CURVE SMOOTH",
"265 130 OFFCURVE",
"250 157 OFFCURVE",
"224 160 CURVE SMOOTH",
"223 160 OFFCURVE",
"221 160 OFFCURVE",
"220 160 CURVE SMOOTH",
"46 160 LINE SMOOTH",
"32 160 OFFCURVE",
"21 148 OFFCURVE",
"22 133 CURVE SMOOTH",
"25 80 OFFCURVE",
"97 -10 OFFCURVE",
"289 -10 CURVE SMOOTH"
);
}
);
width = 590;
}
);
leftKerningGroup = s;
rightKerningGroup = s;
unicode = 0073;
userData = {
com.typemytype.robofont.guides = (
{
angle = 0;
isGlobal = 0;
magnetic = 5;
x = 0;
y = 265;
},
{
angle = 0;
isGlobal = 0;
magnetic = 5;
x = 0;
y = 139;
},
{
angle = 90;
isGlobal = 0;
magnetic = 5;
x = 250;
y = 0;
}
);
};
},
{
glyphname = t;
layers = (
{
guideLines = (
{
position = "{0, 175}";
},
{
angle = 90;
position = "{342, 0}";
},
{
angle = 90;
position = "{35, 0}";
}
);
layerId = "581BC726-83A6-4935-8633-5A6508251040";
paths = (
{
closed = 1;
nodes = (
"315 0 LINE SMOOTH",
"328 0 OFFCURVE",
"337 9 OFFCURVE",
"337 22 CURVE SMOOTH",
"337 36 LINE SMOOTH",
"337 49 OFFCURVE",
"328 58 OFFCURVE",
"315 58 CURVE SMOOTH",
"261 58 LINE SMOOTH",
"201 58 OFFCURVE",
"181 100 OFFCURVE",
"181 171 CURVE SMOOTH",
"181 462 LINE",
"305 462 LINE SMOOTH",
"318 462 OFFCURVE",
"327 471 OFFCURVE",
"327 484 CURVE SMOOTH",
"327 498 LINE SMOOTH",
"327 511 OFFCURVE",
"318 520 OFFCURVE",
"305 520 CURVE SMOOTH",
"181 520 LINE",
"181 688 LINE SMOOTH",
"181 701 OFFCURVE",
"172 710 OFFCURVE",
"159 710 CURVE SMOOTH",
"142 710 LINE SMOOTH",
"129 710 OFFCURVE",
"120 701 OFFCURVE",
"120 688 CURVE SMOOTH",
"120 520 LINE",
"42 520 LINE SMOOTH",
"29 520 OFFCURVE",
"20 511 OFFCURVE",
"20 498 CURVE SMOOTH",
"20 484 LINE SMOOTH",
"20 471 OFFCURVE",
"29 462 OFFCURVE",
"42 462 CURVE SMOOTH",
"120 462 LINE",
"120 167 LINE SMOOTH",
"120 73 OFFCURVE",
"151 0 OFFCURVE",
"256 0 CURVE SMOOTH"
);
}
);
width = 359;
},
{
guideLines = (
{
position = "{0, 356}";
},
{
position = "{0, 345}";
},
{
position = "{0, 175}";
}
);
hints = (
{
horizontal = 1;
place = "{-2147483648, 0}";
type = Tag;
}
);
layerId = "EC64484B-0978-4CB1-9EE9-C40A2D8C4059";
paths = (
{
closed = 1;
nodes = (
"480 0 LINE SMOOTH",
"495 0 OFFCURVE",
"507 12 OFFCURVE",
"507 27 CURVE SMOOTH",
"507 158 LINE SMOOTH",
"507 173 OFFCURVE",
"495 185 OFFCURVE",
"480 185 CURVE SMOOTH",
"389 185 LINE SMOOTH",
"359 185 OFFCURVE",
"346 204 OFFCURVE",
"346 235 CURVE SMOOTH",
"346 345 LINE",
"472 345 LINE SMOOTH",
"487 345 OFFCURVE",
"499 357 OFFCURVE",
"499 372 CURVE SMOOTH",
"499 493 LINE SMOOTH",
"499 508 OFFCURVE",
"487 520 OFFCURVE",
"472 520 CURVE SMOOTH",
"346 520 LINE",
"346 683 LINE SMOOTH",
"346 698 OFFCURVE",
"334 710 OFFCURVE",
"319 710 CURVE SMOOTH",
"144 710 LINE SMOOTH",
"129 710 OFFCURVE",
"117 698 OFFCURVE",
"117 683 CURVE SMOOTH",
"117 520 LINE",
"38 520 LINE SMOOTH",
"23 520 OFFCURVE",
"11 508 OFFCURVE",
"11 493 CURVE SMOOTH",
"11 372 LINE SMOOTH",
"11 357 OFFCURVE",
"23 345 OFFCURVE",
"38 345 CURVE SMOOTH",
"117 345 LINE",
"117 215 LINE SMOOTH",
"117 51 OFFCURVE",
"222 0 OFFCURVE",
"367 0 CURVE SMOOTH"
);
}
);
width = 532;
}
);
leftKerningGroup = t;
rightKerningGroup = t;
unicode = 0074;
userData = {
com.typemytype.robofont.guides = (
{
angle = 0;
isGlobal = 0;
magnetic = 5;
x = 0;
y = 175;
},
{
angle = 90;
isGlobal = 0;
magnetic = 5;
x = 342;
y = 0;
},
{
angle = 90;
isGlobal = 0;
magnetic = 5;
x = 35;
y = 0;
}
);
};
},
{
glyphname = u;
layers = (
{
guideLines = (
{
position = "{0, -10}";
},
{
angle = 90;
position = "{432, 0}";
},
{
angle = 90;
position = "{126, 0}";
},
{
angle = 90;
position = "{65, 0}";
}
);
hints = (
{
horizontal = 1;
origin = "{0, 6}";
type = Tag;
},
{
horizontal = 1;
origin = "{0, 22}";
type = Tag;
}
);
layerId = "581BC726-83A6-4935-8633-5A6508251040";
paths = (
{
closed = 1;
nodes = (
"362 -10 OFFCURVE",
"407 22 OFFCURVE",
"443 69 CURVE",
"443 22 LINE SMOOTH",
"443 9 OFFCURVE",
"452 0 OFFCURVE",
"465 0 CURVE SMOOTH",
"482 0 LINE SMOOTH",
"495 0 OFFCURVE",
"504 9 OFFCURVE",
"504 22 CURVE SMOOTH",
"504 498 LINE SMOOTH",
"504 511 OFFCURVE",
"495 520 OFFCURVE",
"482 520 CURVE SMOOTH",
"465 520 LINE SMOOTH",
"452 520 OFFCURVE",
"443 511 OFFCURVE",
"443 498 CURVE SMOOTH",
"443 219 LINE SMOOTH",
"443 112 OFFCURVE",
"381 48 OFFCURVE",
"286 48 CURVE SMOOTH",
"186 48 OFFCURVE",
"137 106 OFFCURVE",
"137 219 CURVE SMOOTH",
"137 498 LINE SMOOTH",
"137 511 OFFCURVE",
"128 520 OFFCURVE",
"115 520 CURVE SMOOTH",
"98 520 LINE SMOOTH",
"85 520 OFFCURVE",
"76 511 OFFCURVE",
"76 498 CURVE SMOOTH",
"76 214 LINE SMOOTH",
"76 87 OFFCURVE",
"140 -10 OFFCURVE",
"276 -10 CURVE SMOOTH"
);
}
);
width = 585;
},
{
guideLines = (
{
position = "{0, -10}";
},
{
position = "{0, 50}";
}
);
layerId = "EC64484B-0978-4CB1-9EE9-C40A2D8C4059";
paths = (
{
closed = 1;
nodes = (
"305 -10 OFFCURVE",
"367 11 OFFCURVE",
"400 60 CURVE",
"400 27 LINE SMOOTH",
"400 12 OFFCURVE",
"412 0 OFFCURVE",
"427 0 CURVE SMOOTH",
"602 0 LINE SMOOTH",
"617 0 OFFCURVE",
"629 12 OFFCURVE",
"629 27 CURVE SMOOTH",
"629 493 LINE SMOOTH",
"629 508 OFFCURVE",
"617 520 OFFCURVE",
"602 520 CURVE SMOOTH",
"412 520 LINE SMOOTH",
"397 520 OFFCURVE",
"385 508 OFFCURVE",
"385 493 CURVE SMOOTH",
"385 224 LINE SMOOTH",
"385 188 OFFCURVE",
"367 169 OFFCURVE",
"335 169 CURVE SMOOTH",
"303 169 OFFCURVE",
"285 188 OFFCURVE",
"285 224 CURVE SMOOTH",
"285 493 LINE SMOOTH",
"285 508 OFFCURVE",
"273 520 OFFCURVE",
"258 520 CURVE SMOOTH",
"67 520 LINE SMOOTH",
"52 520 OFFCURVE",
"40 508 OFFCURVE",
"40 493 CURVE SMOOTH",
"40 217 LINE",
"40 59 OFFCURVE",
"133 -10 OFFCURVE",
"234 -10 CURVE SMOOTH"
);
}
);
width = 674;
}
);
leftKerningGroup = u;
rightKerningGroup = u;
unicode = 0075;
userData = {
com.typemytype.robofont.guides = (
{
angle = 0;
isGlobal = 0;
magnetic = 5;
x = 0;
y = "-10";
},
{
angle = 90;
isGlobal = 0;
magnetic = 5;
x = 432;
y = 0;
},
{
angle = 90;
isGlobal = 0;
magnetic = 5;
x = 126;
y = 0;
},
{
angle = 90;
isGlobal = 0;
magnetic = 5;
x = 65;
y = 0;
}
);
};
},
{
glyphname = v;
layers = (
{
guideLines = (
{
angle = 90;
position = "{267, 0}";
}
);
hints = (
{
horizontal = 1;
origin = "{0, 30}";
type = Tag;
}
);
layerId = "581BC726-83A6-4935-8633-5A6508251040";
paths = (
{
closed = 1;
nodes = (
"276 0 LINE SMOOTH",
"297 0 OFFCURVE",
"308 10 OFFCURVE",
"314 25 CURVE SMOOTH",
"498 489 LINE SMOOTH",
"499 492 OFFCURVE",
"500 498 OFFCURVE",
"500 500 CURVE SMOOTH",
"500 511 OFFCURVE",
"491 520 OFFCURVE",
"480 520 CURVE SMOOTH",
"459 520 LINE SMOOTH",
"446 520 OFFCURVE",
"439 510 OFFCURVE",
"437 505 CURVE SMOOTH",
"268 73 LINE",
"99 505 LINE SMOOTH",
"97 510 OFFCURVE",
"90 520 OFFCURVE",
"77 520 CURVE SMOOTH",
"56 520 LINE SMOOTH",
"45 520 OFFCURVE",
"36 511 OFFCURVE",
"36 500 CURVE SMOOTH",
"36 498 OFFCURVE",
"37 492 OFFCURVE",
"38 489 CURVE SMOOTH",
"222 25 LINE SMOOTH",
"228 10 OFFCURVE",
"239 0 OFFCURVE",
"260 0 CURVE"
);
}
);
width = 536;
},
{
layerId = "EC64484B-0978-4CB1-9EE9-C40A2D8C4059";
paths = (
{
closed = 1;
nodes = (
"395 0 LINE SMOOTH",
"415 0 OFFCURVE",
"422 13 OFFCURVE",
"428 25 CURVE",
"620 489 LINE SMOOTH",
"621 492 OFFCURVE",
"621 494 OFFCURVE",
"621 496 CURVE SMOOTH",
"621 509 OFFCURVE",
"610 520 OFFCURVE",
"597 520 CURVE SMOOTH",
"428 520 LINE SMOOTH",
"408 520 OFFCURVE",
"399 507 OFFCURVE",
"395 496 CURVE SMOOTH",
"315 263 LINE",
"235 496 LINE SMOOTH",
"231 507 OFFCURVE",
"222 520 OFFCURVE",
"202 520 CURVE SMOOTH",
"33 520 LINE SMOOTH",
"20 520 OFFCURVE",
"9 509 OFFCURVE",
"9 496 CURVE SMOOTH",
"9 494 OFFCURVE",
"9 492 OFFCURVE",
"10 489 CURVE SMOOTH",
"202 25 LINE",
"208 13 OFFCURVE",
"215 0 OFFCURVE",
"235 0 CURVE SMOOTH"
);
}
);
width = 630;
}
);
unicode = 0076;
userData = {
com.typemytype.robofont.guides = (
{
angle = 90;
isGlobal = 0;
magnetic = 5;
x = 267;
y = 0;
}
);
};
},
{
glyphname = w;
layers = (
{
guideLines = (
{
angle = 90;
position = "{45, 0}";
},
{
angle = 90;
position = "{737, 0}";
}
);
hints = (
{
horizontal = 1;
origin = "{0, 25}";
type = Tag;
}
);
layerId = "581BC726-83A6-4935-8633-5A6508251040";
paths = (
{
closed = 1;
nodes = (
"233 0 LINE",
"251 0 OFFCURVE",
"262 8 OFFCURVE",
"267 25 CURVE",
"393 419 LINE",
"519 25 LINE",
"524 8 OFFCURVE",
"535 0 OFFCURVE",
"553 0 CURVE",
"570 0 LINE",
"588 0 OFFCURVE",
"596 8 OFFCURVE",
"602 25 CURVE",
"743 489 LINE",
"744 492 OFFCURVE",
"745 498 OFFCURVE",
"745 500 CURVE SMOOTH",
"745 511 OFFCURVE",
"736 520 OFFCURVE",
"725 520 CURVE",
"706 520 LINE",
"693 520 OFFCURVE",
"685 510 OFFCURVE",
"684 505 CURVE",
"561 89 LINE",
"430 500 LINE",
"428 508 OFFCURVE",
"420 520 OFFCURVE",
"403 520 CURVE",
"383 520 LINE",
"366 520 OFFCURVE",
"358 508 OFFCURVE",
"356 500 CURVE",
"225 89 LINE",
"102 505 LINE",
"101 510 OFFCURVE",
"93 520 OFFCURVE",
"80 520 CURVE",
"61 520 LINE",
"50 520 OFFCURVE",
"41 511 OFFCURVE",
"41 500 CURVE SMOOTH",
"41 498 OFFCURVE",
"42 492 OFFCURVE",
"43 489 CURVE",
"184 25 LINE",
"190 8 OFFCURVE",
"198 0 OFFCURVE",
"216 0 CURVE"
);
}
);
width = 786;
},
{
guideLines = (
{
position = "{0, 291}";
}
);
layerId = "EC64484B-0978-4CB1-9EE9-C40A2D8C4059";
paths = (
{
closed = 1;
nodes = (
"330 0 LINE SMOOTH",
"350 0 OFFCURVE",
"359 13 OFFCURVE",
"363 25 CURVE SMOOTH",
"435 227 LINE",
"506 25 LINE SMOOTH",
"510 13 OFFCURVE",
"519 0 OFFCURVE",
"539 0 CURVE SMOOTH",
"673 0 LINE SMOOTH",
"693 0 OFFCURVE",
"702 13 OFFCURVE",
"706 25 CURVE SMOOTH",
"852 488 LINE SMOOTH",
"853 492 OFFCURVE",
"853 494 OFFCURVE",
"853 496 CURVE SMOOTH",
"853 509 OFFCURVE",
"842 520 OFFCURVE",
"829 520 CURVE SMOOTH",
"675 520 LINE SMOOTH",
"655 520 OFFCURVE",
"644 507 OFFCURVE",
"641 496 CURVE SMOOTH",
"580 288 LINE",
"515 496 LINE SMOOTH",
"512 507 OFFCURVE",
"501 520 OFFCURVE",
"481 520 CURVE SMOOTH",
"388 520 LINE SMOOTH",
"368 520 OFFCURVE",
"357 507 OFFCURVE",
"354 496 CURVE SMOOTH",
"289 288 LINE",
"228 496 LINE SMOOTH",
"225 507 OFFCURVE",
"214 520 OFFCURVE",
"194 520 CURVE SMOOTH",
"40 520 LINE SMOOTH",
"27 520 OFFCURVE",
"16 509 OFFCURVE",
"16 496 CURVE SMOOTH",
"16 494 OFFCURVE",
"16 492 OFFCURVE",
"17 488 CURVE SMOOTH",
"163 25 LINE SMOOTH",
"167 13 OFFCURVE",
"176 0 OFFCURVE",
"196 0 CURVE SMOOTH"
);
}
);
width = 869;
}
);
leftKerningGroup = w;
rightKerningGroup = w;
unicode = 0077;
userData = {
com.typemytype.robofont.guides = (
{
angle = 90;
isGlobal = 0;
magnetic = 5;
x = 45;
y = 0;
},
{
angle = 90;
isGlobal = 0;
magnetic = 5;
x = 737;
y = 0;
}
);
};
},
{
glyphname = x;
layers = (
{
guideLines = (
{
angle = 90;
position = "{255, 0}";
}
);
hints = (
{
horizontal = 1;
origin = "{0, 5}";
type = Tag;
}
);
layerId = "581BC726-83A6-4935-8633-5A6508251040";
paths = (
{
closed = 1;
nodes = (
"75 0 LINE SMOOTH",
"88 0 OFFCURVE",
"94 8 OFFCURVE",
"100 15 CURVE SMOOTH",
"258 217 LINE",
"416 15 LINE SMOOTH",
"421 8 OFFCURVE",
"428 0 OFFCURVE",
"441 0 CURVE SMOOTH",
"462 0 LINE SMOOTH",
"473 0 OFFCURVE",
"482 9 OFFCURVE",
"482 20 CURVE SMOOTH",
"482 25 OFFCURVE",
"481 31 OFFCURVE",
"474 40 CURVE SMOOTH",
"298 263 LINE",
"467 480 LINE SMOOTH",
"474 489 OFFCURVE",
"475 495 OFFCURVE",
"475 500 CURVE SMOOTH",
"475 511 OFFCURVE",
"466 520 OFFCURVE",
"455 520 CURVE SMOOTH",
"435 520 LINE SMOOTH",
"422 520 OFFCURVE",
"416 511 OFFCURVE",
"410 504 CURVE SMOOTH",
"260 312 LINE",
"110 505 LINE SMOOTH",
"104 512 OFFCURVE",
"98 520 OFFCURVE",
"85 520 CURVE SMOOTH",
"64 520 LINE SMOOTH",
"53 520 OFFCURVE",
"44 511 OFFCURVE",
"44 500 CURVE SMOOTH",
"44 495 OFFCURVE",
"45 489 OFFCURVE",
"52 480 CURVE SMOOTH",
"219 266 LINE",
"43 40 LINE SMOOTH",
"36 31 OFFCURVE",
"35 25 OFFCURVE",
"35 20 CURVE SMOOTH",
"35 9 OFFCURVE",
"44 0 OFFCURVE",
"55 0 CURVE SMOOTH"
);
}
);
width = 518;
},
{
layerId = "EC64484B-0978-4CB1-9EE9-C40A2D8C4059";
paths = (
{
closed = 1;
nodes = (
"215 0 LINE SMOOTH",
"233 0 OFFCURVE",
"241 11 OFFCURVE",
"245 17 CURVE SMOOTH",
"314 114 LINE",
"380 17 LINE SMOOTH",
"385 10 OFFCURVE",
"392 0 OFFCURVE",
"410 0 CURVE SMOOTH",
"602 0 LINE SMOOTH",
"615 0 OFFCURVE",
"626 11 OFFCURVE",
"626 24 CURVE SMOOTH",
"626 28 OFFCURVE",
"625 33 OFFCURVE",
"622 37 CURVE SMOOTH",
"457 269 LINE",
"604 483 LINE SMOOTH",
"606 486 OFFCURVE",
"608 490 OFFCURVE",
"608 497 CURVE SMOOTH",
"608 509 OFFCURVE",
"597 520 OFFCURVE",
"584 520 CURVE SMOOTH",
"409 520 LINE SMOOTH",
"389 520 OFFCURVE",
"381 507 OFFCURVE",
"377 501 CURVE SMOOTH",
"319 412 LINE",
"261 501 LINE SMOOTH",
"257 507 OFFCURVE",
"249 520 OFFCURVE",
"229 520 CURVE SMOOTH",
"46 520 LINE SMOOTH",
"33 520 OFFCURVE",
"22 509 OFFCURVE",
"22 496 CURVE SMOOTH",
"22 491 OFFCURVE",
"24 486 OFFCURVE",
"26 483 CURVE SMOOTH",
"170 268 LINE",
"8 37 LINE SMOOTH",
"5 33 OFFCURVE",
"4 27 OFFCURVE",
"4 24 CURVE SMOOTH",
"4 11 OFFCURVE",
"15 0 OFFCURVE",
"28 0 CURVE SMOOTH"
);
}
);
width = 630;
}
);
unicode = 0078;
userData = {
com.typemytype.robofont.guides = (
{
angle = 90;
isGlobal = 0;
magnetic = 5;
x = 255;
y = 0;
}
);
};
},
{
glyphname = y;
layers = (
{
hints = (
{
horizontal = 1;
origin = "{0, 3}";
type = Tag;
}
);
layerId = "581BC726-83A6-4935-8633-5A6508251040";
paths = (
{
closed = 1;
nodes = (
"189 -190 LINE SMOOTH",
"202 -190 OFFCURVE",
"208 -183 OFFCURVE",
"212 -175 CURVE SMOOTH",
"496 480 LINE SMOOTH",
"500 490 OFFCURVE",
"502 495 OFFCURVE",
"502 500 CURVE SMOOTH",
"502 511 OFFCURVE",
"493 520 OFFCURVE",
"482 520 CURVE SMOOTH",
"462 520 LINE SMOOTH",
"449 520 OFFCURVE",
"443 513 OFFCURVE",
"439 505 CURVE SMOOTH",
"267 109 LINE",
"99 505 LINE SMOOTH",
"95 513 OFFCURVE",
"89 520 OFFCURVE",
"76 520 CURVE SMOOTH",
"55 520 LINE SMOOTH",
"44 520 OFFCURVE",
"35 511 OFFCURVE",
"35 500 CURVE SMOOTH",
"35 495 OFFCURVE",
"37 490 OFFCURVE",
"41 480 CURVE SMOOTH",
"232 30 LINE",
"155 -150 LINE SMOOTH",
"151 -160 OFFCURVE",
"149 -165 OFFCURVE",
"149 -170 CURVE SMOOTH",
"149 -181 OFFCURVE",
"158 -190 OFFCURVE",
"169 -190 CURVE SMOOTH"
);
}
);
width = 532;
},
{
layerId = "EC64484B-0978-4CB1-9EE9-C40A2D8C4059";
paths = (
{
closed = 1;
nodes = (
"312 -190 LINE SMOOTH",
"332 -190 OFFCURVE",
"342 -178 OFFCURVE",
"347 -166 CURVE SMOOTH",
"629 489 LINE",
"630 493 OFFCURVE",
"630 496 OFFCURVE",
"630 499 CURVE SMOOTH",
"630 510 OFFCURVE",
"619 520 OFFCURVE",
"607 520 CURVE SMOOTH",
"440 520 LINE SMOOTH",
"420 520 OFFCURVE",
"411 508 OFFCURVE",
"406 496 CURVE SMOOTH",
"321 268 LINE",
"239 496 LINE SMOOTH",
"235 507 OFFCURVE",
"227 520 OFFCURVE",
"207 520 CURVE SMOOTH",
"38 520 LINE SMOOTH",
"25 520 OFFCURVE",
"15 509 OFFCURVE",
"13 496 CURVE SMOOTH",
"13 494 OFFCURVE",
"13 492 OFFCURVE",
"14 489 CURVE SMOOTH",
"207 33 LINE",
"127 -159 LINE SMOOTH",
"125 -163 OFFCURVE",
"126 -166 OFFCURVE",
"126 -169 CURVE SMOOTH",
"126 -181 OFFCURVE",
"136 -190 OFFCURVE",
"148 -190 CURVE SMOOTH"
);
}
);
width = 636;
}
);
leftKerningGroup = y;
rightKerningGroup = y;
unicode = 0079;
},
{
glyphname = z;
layers = (
{
guideLines = (
{
position = "{0, 36}";
},
{
angle = 90;
position = "{480, 0}";
},
{
angle = 90;
position = "{70, 0}";
}
);
hints = (
{
horizontal = 1;
origin = "{0, 8}";
type = Tag;
}
);
layerId = "581BC726-83A6-4935-8633-5A6508251040";
paths = (
{
closed = 1;
nodes = (
"430 0 LINE SMOOTH",
"443 0 OFFCURVE",
"452 9 OFFCURVE",
"452 22 CURVE SMOOTH",
"452 36 LINE SMOOTH",
"452 49 OFFCURVE",
"443 58 OFFCURVE",
"430 58 CURVE SMOOTH",
"126 58 LINE",
"418 450 LINE SMOOTH",
"425 460 OFFCURVE",
"432 470 OFFCURVE",
"432 481 CURVE SMOOTH",
"432 498 LINE SMOOTH",
"432 511 OFFCURVE",
"423 520 OFFCURVE",
"410 520 CURVE SMOOTH",
"74 520 LINE SMOOTH",
"61 520 OFFCURVE",
"52 511 OFFCURVE",
"52 498 CURVE SMOOTH",
"52 484 LINE SMOOTH",
"52 471 OFFCURVE",
"61 462 OFFCURVE",
"74 462 CURVE SMOOTH",
"350 462 LINE",
"56 70 LINE SMOOTH",
"49 60 OFFCURVE",
"42 50 OFFCURVE",
"42 39 CURVE SMOOTH",
"42 22 LINE SMOOTH",
"42 9 OFFCURVE",
"51 0 OFFCURVE",
"64 0 CURVE SMOOTH"
);
}
);
width = 490;
},
{
guideLines = (
{
angle = 90;
position = "{553, 0}";
},
{
angle = 90;
position = "{50, 0}";
}
);
layerId = "EC64484B-0978-4CB1-9EE9-C40A2D8C4059";
paths = (
{
closed = 1;
nodes = (
"533 0 LINE SMOOTH",
"548 0 OFFCURVE",
"560 12 OFFCURVE",
"560 27 CURVE SMOOTH",
"560 145 LINE SMOOTH",
"560 160 OFFCURVE",
"548 172 OFFCURVE",
"533 172 CURVE SMOOTH",
"335 172 LINE",
"525 338 LINE SMOOTH",
"534 346 OFFCURVE",
"539 355 OFFCURVE",
"539 367 CURVE SMOOTH",
"539 493 LINE SMOOTH",
"539 508 OFFCURVE",
"527 520 OFFCURVE",
"512 520 CURVE SMOOTH",
"70 520 LINE SMOOTH",
"55 520 OFFCURVE",
"43 508 OFFCURVE",
"43 493 CURVE SMOOTH",
"43 375 LINE SMOOTH",
"43 360 OFFCURVE",
"55 348 OFFCURVE",
"70 348 CURVE SMOOTH",
"251 348 LINE",
"52 177 LINE SMOOTH",
"43 169 OFFCURVE",
"36 158 OFFCURVE",
"36 142 CURVE SMOOTH",
"36 27 LINE SMOOTH",
"36 12 OFFCURVE",
"48 0 OFFCURVE",
"63 0 CURVE SMOOTH"
);
}
);
width = 590;
}
);
leftKerningGroup = z;
rightKerningGroup = z;
unicode = 007A;
userData = {
com.typemytype.robofont.guides = (
{
angle = 0;
isGlobal = 0;
magnetic = 5;
x = 0;
y = 36;
},
{
angle = 90;
isGlobal = 0;
magnetic = 5;
x = 480;
y = 0;
},
{
angle = 90;
isGlobal = 0;
magnetic = 5;
x = 70;
y = 0;
}
);
};
},
{
glyphname = zero;
layers = (
{
hints = (
{
horizontal = 1;
origin = "{0, 11}";
type = Tag;
}
);
layerId = "581BC726-83A6-4935-8633-5A6508251040";
paths = (
{
closed = 1;
nodes = (
"489 -10 OFFCURVE",
"544 119 OFFCURVE",
"548 266 CURVE SMOOTH",
"549 320 OFFCURVE",
"549 377 OFFCURVE",
"548 434 CURVE SMOOTH",
"545 581 OFFCURVE",
"489 710 OFFCURVE",
"308 710 CURVE SMOOTH",
"127 710 OFFCURVE",
"71 581 OFFCURVE",
"68 434 CURVE SMOOTH",
"67 377 OFFCURVE",
"67 320 OFFCURVE",
"68 266 CURVE SMOOTH",
"72 119 OFFCURVE",
"127 -10 OFFCURVE",
"308 -10 CURVE SMOOTH"
);
},
{
closed = 1;
nodes = (
"190 50 OFFCURVE",
"134 134 OFFCURVE",
"131 271 CURVE SMOOTH",
"130 328 OFFCURVE",
"130 374 OFFCURVE",
"131 429 CURVE SMOOTH",
"134 564 OFFCURVE",
"190 650 OFFCURVE",
"308 650 CURVE SMOOTH",
"426 650 OFFCURVE",
"482 564 OFFCURVE",
"485 429 CURVE SMOOTH",
"486 374 OFFCURVE",
"486 328 OFFCURVE",
"485 271 CURVE SMOOTH",
"482 134 OFFCURVE",
"426 50 OFFCURVE",
"308 50 CURVE SMOOTH"
);
}
);
width = 616;
},
{
guideLines = (
{
position = "{0, 251}";
}
);
layerId = "EC64484B-0978-4CB1-9EE9-C40A2D8C4059";
paths = (
{
closed = 1;
nodes = (
"559 -9 OFFCURVE",
"661 99 OFFCURVE",
"672 246 CURVE SMOOTH",
"676 300 OFFCURVE",
"676 401 OFFCURVE",
"672 458 CURVE SMOOTH",
"662 604 OFFCURVE",
"549 709 OFFCURVE",
"358 710 CURVE",
"167 709 OFFCURVE",
"54 604 OFFCURVE",
"44 458 CURVE SMOOTH",
"40 401 OFFCURVE",
"40 300 OFFCURVE",
"44 246 CURVE SMOOTH",
"55 99 OFFCURVE",
"157 -9 OFFCURVE",
"358 -10 CURVE"
);
},
{
closed = 1;
nodes = (
"320 186 OFFCURVE",
"306 214 OFFCURVE",
"304 251 CURVE SMOOTH",
"301 308 OFFCURVE",
"301 397 OFFCURVE",
"304 452 CURVE SMOOTH",
"306 486 OFFCURVE",
"318 516 OFFCURVE",
"358 517 CURVE",
"398 516 OFFCURVE",
"410 486 OFFCURVE",
"412 452 CURVE SMOOTH",
"415 397 OFFCURVE",
"415 308 OFFCURVE",
"412 251 CURVE SMOOTH",
"410 214 OFFCURVE",
"396 186 OFFCURVE",
"358 186 CURVE SMOOTH"
);
}
);
width = 718;
}
);
unicode = 0030;
},
{
glyphname = one;
layers = (
{
hints = (
{
horizontal = 1;
origin = "{0, 4}";
type = Tag;
}
);
layerId = "581BC726-83A6-4935-8633-5A6508251040";
paths = (
{
closed = 1;
nodes = (
"295 0 LINE SMOOTH",
"308 0 OFFCURVE",
"317 9 OFFCURVE",
"317 22 CURVE SMOOTH",
"317 678 LINE SMOOTH",
"317 691 OFFCURVE",
"308 700 OFFCURVE",
"295 700 CURVE SMOOTH",
"276 700 LINE SMOOTH",
"267 700 OFFCURVE",
"259 699 OFFCURVE",
"250 693 CURVE",
"37 529 LINE SMOOTH",
"26 521 OFFCURVE",
"25 508 OFFCURVE",
"33 498 CURVE SMOOTH",
"44 484 LINE SMOOTH",
"52 473 OFFCURVE",
"64 472 OFFCURVE",
"75 480 CURVE SMOOTH",
"254 618 LINE",
"254 22 LINE SMOOTH",
"254 9 OFFCURVE",
"263 0 OFFCURVE",
"276 0 CURVE SMOOTH"
);
}
);
width = 398;
},
{
guideLines = (
{
angle = 90;
position = "{41, 0}";
},
{
angle = 90;
position = "{280, 0}";
}
);
layerId = "EC64484B-0978-4CB1-9EE9-C40A2D8C4059";
paths = (
{
closed = 1;
nodes = (
"474 0 LINE SMOOTH",
"489 0 OFFCURVE",
"501 12 OFFCURVE",
"501 27 CURVE SMOOTH",
"501 673 LINE SMOOTH",
"501 688 OFFCURVE",
"489 700 OFFCURVE",
"474 700 CURVE SMOOTH",
"285 700 LINE SMOOTH",
"276 700 OFFCURVE",
"270 698 OFFCURVE",
"263 693 CURVE SMOOTH",
"22 506 LINE",
"9 498 OFFCURVE",
"6 480 OFFCURVE",
"13 467 CURVE",
"101 353 LINE SMOOTH",
"111 340 OFFCURVE",
"126 335 OFFCURVE",
"139 345 CURVE SMOOTH",
"251 431 LINE",
"251 27 LINE SMOOTH",
"251 12 OFFCURVE",
"263 0 OFFCURVE",
"278 0 CURVE SMOOTH"
);
}
);
width = 557;
}
);
unicode = 0031;
},
{
glyphname = two;
layers = (
{
guideLines = (
{
angle = 90;
position = "{535, 0}";
},
{
angle = 90;
position = "{70, 0}";
},
{
angle = 90;
position = "{510, 0}";
}
);
hints = (
{
horizontal = 1;
origin = "{0, 21}";
type = Tag;
}
);
layerId = "581BC726-83A6-4935-8633-5A6508251040";
paths = (
{
closed = 1;
nodes = (
"484 0 LINE SMOOTH",
"498 0 OFFCURVE",
"507 9 OFFCURVE",
"507 22 CURVE SMOOTH",
"507 37 LINE SMOOTH",
"507 51 OFFCURVE",
"498 60 OFFCURVE",
"484 60 CURVE SMOOTH",
"149 60 LINE",
"383 298 LINE SMOOTH",
"456 366 OFFCURVE",
"492 425 OFFCURVE",
"492 507 CURVE SMOOTH",
"492 612 OFFCURVE",
"433 710 OFFCURVE",
"281 710 CURVE SMOOTH",
"129 710 OFFCURVE",
"65 593 OFFCURVE",
"62 502 CURVE SMOOTH",
"62 491 OFFCURVE",
"70 483 OFFCURVE",
"83 483 CURVE",
"103 483 LINE SMOOTH",
"111 483 OFFCURVE",
"124 490 OFFCURVE",
"126 506 CURVE SMOOTH",
"137 592 OFFCURVE",
"190 650 OFFCURVE",
"281 650 CURVE SMOOTH",
"376 650 OFFCURVE",
"429 596 OFFCURVE",
"429 507 CURVE SMOOTH",
"429 445 OFFCURVE",
"411 407 OFFCURVE",
"336 338 CURVE SMOOTH",
"77 79 LINE SMOOTH",
"58 62 OFFCURVE",
"52 50 OFFCURVE",
"52 37 CURVE SMOOTH",
"52 22 LINE SMOOTH",
"52 9 OFFCURVE",
"61 0 OFFCURVE",
"74 0 CURVE SMOOTH"
);
}
);
width = 560;
},
{
guideLines = (
{
position = "{0, 176}";
},
{
angle = 90;
position = "{50, 0}";
},
{
angle = 90;
position = "{665, 0}";
}
);
layerId = "EC64484B-0978-4CB1-9EE9-C40A2D8C4059";
paths = (
{
closed = 1;
nodes = (
"638 0 LINE SMOOTH",
"653 0 OFFCURVE",
"665 12 OFFCURVE",
"665 27 CURVE SMOOTH",
"665 179 LINE SMOOTH",
"665 194 OFFCURVE",
"653 206 OFFCURVE",
"638 206 CURVE SMOOTH",
"427 206 LINE",
"434 211 LINE",
"563 300 OFFCURVE",
"650 379 OFFCURVE",
"650 490 CURVE SMOOTH",
"650 632 OFFCURVE",
"533 714 OFFCURVE",
"351 714 CURVE SMOOTH",
"179 714 OFFCURVE",
"50 616 OFFCURVE",
"47 465 CURVE SMOOTH",
"47 453 OFFCURVE",
"57 443 OFFCURVE",
"69 443 CURVE SMOOTH",
"257 443 LINE SMOOTH",
"275 443 OFFCURVE",
"290 447 OFFCURVE",
"297 466 CURVE SMOOTH",
"303 482 OFFCURVE",
"311 517 OFFCURVE",
"352 517 CURVE SMOOTH",
"387 517 OFFCURVE",
"388 496 OFFCURVE",
"388 477 CURVE SMOOTH",
"388 418 OFFCURVE",
"280 344 OFFCURVE",
"71 193 CURVE",
"60 185 LINE",
"35 167 OFFCURVE",
"35 139 OFFCURVE",
"35 131 CURVE SMOOTH",
"35 27 LINE SMOOTH",
"35 12 OFFCURVE",
"47 0 OFFCURVE",
"62 0 CURVE SMOOTH"
);
}
);
width = 704;
}
);
unicode = 0032;
userData = {
com.typemytype.robofont.guides = (
{
angle = 90;
isGlobal = 0;
magnetic = 5;
x = 535;
y = 0;
},
{
angle = 90;
isGlobal = 0;
magnetic = 5;
x = 70;
y = 0;
},
{
angle = 90;
isGlobal = 0;
magnetic = 5;
x = 510;
y = 0;
}
);
};
},
{
glyphname = three;
layers = (
{
hints = (
{
horizontal = 1;
origin = "{0, 15}";
type = Tag;
}
);
layerId = "581BC726-83A6-4935-8633-5A6508251040";
paths = (
{
closed = 1;
nodes = (
"423 -10 OFFCURVE",
"525 66 OFFCURVE",
"525 198 CURVE SMOOTH",
"525 332 OFFCURVE",
"433 396 OFFCURVE",
"296 396 CURVE SMOOTH",
"276 396 LINE",
"487 643 LINE SMOOTH",
"491 648 OFFCURVE",
"495 654 OFFCURVE",
"495 662 CURVE SMOOTH",
"495 677 LINE SMOOTH",
"495 691 OFFCURVE",
"486 700 OFFCURVE",
"472 700 CURVE SMOOTH",
"99 700 LINE SMOOTH",
"86 700 OFFCURVE",
"77 691 OFFCURVE",
"77 677 CURVE SMOOTH",
"77 662 LINE SMOOTH",
"77 649 OFFCURVE",
"86 640 OFFCURVE",
"99 640 CURVE SMOOTH",
"401 640 LINE",
"195 397 LINE",
"190 390 OFFCURVE",
"186 383 OFFCURVE",
"186 373 CURVE SMOOTH",
"186 358 LINE SMOOTH",
"186 345 OFFCURVE",
"195 336 OFFCURVE",
"208 336 CURVE SMOOTH",
"296 336 LINE SMOOTH",
"399 336 OFFCURVE",
"462 297 OFFCURVE",
"462 198 CURVE SMOOTH",
"462 99 OFFCURVE",
"389 50 OFFCURVE",
"286 50 CURVE SMOOTH",
"215 50 OFFCURVE",
"130 70 OFFCURVE",
"109 157 CURVE SMOOTH",
"104 177 OFFCURVE",
"93 180 OFFCURVE",
"82 180 CURVE SMOOTH",
"68 180 LINE SMOOTH",
"56 180 OFFCURVE",
"47 173 OFFCURVE",
"47 161 CURVE SMOOTH",
"50 74 OFFCURVE",
"136 -10 OFFCURVE",
"286 -10 CURVE SMOOTH"
);
}
);
width = 576;
},
{
guideLines = (
{
angle = 90;
position = "{50, 0}";
},
{
angle = 90;
position = "{702, 0}";
},
{
angle = 90;
position = "{376, 0}";
}
);
layerId = "EC64484B-0978-4CB1-9EE9-C40A2D8C4059";
paths = (
{
closed = 1;
nodes = (
"537 -10 OFFCURVE",
"675 80 OFFCURVE",
"675 219 CURVE SMOOTH",
"675 345 OFFCURVE",
"595 401 OFFCURVE",
"495 425 CURVE",
"495 428 LINE",
"612 506 LINE SMOOTH",
"622 513 OFFCURVE",
"632 527 OFFCURVE",
"632 546 CURVE SMOOTH",
"632 673 LINE SMOOTH",
"632 688 OFFCURVE",
"620 700 OFFCURVE",
"605 700 CURVE SMOOTH",
"93 700 LINE SMOOTH",
"78 700 OFFCURVE",
"66 688 OFFCURVE",
"66 673 CURVE SMOOTH",
"66 532 LINE SMOOTH",
"66 517 OFFCURVE",
"78 505 OFFCURVE",
"93 505 CURVE SMOOTH",
"356 505 LINE",
"217 429 LINE SMOOTH",
"207 423 OFFCURVE",
"197 409 OFFCURVE",
"197 389 CURVE SMOOTH",
"197 308 LINE SMOOTH",
"197 293 OFFCURVE",
"209 281 OFFCURVE",
"224 281 CURVE SMOOTH",
"349 281 LINE SMOOTH",
"393 281 OFFCURVE",
"415 267 OFFCURVE",
"415 237 CURVE SMOOTH",
"415 208 OFFCURVE",
"396 184 OFFCURVE",
"349 184 CURVE SMOOTH",
"307 184 OFFCURVE",
"291 193 OFFCURVE",
"280 204 CURVE SMOOTH",
"271 213 OFFCURVE",
"264 220 OFFCURVE",
"246 220 CURVE SMOOTH",
"45 220 LINE SMOOTH",
"33 220 OFFCURVE",
"23 210 OFFCURVE",
"23 198 CURVE SMOOTH",
"26 119 OFFCURVE",
"107 -10 OFFCURVE",
"348 -10 CURVE SMOOTH"
);
}
);
width = 709;
}
);
unicode = 0033;
},
{
glyphname = four;
layers = (
{
hints = (
{
horizontal = 1;
origin = "{0, 26}";
type = Tag;
}
);
layerId = "581BC726-83A6-4935-8633-5A6508251040";
paths = (
{
closed = 1;
nodes = (
"425 0 LINE SMOOTH",
"438 0 OFFCURVE",
"447 9 OFFCURVE",
"447 22 CURVE SMOOTH",
"447 180 LINE",
"538 180 LINE SMOOTH",
"551 180 OFFCURVE",
"560 189 OFFCURVE",
"560 202 CURVE SMOOTH",
"560 218 LINE SMOOTH",
"560 231 OFFCURVE",
"551 240 OFFCURVE",
"538 240 CURVE SMOOTH",
"447 240 LINE",
"447 678 LINE SMOOTH",
"447 691 OFFCURVE",
"438 700 OFFCURVE",
"425 700 CURVE SMOOTH",
"384 700 LINE SMOOTH",
"368 700 OFFCURVE",
"354 693 OFFCURVE",
"347 683 CURVE SMOOTH",
"43 248 LINE SMOOTH",
"33 234 OFFCURVE",
"32 220 OFFCURVE",
"32 218 CURVE SMOOTH",
"32 202 LINE",
"32 189 OFFCURVE",
"41 180 OFFCURVE",
"54 180 CURVE SMOOTH",
"384 180 LINE",
"384 22 LINE SMOOTH",
"384 9 OFFCURVE",
"393 0 OFFCURVE",
"406 0 CURVE SMOOTH"
);
},
{
closed = 1;
nodes = (
"384 629 LINE",
"384 240 LINE",
"111 240 LINE"
);
}
);
width = 595;
},
{
guideLines = (
{
position = "{0, 213}";
},
{
position = "{0, 315}";
},
{
position = "{0, 112}";
},
{
angle = 90;
position = "{376, 0}";
}
);
layerId = "EC64484B-0978-4CB1-9EE9-C40A2D8C4059";
paths = (
{
closed = 1;
nodes = (
"565 0 LINE SMOOTH",
"580 0 OFFCURVE",
"592 12 OFFCURVE",
"592 27 CURVE SMOOTH",
"592 112 LINE",
"680 112 LINE SMOOTH",
"695 112 OFFCURVE",
"707 124 OFFCURVE",
"707 139 CURVE SMOOTH",
"707 288 LINE SMOOTH",
"707 302 OFFCURVE",
"696 315 OFFCURVE",
"679 315 CURVE SMOOTH",
"592 315 LINE",
"592 673 LINE SMOOTH",
"592 688 OFFCURVE",
"580 700 OFFCURVE",
"565 700 CURVE SMOOTH",
"357 700 LINE SMOOTH",
"341 700 OFFCURVE",
"328 693 OFFCURVE",
"320 683 CURVE SMOOTH",
"37 313 LINE SMOOTH",
"33 308 OFFCURVE",
"26 299 OFFCURVE",
"26 282 CURVE SMOOTH",
"26 139 LINE SMOOTH",
"26 124 OFFCURVE",
"38 112 OFFCURVE",
"53 112 CURVE SMOOTH",
"352 112 LINE",
"352 27 LINE SMOOTH",
"352 12 OFFCURVE",
"364 0 OFFCURVE",
"379 0 CURVE SMOOTH"
);
},
{
closed = 1;
nodes = (
"359 448 LINE",
"359 304 LINE",
"254 304 LINE"
);
}
);
width = 735;
}
);
unicode = 0034;
},
{
glyphname = five;
layers = (
{
hints = (
{
horizontal = 1;
origin = "{0, 29}";
type = Tag;
}
);
layerId = "581BC726-83A6-4935-8633-5A6508251040";
paths = (
{
closed = 1;
nodes = (
"413 -10 OFFCURVE",
"521 68 OFFCURVE",
"521 224 CURVE SMOOTH",
"521 370 OFFCURVE",
"413 448 OFFCURVE",
"280 448 CURVE SMOOTH",
"205 448 OFFCURVE",
"165 423 OFFCURVE",
"151 414 CURVE",
"172 640 LINE",
"459 640 LINE SMOOTH",
"472 640 OFFCURVE",
"481 649 OFFCURVE",
"481 662 CURVE SMOOTH",
"481 678 LINE SMOOTH",
"481 691 OFFCURVE",
"472 700 OFFCURVE",
"459 700 CURVE SMOOTH",
"133 700 LINE SMOOTH",
"120 700 OFFCURVE",
"112 691 OFFCURVE",
"111 677 CURVE SMOOTH",
"81 350 LINE",
"80 338 OFFCURVE",
"91 328 OFFCURVE",
"103 328 CURVE SMOOTH",
"121 328 LINE SMOOTH",
"163 328 OFFCURVE",
"180 388 OFFCURVE",
"280 388 CURVE SMOOTH",
"378 388 OFFCURVE",
"458 327 OFFCURVE",
"458 224 CURVE SMOOTH",
"458 111 OFFCURVE",
"378 50 OFFCURVE",
"280 50 CURVE SMOOTH",
"208 50 OFFCURVE",
"135 84 OFFCURVE",
"114 171 CURVE SMOOTH",
"109 191 OFFCURVE",
"100 194 OFFCURVE",
"89 194 CURVE SMOOTH",
"70 194 LINE SMOOTH",
"58 194 OFFCURVE",
"49 187 OFFCURVE",
"50 175 CURVE SMOOTH",
"54 83 OFFCURVE",
"134 -10 OFFCURVE",
"280 -10 CURVE SMOOTH"
);
}
);
width = 572;
},
{
guideLines = (
{
position = "{0, 468}";
},
{
position = "{0, 282}";
},
{
angle = 90;
position = "{55, 0}";
},
{
angle = 90;
position = "{696, 0}";
}
);
layerId = "EC64484B-0978-4CB1-9EE9-C40A2D8C4059";
paths = (
{
closed = 1;
nodes = (
"556 -12 OFFCURVE",
"664 105 OFFCURVE",
"664 238 CURVE SMOOTH",
"664 371 OFFCURVE",
"543 468 OFFCURVE",
"420 468 CURVE SMOOTH",
"354 468 OFFCURVE",
"323 459 OFFCURVE",
"286 434 CURVE",
"294 505 LINE",
"586 505 LINE SMOOTH",
"601 505 OFFCURVE",
"613 517 OFFCURVE",
"613 532 CURVE SMOOTH",
"613 673 LINE SMOOTH",
"613 688 OFFCURVE",
"601 700 OFFCURVE",
"586 700 CURVE SMOOTH",
"139 700 LINE SMOOTH",
"120 700 OFFCURVE",
"103 689 OFFCURVE",
"100 666 CURVE",
"60 304 LINE",
"60 292 OFFCURVE",
"70 282 OFFCURVE",
"82 282 CURVE SMOOTH",
"281 282 LINE SMOOTH",
"298 282 OFFCURVE",
"303 306 OFFCURVE",
"345 306 CURVE SMOOTH",
"384 306 OFFCURVE",
"406 276 OFFCURVE",
"406 245 CURVE SMOOTH",
"406 204 OFFCURVE",
"377 183 OFFCURVE",
"345 183 CURVE SMOOTH",
"312 183 OFFCURVE",
"301 195 OFFCURVE",
"283 218 CURVE SMOOTH",
"279 223 OFFCURVE",
"268 234 OFFCURVE",
"247 234 CURVE SMOOTH",
"45 234 LINE SMOOTH",
"33 234 OFFCURVE",
"23 224 OFFCURVE",
"23 212 CURVE SMOOTH",
"26 92 OFFCURVE",
"132 -12 OFFCURVE",
"344 -12 CURVE SMOOTH"
);
}
);
width = 690;
}
);
unicode = 0035;
},
{
glyphname = six;
layers = (
{
hints = (
{
horizontal = 1;
origin = "{0, 23}";
type = Tag;
}
);
layerId = "581BC726-83A6-4935-8633-5A6508251040";
paths = (
{
closed = 1;
nodes = (
"458 -10 OFFCURVE",
"541 105 OFFCURVE",
"541 226 CURVE SMOOTH",
"541 347 OFFCURVE",
"458 461 OFFCURVE",
"298 461 CURVE SMOOTH",
"276 461 OFFCURVE",
"249 458 OFFCURVE",
"230 453 CURVE",
"380 665 LINE SMOOTH",
"382 668 OFFCURVE",
"385 672 OFFCURVE",
"385 678 CURVE SMOOTH",
"385 690 OFFCURVE",
"377 700 OFFCURVE",
"365 700 CURVE SMOOTH",
"346 700 LINE SMOOTH",
"328 700 OFFCURVE",
"321 687 OFFCURVE",
"315 680 CURVE",
"118 403 LINE SMOOTH",
"95 370 OFFCURVE",
"55 304 OFFCURVE",
"55 226 CURVE SMOOTH",
"55 105 OFFCURVE",
"138 -10 OFFCURVE",
"298 -10 CURVE SMOOTH"
);
},
{
closed = 1;
nodes = (
"204 50 OFFCURVE",
"118 111 OFFCURVE",
"118 226 CURVE SMOOTH",
"118 340 OFFCURVE",
"204 401 OFFCURVE",
"298 401 CURVE SMOOTH",
"392 401 OFFCURVE",
"478 340 OFFCURVE",
"478 226 CURVE SMOOTH",
"478 111 OFFCURVE",
"392 50 OFFCURVE",
"298 50 CURVE SMOOTH"
);
}
);
width = 582;
},
{
guideLines = (
{
position = "{0, 253}";
},
{
angle = 90;
position = "{378, 0}";
}
);
layerId = "EC64484B-0978-4CB1-9EE9-C40A2D8C4059";
paths = (
{
closed = 1;
nodes = (
"538 -10 OFFCURVE",
"671 103 OFFCURVE",
"671 254 CURVE SMOOTH",
"671 410 OFFCURVE",
"516 489 OFFCURVE",
"419 498 CURVE SMOOTH",
"417 498 OFFCURVE",
"414 498 OFFCURVE",
"412 498 CURVE",
"538 665 LINE SMOOTH",
"540 668 OFFCURVE",
"542 672 OFFCURVE",
"542 678 CURVE SMOOTH",
"542 690 OFFCURVE",
"532 700 OFFCURVE",
"520 700 CURVE SMOOTH",
"319 700 LINE SMOOTH",
"297 700 OFFCURVE",
"285 687 OFFCURVE",
"280 680 CURVE SMOOTH",
"117 467 LINE SMOOTH",
"90 432 OFFCURVE",
"20 335 OFFCURVE",
"20 249 CURVE SMOOTH",
"20 84 OFFCURVE",
"162 -10 OFFCURVE",
"350 -10 CURVE SMOOTH"
);
},
{
closed = 1;
nodes = (
"309 185 OFFCURVE",
"278 208 OFFCURVE",
"278 250 CURVE SMOOTH",
"278 292 OFFCURVE",
"308 315 OFFCURVE",
"347 315 CURVE SMOOTH",
"386 315 OFFCURVE",
"416 292 OFFCURVE",
"416 250 CURVE SMOOTH",
"416 208 OFFCURVE",
"385 185 OFFCURVE",
"347 185 CURVE SMOOTH"
);
}
);
width = 692;
}
);
unicode = 0036;
},
{
glyphname = seven;
layers = (
{
hints = (
{
horizontal = 1;
origin = "{0, 12}";
type = Tag;
}
);
layerId = "581BC726-83A6-4935-8633-5A6508251040";
paths = (
{
closed = 1;
nodes = (
"174 0 LINE SMOOTH",
"189 0 OFFCURVE",
"195 14 OFFCURVE",
"200 25 CURVE SMOOTH",
"453 625 LINE SMOOTH",
"458 638 OFFCURVE",
"460 646 OFFCURVE",
"460 662 CURVE SMOOTH",
"460 677 LINE SMOOTH",
"460 691 OFFCURVE",
"451 700 OFFCURVE",
"437 700 CURVE SMOOTH",
"51 700 LINE",
"38 700 OFFCURVE",
"29 691 OFFCURVE",
"29 677 CURVE SMOOTH",
"29 662 LINE SMOOTH",
"29 649 OFFCURVE",
"38 640 OFFCURVE",
"51 640 CURVE SMOOTH",
"392 640 LINE",
"135 31 LINE SMOOTH",
"134 28 OFFCURVE",
"133 24 OFFCURVE",
"133 22 CURVE SMOOTH",
"133 10 OFFCURVE",
"141 0 OFFCURVE",
"153 0 CURVE SMOOTH"
);
}
);
width = 487;
},
{
guideLines = (
{
position = "{0, 522}";
},
{
angle = 90;
position = "{322, 0}";
}
);
layerId = "EC64484B-0978-4CB1-9EE9-C40A2D8C4059";
paths = (
{
closed = 1;
nodes = (
"327 0 LINE SMOOTH",
"352 0 OFFCURVE",
"364 16 OFFCURVE",
"368 23 CURVE SMOOTH",
"586 490 LINE SMOOTH",
"592 503 OFFCURVE",
"599 518 OFFCURVE",
"599 541 CURVE SMOOTH",
"599 673 LINE SMOOTH",
"599 688 OFFCURVE",
"588 700 OFFCURVE",
"572 700 CURVE SMOOTH",
"55 700 LINE SMOOTH",
"40 700 OFFCURVE",
"28 688 OFFCURVE",
"28 673 CURVE SMOOTH",
"28 522 LINE SMOOTH",
"28 507 OFFCURVE",
"40 495 OFFCURVE",
"55 495 CURVE SMOOTH",
"330 495 LINE",
"114 31 LINE SMOOTH",
"113 29 OFFCURVE",
"112 26 OFFCURVE",
"112 22 CURVE SMOOTH",
"112 10 OFFCURVE",
"122 0 OFFCURVE",
"134 0 CURVE SMOOTH"
);
}
);
width = 625;
}
);
unicode = 0037;
},
{
glyphname = eight;
layers = (
{
hints = (
{
horizontal = 1;
origin = "{0, 8}";
type = Tag;
},
{
horizontal = 1;
origin = "{2, 2}";
type = Tag;
}
);
layerId = "581BC726-83A6-4935-8633-5A6508251040";
paths = (
{
closed = 1;
nodes = (
"446 -10 OFFCURVE",
"558 63 OFFCURVE",
"558 197 CURVE SMOOTH",
"558 282 OFFCURVE",
"513 342 OFFCURVE",
"445 374 CURVE",
"498 404 OFFCURVE",
"533 455 OFFCURVE",
"533 526 CURVE SMOOTH",
"533 647 OFFCURVE",
"433 710 OFFCURVE",
"309 710 CURVE SMOOTH",
"185 710 OFFCURVE",
"85 647 OFFCURVE",
"85 526 CURVE SMOOTH",
"85 455 OFFCURVE",
"119 404 OFFCURVE",
"173 374 CURVE",
"105 342 OFFCURVE",
"60 282 OFFCURVE",
"60 197 CURVE SMOOTH",
"60 63 OFFCURVE",
"172 -10 OFFCURVE",
"309 -10 CURVE SMOOTH"
);
},
{
closed = 1;
nodes = (
"206 50 OFFCURVE",
"123 106 OFFCURVE",
"123 197 CURVE SMOOTH",
"123 288 OFFCURVE",
"206 343 OFFCURVE",
"309 343 CURVE SMOOTH",
"412 343 OFFCURVE",
"495 288 OFFCURVE",
"495 197 CURVE SMOOTH",
"495 106 OFFCURVE",
"412 50 OFFCURVE",
"309 50 CURVE SMOOTH"
);
},
{
closed = 1;
nodes = (
"220 403 OFFCURVE",
"148 448 OFFCURVE",
"148 526 CURVE SMOOTH",
"148 604 OFFCURVE",
"220 650 OFFCURVE",
"309 650 CURVE SMOOTH",
"398 650 OFFCURVE",
"470 604 OFFCURVE",
"470 526 CURVE SMOOTH",
"470 450 OFFCURVE",
"395 405 OFFCURVE",
"309 403 CURVE"
);
}
);
width = 618;
},
{
guideLines = (
{
position = "{0, 433}";
},
{
position = "{0, 277}";
},
{
angle = 90;
position = "{55, 0}";
}
);
layerId = "EC64484B-0978-4CB1-9EE9-C40A2D8C4059";
paths = (
{
closed = 1;
nodes = (
"588 -10 OFFCURVE",
"676 103 OFFCURVE",
"676 216 CURVE SMOOTH",
"676 283 OFFCURVE",
"641 343 OFFCURVE",
"587 370 CURVE",
"628 402 OFFCURVE",
"646 447 OFFCURVE",
"646 502 CURVE SMOOTH",
"646 608 OFFCURVE",
"572 710 OFFCURVE",
"355 710 CURVE SMOOTH",
"136 710 OFFCURVE",
"61 606 OFFCURVE",
"61 500 CURVE SMOOTH",
"61 445 OFFCURVE",
"82 400 OFFCURVE",
"123 370 CURVE",
"73 341 OFFCURVE",
"36 284 OFFCURVE",
"36 218 CURVE SMOOTH",
"36 104 OFFCURVE",
"121 -10 OFFCURVE",
"355 -10 CURVE SMOOTH"
);
},
{
closed = 1;
nodes = (
"315 158 OFFCURVE",
"285 180 OFFCURVE",
"285 217 CURVE SMOOTH",
"285 254 OFFCURVE",
"315 276 OFFCURVE",
"355 276 CURVE SMOOTH",
"395 276 OFFCURVE",
"425 254 OFFCURVE",
"425 217 CURVE SMOOTH",
"425 180 OFFCURVE",
"395 158 OFFCURVE",
"355 158 CURVE SMOOTH"
);
},
{
closed = 1;
nodes = (
"315 433 OFFCURVE",
"292 457 OFFCURVE",
"292 487 CURVE SMOOTH",
"292 517 OFFCURVE",
"315 541 OFFCURVE",
"355 541 CURVE SMOOTH",
"395 541 OFFCURVE",
"419 517 OFFCURVE",
"419 487 CURVE SMOOTH",
"419 457 OFFCURVE",
"395 433 OFFCURVE",
"355 433 CURVE SMOOTH"
);
}
);
width = 712;
}
);
unicode = 0038;
},
{
glyphname = nine;
layers = (
{
hints = (
{
horizontal = 1;
origin = "{0, 7}";
type = Tag;
}
);
layerId = "581BC726-83A6-4935-8633-5A6508251040";
paths = (
{
closed = 1;
nodes = (
"221 0 LINE SMOOTH",
"239 0 OFFCURVE",
"246 13 OFFCURVE",
"252 20 CURVE",
"458 311 LINE SMOOTH",
"481 344 OFFCURVE",
"517 400 OFFCURVE",
"517 479 CURVE SMOOTH",
"517 590 OFFCURVE",
"439 710 OFFCURVE",
"279 710 CURVE SMOOTH",
"119 710 OFFCURVE",
"42 590 OFFCURVE",
"42 479 CURVE SMOOTH",
"42 368 OFFCURVE",
"119 249 OFFCURVE",
"279 249 CURVE SMOOTH",
"301 249 OFFCURVE",
"325 252 OFFCURVE",
"344 257 CURVE",
"186 35 LINE SMOOTH",
"184 32 OFFCURVE",
"181 28 OFFCURVE",
"181 22 CURVE SMOOTH",
"181 10 OFFCURVE",
"189 0 OFFCURVE",
"201 0 CURVE SMOOTH"
);
},
{
closed = 1;
nodes = (
"185 309 OFFCURVE",
"105 375 OFFCURVE",
"105 479 CURVE SMOOTH",
"105 584 OFFCURVE",
"185 650 OFFCURVE",
"279 650 CURVE SMOOTH",
"373 650 OFFCURVE",
"454 584 OFFCURVE",
"454 479 CURVE SMOOTH",
"454 375 OFFCURVE",
"373 309 OFFCURVE",
"279 309 CURVE SMOOTH"
);
}
);
width = 572;
},
{
guideLines = (
{
position = "{0, 450}";
},
{
angle = 90;
position = "{45, 0}";
},
{
angle = 90;
position = "{65, 0}";
},
{
angle = 90;
position = "{369, 0}";
},
{
angle = 90;
position = "{675, 0}";
}
);
layerId = "EC64484B-0978-4CB1-9EE9-C40A2D8C4059";
paths = (
{
closed = 1;
nodes = (
"359 0 LINE SMOOTH",
"381 0 OFFCURVE",
"393 13 OFFCURVE",
"398 20 CURVE SMOOTH",
"530 196 LINE",
"593 285 OFFCURVE",
"662 360 OFFCURVE",
"662 459 CURVE SMOOTH",
"662 608 OFFCURVE",
"545 710 OFFCURVE",
"337 710 CURVE SMOOTH",
"129 710 OFFCURVE",
"21 585 OFFCURVE",
"21 449 CURVE SMOOTH",
"21 293 OFFCURVE",
"166 222 OFFCURVE",
"263 211 CURVE SMOOTH",
"266 210 OFFCURVE",
"268 210 OFFCURVE",
"271 210 CURVE",
"140 35 LINE SMOOTH",
"138 32 OFFCURVE",
"136 28 OFFCURVE",
"136 22 CURVE SMOOTH",
"136 10 OFFCURVE",
"146 0 OFFCURVE",
"158 0 CURVE SMOOTH"
);
},
{
closed = 1;
nodes = (
"301 385 OFFCURVE",
"276 408 OFFCURVE",
"276 450 CURVE SMOOTH",
"276 492 OFFCURVE",
"302 515 OFFCURVE",
"340 515 CURVE SMOOTH",
"378 515 OFFCURVE",
"404 492 OFFCURVE",
"404 450 CURVE SMOOTH",
"404 408 OFFCURVE",
"379 385 OFFCURVE",
"340 385 CURVE SMOOTH"
);
}
);
width = 683;
}
);
unicode = 0039;
},
{
glyphname = exclam;
layers = (
{
guideLines = (
{
position = "{0, 143}";
},
{
position = "{0, 83}";
}
);
hints = (
{
horizontal = 1;
origin = "{0, 8}";
type = Tag;
}
);
layerId = "581BC726-83A6-4935-8633-5A6508251040";
paths = (
{
closed = 1;
nodes = (
"121 143 LINE SMOOTH",
"134 143 OFFCURVE",
"143 152 OFFCURVE",
"143 165 CURVE SMOOTH",
"143 678 LINE SMOOTH",
"143 691 OFFCURVE",
"134 700 OFFCURVE",
"121 700 CURVE SMOOTH",
"104 700 LINE SMOOTH",
"91 700 OFFCURVE",
"82 691 OFFCURVE",
"82 678 CURVE SMOOTH",
"82 165 LINE SMOOTH",
"82 152 OFFCURVE",
"91 143 OFFCURVE",
"104 143 CURVE SMOOTH"
);
},
{
closed = 1;
nodes = (
"131 0 LINE SMOOTH",
"144 0 OFFCURVE",
"154 9 OFFCURVE",
"154 22 CURVE SMOOTH",
"154 60 LINE SMOOTH",
"154 73 OFFCURVE",
"144 83 OFFCURVE",
"131 83 CURVE SMOOTH",
"93 83 LINE SMOOTH",
"80 83 OFFCURVE",
"71 73 OFFCURVE",
"71 60 CURVE SMOOTH",
"71 22 LINE SMOOTH",
"71 9 OFFCURVE",
"80 0 OFFCURVE",
"93 0 CURVE SMOOTH"
);
}
);
width = 225;
},
{
guideLines = (
{
position = "{0, 228}";
},
{
position = "{0, 268}";
},
{
angle = 90;
position = "{283, 0}";
}
);
layerId = "EC64484B-0978-4CB1-9EE9-C40A2D8C4059";
paths = (
{
closed = 1;
nodes = (
"252 268 LINE SMOOTH",
"267 268 OFFCURVE",
"279 280 OFFCURVE",
"279 295 CURVE SMOOTH",
"279 673 LINE SMOOTH",
"279 688 OFFCURVE",
"267 700 OFFCURVE",
"252 700 CURVE SMOOTH",
"78 700 LINE SMOOTH",
"63 700 OFFCURVE",
"51 688 OFFCURVE",
"51 673 CURVE SMOOTH",
"51 295 LINE SMOOTH",
"51 280 OFFCURVE",
"63 268 OFFCURVE",
"78 268 CURVE SMOOTH"
);
},
{
closed = 1;
nodes = (
"252 0 LINE SMOOTH",
"267 0 OFFCURVE",
"279 12 OFFCURVE",
"279 27 CURVE SMOOTH",
"279 201 LINE SMOOTH",
"279 216 OFFCURVE",
"267 228 OFFCURVE",
"252 228 CURVE SMOOTH",
"78 228 LINE SMOOTH",
"63 228 OFFCURVE",
"51 216 OFFCURVE",
"51 201 CURVE SMOOTH",
"51 27 LINE SMOOTH",
"51 12 OFFCURVE",
"63 0 OFFCURVE",
"78 0 CURVE SMOOTH"
);
}
);
width = 330;
}
);
unicode = 0021;
userData = {
com.typemytype.robofont.guides = (
{
angle = 0;
isGlobal = 0;
magnetic = 5;
x = 0;
y = 143;
},
{
angle = 0;
isGlobal = 0;
magnetic = 5;
x = 0;
y = 83;
}
);
};
},
{
glyphname = question;
layers = (
{
guideLines = (
{
position = "{0, 710}";
},
{
position = "{0, 605}";
},
{
angle = 90;
position = "{304, 0}";
},
{
angle = 90;
position = "{236, 0}";
},
{
angle = 90;
position = "{270, 0}";
}
);
hints = (
{
horizontal = 1;
origin = "{0, 9}";
type = Tag;
},
{
horizontal = 1;
origin = "{1, 11}";
type = Tag;
}
);
layerId = "581BC726-83A6-4935-8633-5A6508251040";
paths = (
{
closed = 1;
nodes = (
"264 143 LINE SMOOTH",
"277 143 OFFCURVE",
"286 152 OFFCURVE",
"286 165 CURVE SMOOTH",
"286 181 OFFCURVE",
"286 197 OFFCURVE",
"286 213 CURVE SMOOTH",
"286 334 OFFCURVE",
"454 383 OFFCURVE",
"464 523 CURVE SMOOTH",
"471 617 OFFCURVE",
"402 710 OFFCURVE",
"255 710 CURVE SMOOTH",
"128 710 OFFCURVE",
"38 622 OFFCURVE",
"35 511 CURVE SMOOTH",
"35 499 OFFCURVE",
"44 491 OFFCURVE",
"56 491 CURVE SMOOTH",
"72 491 LINE SMOOTH",
"82 491 OFFCURVE",
"93 495 OFFCURVE",
"96 513 CURVE SMOOTH",
"113 615 OFFCURVE",
"177 652 OFFCURVE",
"255 652 CURVE SMOOTH",
"333 652 OFFCURVE",
"413 605 OFFCURVE",
"403 522 CURVE SMOOTH",
"390 417 OFFCURVE",
"225 366 OFFCURVE",
"225 213 CURVE SMOOTH",
"225 197 OFFCURVE",
"225 181 OFFCURVE",
"225 165 CURVE SMOOTH",
"225 152 OFFCURVE",
"234 143 OFFCURVE",
"247 143 CURVE"
);
},
{
closed = 1;
nodes = (
"273 0 LINE SMOOTH",
"286 0 OFFCURVE",
"296 9 OFFCURVE",
"296 22 CURVE SMOOTH",
"296 60 LINE SMOOTH",
"296 73 OFFCURVE",
"286 83 OFFCURVE",
"273 83 CURVE SMOOTH",
"235 83 LINE SMOOTH",
"222 83 OFFCURVE",
"213 73 OFFCURVE",
"213 60 CURVE SMOOTH",
"213 22 LINE SMOOTH",
"213 9 OFFCURVE",
"222 0 OFFCURVE",
"235 0 CURVE SMOOTH"
);
}
);
width = 503;
},
{
guideLines = (
{
position = "{0, 710}";
}
);
layerId = "EC64484B-0978-4CB1-9EE9-C40A2D8C4059";
paths = (
{
closed = 1;
nodes = (
"440 253 LINE SMOOTH",
"457 253 OFFCURVE",
"462 262 OFFCURVE",
"476 282 CURVE SMOOTH",
"479 287 OFFCURVE",
"483 291 OFFCURVE",
"487 296 CURVE SMOOTH",
"537 357 OFFCURVE",
"628 416 OFFCURVE",
"628 523 CURVE SMOOTH",
"628 587 OFFCURVE",
"578 710 OFFCURVE",
"347 710 CURVE SMOOTH",
"125 710 OFFCURVE",
"27 585 OFFCURVE",
"24 484 CURVE SMOOTH",
"24 465 OFFCURVE",
"35 453 OFFCURVE",
"49 453 CURVE SMOOTH",
"235 453 LINE SMOOTH",
"257 453 OFFCURVE",
"264 465 OFFCURVE",
"271 478 CURVE SMOOTH",
"280 495 OFFCURVE",
"289 515 OFFCURVE",
"329 515 CURVE SMOOTH",
"349 515 OFFCURVE",
"363 503 OFFCURVE",
"363 483 CURVE SMOOTH",
"363 435 OFFCURVE",
"237 372 OFFCURVE",
"208 279 CURVE SMOOTH",
"207 276 OFFCURVE",
"207 274 OFFCURVE",
"207 271 CURVE SMOOTH",
"207 262 OFFCURVE",
"216 253 OFFCURVE",
"226 253 CURVE SMOOTH"
);
},
{
closed = 1;
nodes = (
"419 0 LINE SMOOTH",
"434 0 OFFCURVE",
"446 12 OFFCURVE",
"446 27 CURVE SMOOTH",
"446 186 LINE SMOOTH",
"446 201 OFFCURVE",
"434 213 OFFCURVE",
"419 213 CURVE SMOOTH",
"236 213 LINE",
"221 213 OFFCURVE",
"209 201 OFFCURVE",
"209 186 CURVE SMOOTH",
"209 27 LINE SMOOTH",
"209 12 OFFCURVE",
"221 0 OFFCURVE",
"236 0 CURVE SMOOTH"
);
}
);
width = 653;
}
);
unicode = 003F;
userData = {
com.typemytype.robofont.guides = (
{
angle = 0;
isGlobal = 0;
magnetic = 5;
x = 0;
y = 710;
},
{
angle = 0;
isGlobal = 0;
magnetic = 5;
x = 0;
y = 605;
},
{
angle = 90;
isGlobal = 0;
magnetic = 5;
x = 304;
y = 0;
},
{
angle = 90;
isGlobal = 0;
magnetic = 5;
x = 236;
y = 0;
},
{
angle = 90;
isGlobal = 0;
magnetic = 5;
x = 270;
y = 0;
}
);
};
},
{
glyphname = comma;
layers = (
{
guideLines = (
{
position = "{0, -75}";
},
{
position = "{0, 93}";
}
);
hints = (
{
horizontal = 1;
origin = "{0, 15}";
type = Tag;
}
);
layerId = "581BC726-83A6-4935-8633-5A6508251040";
paths = (
{
closed = 1;
nodes = (
"90 -75 LINE SMOOTH",
"105 -75 OFFCURVE",
"110 -67 OFFCURVE",
"116 -54 CURVE",
"159 59 LINE SMOOTH",
"162 66 OFFCURVE",
"163 72 OFFCURVE",
"163 77 CURVE SMOOTH",
"163 85 OFFCURVE",
"157 93 OFFCURVE",
"148 93 CURVE SMOOTH",
"103 93 LINE SMOOTH",
"87 93 OFFCURVE",
"80 82 OFFCURVE",
"78 66 CURVE",
"59 -54 LINE",
"57 -66 OFFCURVE",
"62 -75 OFFCURVE",
"73 -75 CURVE SMOOTH"
);
}
);
width = 237;
},
{
guideLines = (
{
position = "{0, -75}";
},
{
position = "{0, 228}";
}
);
layerId = "EC64484B-0978-4CB1-9EE9-C40A2D8C4059";
paths = (
{
closed = 1;
nodes = (
"141 -75 LINE SMOOTH",
"167 -75 OFFCURVE",
"179 -56 OFFCURVE",
"184 -43 CURVE SMOOTH",
"279 199 LINE SMOOTH",
"280 202 OFFCURVE",
"280 204 OFFCURVE",
"280 206 CURVE SMOOTH",
"280 218 OFFCURVE",
"270 228 OFFCURVE",
"258 228 CURVE SMOOTH",
"98 228 LINE SMOOTH",
"71 228 OFFCURVE",
"58 207 OFFCURVE",
"55 189 CURVE",
"18 -53 LINE SMOOTH",
"16 -65 OFFCURVE",
"28 -75 OFFCURVE",
"40 -75 CURVE SMOOTH"
);
}
);
width = 303;
}
);
leftKerningGroup = period;
rightKerningGroup = period;
unicode = 002C;
userData = {
com.typemytype.robofont.guides = (
{
angle = 0;
isGlobal = 0;
magnetic = 5;
x = 0;
y = "-75";
},
{
angle = 0;
isGlobal = 0;
magnetic = 5;
x = 0;
y = 93;
}
);
};
},
{
glyphname = period;
layers = (
{
hints = (
{
horizontal = 1;
origin = "{0, 4}";
type = Tag;
}
);
layerId = "581BC726-83A6-4935-8633-5A6508251040";
paths = (
{
closed = 1;
nodes = (
"143 0 LINE SMOOTH",
"156 0 OFFCURVE",
"166 9 OFFCURVE",
"166 22 CURVE SMOOTH",
"166 70 LINE SMOOTH",
"166 83 OFFCURVE",
"156 93 OFFCURVE",
"143 93 CURVE SMOOTH",
"95 93 LINE SMOOTH",
"82 93 OFFCURVE",
"73 83 OFFCURVE",
"73 70 CURVE SMOOTH",
"73 22 LINE SMOOTH",
"73 9 OFFCURVE",
"82 0 OFFCURVE",
"95 0 CURVE SMOOTH"
);
}
);
width = 238;
},
{
guideLines = (
{
position = "{0, -75}";
}
);
layerId = "EC64484B-0978-4CB1-9EE9-C40A2D8C4059";
paths = (
{
closed = 1;
nodes = (
"243 0 LINE SMOOTH",
"258 0 OFFCURVE",
"270 12 OFFCURVE",
"270 27 CURVE SMOOTH",
"270 201 LINE SMOOTH",
"270 216 OFFCURVE",
"258 228 OFFCURVE",
"243 228 CURVE SMOOTH",
"69 228 LINE SMOOTH",
"54 228 OFFCURVE",
"42 216 OFFCURVE",
"42 201 CURVE SMOOTH",
"42 27 LINE SMOOTH",
"42 12 OFFCURVE",
"54 0 OFFCURVE",
"69 0 CURVE SMOOTH"
);
}
);
width = 312;
}
);
leftKerningGroup = period;
rightKerningGroup = period;
unicode = 002E;
},
{
glyphname = colon;
layers = (
{
hints = (
{
horizontal = 1;
origin = "{1, 4}";
type = Tag;
}
);
layerId = "581BC726-83A6-4935-8633-5A6508251040";
paths = (
{
closed = 1;
nodes = (
"144 350 LINE SMOOTH",
"157 350 OFFCURVE",
"167 359 OFFCURVE",
"167 372 CURVE SMOOTH",
"167 420 LINE SMOOTH",
"167 433 OFFCURVE",
"157 443 OFFCURVE",
"144 443 CURVE SMOOTH",
"96 443 LINE SMOOTH",
"83 443 OFFCURVE",
"74 433 OFFCURVE",
"74 420 CURVE SMOOTH",
"74 372 LINE SMOOTH",
"74 359 OFFCURVE",
"83 350 OFFCURVE",
"96 350 CURVE SMOOTH"
);
},
{
closed = 1;
nodes = (
"144 0 LINE SMOOTH",
"157 0 OFFCURVE",
"167 9 OFFCURVE",
"167 22 CURVE SMOOTH",
"167 70 LINE SMOOTH",
"167 83 OFFCURVE",
"157 93 OFFCURVE",
"144 93 CURVE SMOOTH",
"96 93 LINE SMOOTH",
"83 93 OFFCURVE",
"74 83 OFFCURVE",
"74 70 CURVE SMOOTH",
"74 22 LINE SMOOTH",
"74 9 OFFCURVE",
"83 0 OFFCURVE",
"96 0 CURVE SMOOTH"
);
}
);
width = 241;
},
{
guideLines = (
{
position = "{0, 568}";
}
);
layerId = "EC64484B-0978-4CB1-9EE9-C40A2D8C4059";
paths = (
{
closed = 1;
nodes = (
"248 350 LINE SMOOTH",
"263 350 OFFCURVE",
"275 362 OFFCURVE",
"275 377 CURVE SMOOTH",
"275 541 LINE SMOOTH",
"275 556 OFFCURVE",
"263 568 OFFCURVE",
"248 568 CURVE SMOOTH",
"74 568 LINE SMOOTH",
"59 568 OFFCURVE",
"47 556 OFFCURVE",
"47 541 CURVE SMOOTH",
"47 377 LINE SMOOTH",
"47 362 OFFCURVE",
"59 350 OFFCURVE",
"74 350 CURVE SMOOTH"
);
},
{
closed = 1;
nodes = (
"248 0 LINE SMOOTH",
"263 0 OFFCURVE",
"275 12 OFFCURVE",
"275 27 CURVE SMOOTH",
"275 191 LINE SMOOTH",
"275 206 OFFCURVE",
"263 218 OFFCURVE",
"248 218 CURVE SMOOTH",
"74 218 LINE SMOOTH",
"59 218 OFFCURVE",
"47 206 OFFCURVE",
"47 191 CURVE SMOOTH",
"47 27 LINE SMOOTH",
"47 12 OFFCURVE",
"59 0 OFFCURVE",
"74 0 CURVE SMOOTH"
);
}
);
width = 322;
}
);
leftKerningGroup = colon;
rightKerningGroup = colon;
unicode = 003A;
},
{
glyphname = semicolon;
layers = (
{
guideLines = (
{
angle = 90;
position = "{171, 0}";
}
);
hints = (
{
horizontal = 1;
origin = "{1, 4}";
type = Tag;
}
);
layerId = "581BC726-83A6-4935-8633-5A6508251040";
paths = (
{
closed = 1;
nodes = (
"105 -75 LINE SMOOTH",
"120 -75 OFFCURVE",
"125 -67 OFFCURVE",
"131 -54 CURVE",
"174 59 LINE SMOOTH",
"177 66 OFFCURVE",
"178 72 OFFCURVE",
"178 77 CURVE SMOOTH",
"178 85 OFFCURVE",
"172 93 OFFCURVE",
"163 93 CURVE SMOOTH",
"118 93 LINE SMOOTH",
"102 93 OFFCURVE",
"95 82 OFFCURVE",
"93 66 CURVE SMOOTH",
"74 -54 LINE SMOOTH",
"72 -66 OFFCURVE",
"77 -75 OFFCURVE",
"88 -75 CURVE SMOOTH"
);
},
{
closed = 1;
nodes = (
"156 350 LINE SMOOTH",
"169 350 OFFCURVE",
"179 359 OFFCURVE",
"179 372 CURVE SMOOTH",
"179 420 LINE SMOOTH",
"179 433 OFFCURVE",
"169 443 OFFCURVE",
"156 443 CURVE SMOOTH",
"108 443 LINE SMOOTH",
"95 443 OFFCURVE",
"86 433 OFFCURVE",
"86 420 CURVE SMOOTH",
"86 372 LINE SMOOTH",
"86 359 OFFCURVE",
"95 350 OFFCURVE",
"108 350 CURVE SMOOTH"
);
}
);
width = 259;
},
{
guideLines = (
{
position = "{0, -75}";
}
);
layerId = "EC64484B-0978-4CB1-9EE9-C40A2D8C4059";
paths = (
{
closed = 1;
nodes = (
"142 -75 LINE SMOOTH",
"168 -75 OFFCURVE",
"180 -56 OFFCURVE",
"185 -43 CURVE SMOOTH",
"280 199 LINE SMOOTH",
"281 202 OFFCURVE",
"281 204 OFFCURVE",
"281 206 CURVE SMOOTH",
"281 218 OFFCURVE",
"271 228 OFFCURVE",
"259 228 CURVE SMOOTH",
"99 228 LINE SMOOTH",
"72 228 OFFCURVE",
"59 207 OFFCURVE",
"56 189 CURVE",
"19 -53 LINE",
"19 -65 OFFCURVE",
"29 -75 OFFCURVE",
"41 -75 CURVE SMOOTH"
);
},
{
closed = 1;
nodes = (
"262 350 LINE SMOOTH",
"277 350 OFFCURVE",
"289 362 OFFCURVE",
"289 377 CURVE SMOOTH",
"289 541 LINE SMOOTH",
"289 556 OFFCURVE",
"277 568 OFFCURVE",
"262 568 CURVE SMOOTH",
"88 568 LINE SMOOTH",
"73 568 OFFCURVE",
"61 556 OFFCURVE",
"61 541 CURVE SMOOTH",
"61 377 LINE SMOOTH",
"61 362 OFFCURVE",
"73 350 OFFCURVE",
"88 350 CURVE SMOOTH"
);
}
);
width = 325;
}
);
leftKerningGroup = colon;
rightKerningGroup = colon;
unicode = 003B;
userData = {
com.typemytype.robofont.guides = (
{
angle = 90;
isGlobal = 0;
magnetic = 5;
x = 171;
y = 0;
}
);
};
},
{
glyphname = ellipsis;
layers = (
{
hints = (
{
horizontal = 1;
origin = "{0, 4}";
type = Tag;
},
{
horizontal = 1;
origin = "{1, 4}";
type = Tag;
},
{
horizontal = 1;
origin = "{2, 4}";
type = Tag;
}
);
layerId = "581BC726-83A6-4935-8633-5A6508251040";
paths = (
{
closed = 1;
nodes = (
"143 0 LINE SMOOTH",
"156 0 OFFCURVE",
"166 9 OFFCURVE",
"166 22 CURVE SMOOTH",
"166 70 LINE SMOOTH",
"166 83 OFFCURVE",
"156 93 OFFCURVE",
"143 93 CURVE SMOOTH",
"95 93 LINE SMOOTH",
"82 93 OFFCURVE",
"73 83 OFFCURVE",
"73 70 CURVE SMOOTH",
"73 22 LINE SMOOTH",
"73 9 OFFCURVE",
"82 0 OFFCURVE",
"95 0 CURVE SMOOTH"
);
},
{
closed = 1;
nodes = (
"306 0 LINE SMOOTH",
"319 0 OFFCURVE",
"329 9 OFFCURVE",
"329 22 CURVE SMOOTH",
"329 70 LINE SMOOTH",
"329 83 OFFCURVE",
"319 93 OFFCURVE",
"306 93 CURVE SMOOTH",
"258 93 LINE SMOOTH",
"245 93 OFFCURVE",
"236 83 OFFCURVE",
"236 70 CURVE SMOOTH",
"236 22 LINE SMOOTH",
"236 9 OFFCURVE",
"245 0 OFFCURVE",
"258 0 CURVE SMOOTH"
);
},
{
closed = 1;
nodes = (
"469 0 LINE SMOOTH",
"482 0 OFFCURVE",
"492 9 OFFCURVE",
"492 22 CURVE SMOOTH",
"492 70 LINE SMOOTH",
"492 83 OFFCURVE",
"482 93 OFFCURVE",
"469 93 CURVE SMOOTH",
"421 93 LINE SMOOTH",
"408 93 OFFCURVE",
"399 83 OFFCURVE",
"399 70 CURVE SMOOTH",
"399 22 LINE SMOOTH",
"399 9 OFFCURVE",
"408 0 OFFCURVE",
"421 0 CURVE SMOOTH"
);
}
);
width = 564;
},
{
layerId = "EC64484B-0978-4CB1-9EE9-C40A2D8C4059";
paths = (
{
closed = 1;
nodes = (
"222 0 LINE SMOOTH",
"237 0 OFFCURVE",
"249 12 OFFCURVE",
"249 27 CURVE SMOOTH",
"249 181 LINE SMOOTH",
"249 196 OFFCURVE",
"237 208 OFFCURVE",
"222 208 CURVE SMOOTH",
"68 208 LINE",
"53 208 OFFCURVE",
"41 196 OFFCURVE",
"41 181 CURVE SMOOTH",
"41 27 LINE SMOOTH",
"41 12 OFFCURVE",
"53 0 OFFCURVE",
"68 0 CURVE SMOOTH"
);
},
{
closed = 1;
nodes = (
"500 0 LINE SMOOTH",
"515 0 OFFCURVE",
"527 12 OFFCURVE",
"527 27 CURVE SMOOTH",
"527 181 LINE SMOOTH",
"527 196 OFFCURVE",
"515 208 OFFCURVE",
"500 208 CURVE SMOOTH",
"346 208 LINE",
"331 208 OFFCURVE",
"319 196 OFFCURVE",
"319 181 CURVE SMOOTH",
"319 27 LINE SMOOTH",
"319 12 OFFCURVE",
"331 0 OFFCURVE",
"346 0 CURVE SMOOTH"
);
},
{
closed = 1;
nodes = (
"778 0 LINE SMOOTH",
"793 0 OFFCURVE",
"805 12 OFFCURVE",
"805 27 CURVE SMOOTH",
"805 181 LINE SMOOTH",
"805 196 OFFCURVE",
"793 208 OFFCURVE",
"778 208 CURVE SMOOTH",
"624 208 LINE",
"609 208 OFFCURVE",
"597 196 OFFCURVE",
"597 181 CURVE SMOOTH",
"597 27 LINE SMOOTH",
"597 12 OFFCURVE",
"609 0 OFFCURVE",
"624 0 CURVE SMOOTH"
);
}
);
width = 846;
}
);
leftKerningGroup = period;
rightKerningGroup = period;
unicode = 2026;
},
{
glyphname = periodcentered;
layers = (
{
guideLines = (
{
position = "{0, 300}";
}
);
hints = (
{
horizontal = 1;
origin = "{0, 8}";
type = Tag;
}
);
layerId = "581BC726-83A6-4935-8633-5A6508251040";
paths = (
{
closed = 1;
nodes = (
"220 200 OFFCURVE",
"265 245 OFFCURVE",
"265 300 CURVE SMOOTH",
"265 355 OFFCURVE",
"220 400 OFFCURVE",
"165 400 CURVE SMOOTH",
"110 400 OFFCURVE",
"65 355 OFFCURVE",
"65 300 CURVE SMOOTH",
"65 245 OFFCURVE",
"110 200 OFFCURVE",
"165 200 CURVE SMOOTH"
);
}
);
width = 330;
},
{
layerId = "EC64484B-0978-4CB1-9EE9-C40A2D8C4059";
paths = (
{
closed = 1;
nodes = (
"242 210 OFFCURVE",
"305 273 OFFCURVE",
"305 350 CURVE SMOOTH",
"305 427 OFFCURVE",
"242 490 OFFCURVE",
"165 490 CURVE SMOOTH",
"88 490 OFFCURVE",
"25 427 OFFCURVE",
"25 350 CURVE SMOOTH",
"25 273 OFFCURVE",
"88 210 OFFCURVE",
"165 210 CURVE SMOOTH"
);
}
);
width = 330;
}
);
unicode = 00B7;
userData = {
com.typemytype.robofont.guides = (
{
angle = 0;
isGlobal = 0;
magnetic = 5;
x = 0;
y = 300;
}
);
};
},
{
glyphname = hyphen;
layers = (
{
guideLines = (
{
position = "{0, 300}";
}
);
hints = (
{
horizontal = 1;
origin = "{0, 0}";
type = Tag;
}
);
layerId = "581BC726-83A6-4935-8633-5A6508251040";
paths = (
{
closed = 1;
nodes = (
"391 271 LINE SMOOTH",
"404 271 OFFCURVE",
"413 280 OFFCURVE",
"413 293 CURVE SMOOTH",
"413 307 LINE SMOOTH",
"413 320 OFFCURVE",
"404 329 OFFCURVE",
"391 329 CURVE SMOOTH",
"96 329 LINE SMOOTH",
"83 329 OFFCURVE",
"74 320 OFFCURVE",
"74 307 CURVE SMOOTH",
"74 293 LINE SMOOTH",
"74 280 OFFCURVE",
"83 271 OFFCURVE",
"96 271 CURVE SMOOTH"
);
}
);
width = 487;
},
{
guideLines = (
{
position = "{0, 300}";
},
{
angle = 90;
position = "{469, 0}";
}
);
layerId = "EC64484B-0978-4CB1-9EE9-C40A2D8C4059";
paths = (
{
closed = 1;
nodes = (
"398 202 LINE SMOOTH",
"413 202 OFFCURVE",
"425 214 OFFCURVE",
"425 229 CURVE SMOOTH",
"425 371 LINE SMOOTH",
"425 386 OFFCURVE",
"413 398 OFFCURVE",
"398 398 CURVE SMOOTH",
"73 398 LINE SMOOTH",
"58 398 OFFCURVE",
"46 386 OFFCURVE",
"46 371 CURVE SMOOTH",
"46 229 LINE SMOOTH",
"46 214 OFFCURVE",
"58 202 OFFCURVE",
"73 202 CURVE SMOOTH"
);
}
);
width = 471;
}
);
leftKerningGroup = hyphen;
rightKerningGroup = hyphen;
unicode = 002D;
userData = {
com.typemytype.robofont.guides = (
{
angle = 0;
isGlobal = 0;
magnetic = 5;
x = 0;
y = 300;
}
);
};
},
{
glyphname = quotesingle;
layers = (
{
guideLines = (
{
angle = 90;
position = "{51, 0}";
}
);
hints = (
{
horizontal = 1;
origin = "{0, 4}";
type = Tag;
}
);
layerId = "581BC726-83A6-4935-8633-5A6508251040";
paths = (
{
closed = 1;
nodes = (
"113 508 LINE SMOOTH",
"124 508 OFFCURVE",
"129 516 OFFCURVE",
"130 527 CURVE SMOOTH",
"145 690 LINE",
"146 702 OFFCURVE",
"138 710 OFFCURVE",
"126 710 CURVE SMOOTH",
"81 710 LINE SMOOTH",
"69 710 OFFCURVE",
"61 702 OFFCURVE",
"62 690 CURVE SMOOTH",
"77 527 LINE SMOOTH",
"78 516 OFFCURVE",
"83 508 OFFCURVE",
"94 508 CURVE SMOOTH"
);
}
);
width = 207;
},
{
guideLines = (
{
position = "{0, 688}";
},
{
position = "{0, 408}";
}
);
layerId = "EC64484B-0978-4CB1-9EE9-C40A2D8C4059";
paths = (
{
closed = 1;
nodes = (
"173 408 LINE SMOOTH",
"199 408 OFFCURVE",
"206 424 OFFCURVE",
"208 440 CURVE SMOOTH",
"235 674 LINE SMOOTH",
"238 696 OFFCURVE",
"227 710 OFFCURVE",
"208 710 CURVE SMOOTH",
"56 710 LINE SMOOTH",
"37 710 OFFCURVE",
"26 696 OFFCURVE",
"29 674 CURVE SMOOTH",
"56 440 LINE SMOOTH",
"58 424 OFFCURVE",
"65 408 OFFCURVE",
"91 408 CURVE SMOOTH"
);
}
);
width = 264;
}
);
leftKerningGroup = quotesingle;
rightKerningGroup = quotesingle;
unicode = 0027;
userData = {
com.typemytype.robofont.guides = (
{
angle = 90;
isGlobal = 0;
magnetic = 5;
x = 51;
y = 0;
}
);
};
},
{
glyphname = quotedbl;
layers = (
{
hints = (
{
horizontal = 1;
origin = "{1, 4}";
type = Tag;
}
);
layerId = "581BC726-83A6-4935-8633-5A6508251040";
paths = (
{
closed = 1;
nodes = (
"246 508 LINE SMOOTH",
"257 508 OFFCURVE",
"262 516 OFFCURVE",
"263 527 CURVE SMOOTH",
"278 690 LINE",
"279 702 OFFCURVE",
"271 710 OFFCURVE",
"259 710 CURVE SMOOTH",
"214 710 LINE SMOOTH",
"202 710 OFFCURVE",
"194 702 OFFCURVE",
"195 690 CURVE SMOOTH",
"210 527 LINE SMOOTH",
"211 516 OFFCURVE",
"216 508 OFFCURVE",
"227 508 CURVE SMOOTH"
);
},
{
closed = 1;
nodes = (
"113 508 LINE SMOOTH",
"124 508 OFFCURVE",
"129 516 OFFCURVE",
"130 527 CURVE SMOOTH",
"145 690 LINE",
"146 702 OFFCURVE",
"138 710 OFFCURVE",
"126 710 CURVE SMOOTH",
"81 710 LINE SMOOTH",
"69 710 OFFCURVE",
"61 702 OFFCURVE",
"62 690 CURVE SMOOTH",
"77 527 LINE SMOOTH",
"78 516 OFFCURVE",
"83 508 OFFCURVE",
"94 508 CURVE SMOOTH"
);
}
);
width = 340;
},
{
guideLines = (
{
position = "{0, 408}";
},
{
position = "{0, 458}";
},
{
angle = 90;
position = "{286, 0}";
},
{
angle = 90;
position = "{237, 0}";
}
);
layerId = "EC64484B-0978-4CB1-9EE9-C40A2D8C4059";
paths = (
{
closed = 1;
nodes = (
"428 408 LINE SMOOTH",
"454 408 OFFCURVE",
"461 424 OFFCURVE",
"463 440 CURVE SMOOTH",
"490 674 LINE SMOOTH",
"493 696 OFFCURVE",
"482 710 OFFCURVE",
"463 710 CURVE SMOOTH",
"311 710 LINE SMOOTH",
"292 710 OFFCURVE",
"281 696 OFFCURVE",
"284 674 CURVE SMOOTH",
"311 440 LINE SMOOTH",
"313 424 OFFCURVE",
"320 408 OFFCURVE",
"346 408 CURVE SMOOTH"
);
},
{
closed = 1;
nodes = (
"173 408 LINE SMOOTH",
"199 408 OFFCURVE",
"206 424 OFFCURVE",
"208 440 CURVE SMOOTH",
"235 674 LINE SMOOTH",
"238 696 OFFCURVE",
"227 710 OFFCURVE",
"208 710 CURVE SMOOTH",
"56 710 LINE SMOOTH",
"37 710 OFFCURVE",
"26 696 OFFCURVE",
"29 674 CURVE SMOOTH",
"56 440 LINE SMOOTH",
"58 424 OFFCURVE",
"65 408 OFFCURVE",
"91 408 CURVE SMOOTH"
);
}
);
width = 519;
}
);
leftKerningGroup = quotesingle;
rightKerningGroup = quotesingle;
unicode = 0022;
},
{
glyphname = quoteleft;
layers = (
{
layerId = "581BC726-83A6-4935-8633-5A6508251040";
paths = (
{
closed = 1;
nodes = (
"119 542 LINE SMOOTH",
"135 542 OFFCURVE",
"142 553 OFFCURVE",
"144 569 CURVE SMOOTH",
"163 689 LINE SMOOTH",
"165 701 OFFCURVE",
"160 710 OFFCURVE",
"149 710 CURVE SMOOTH",
"132 710 LINE SMOOTH",
"117 710 OFFCURVE",
"112 702 OFFCURVE",
"106 689 CURVE",
"63 576 LINE SMOOTH",
"60 569 OFFCURVE",
"59 563 OFFCURVE",
"59 558 CURVE SMOOTH",
"59 550 OFFCURVE",
"65 542 OFFCURVE",
"74 542 CURVE SMOOTH"
);
}
);
width = 220;
},
{
guideLines = (
{
position = "{0, 410}";
},
{
position = "{0, 710}";
}
);
layerId = "EC64484B-0978-4CB1-9EE9-C40A2D8C4059";
paths = (
{
closed = 1;
nodes = (
"197 407 LINE SMOOTH",
"224 407 OFFCURVE",
"237 428 OFFCURVE",
"240 446 CURVE SMOOTH",
"277 686 LINE SMOOTH",
"279 702 OFFCURVE",
"267 710 OFFCURVE",
"255 710 CURVE SMOOTH",
"154 710 LINE SMOOTH",
"128 710 OFFCURVE",
"116 691 OFFCURVE",
"111 678 CURVE SMOOTH",
"16 436 LINE SMOOTH",
"15 433 OFFCURVE",
"15 431 OFFCURVE",
"15 429 CURVE SMOOTH",
"15 417 OFFCURVE",
"25 407 OFFCURVE",
"37 407 CURVE SMOOTH"
);
}
);
width = 300;
}
);
leftKerningGroup = quoteleft;
rightKerningGroup = quoteleft;
unicode = 2018;
},
{
glyphname = quoteright;
layers = (
{
layerId = "581BC726-83A6-4935-8633-5A6508251040";
paths = (
{
closed = 1;
nodes = (
"95 542 LINE SMOOTH",
"110 542 OFFCURVE",
"115 550 OFFCURVE",
"121 563 CURVE",
"164 676 LINE SMOOTH",
"167 683 OFFCURVE",
"168 689 OFFCURVE",
"168 694 CURVE SMOOTH",
"168 702 OFFCURVE",
"162 710 OFFCURVE",
"153 710 CURVE SMOOTH",
"108 710 LINE SMOOTH",
"92 710 OFFCURVE",
"85 699 OFFCURVE",
"83 683 CURVE SMOOTH",
"64 563 LINE SMOOTH",
"62 551 OFFCURVE",
"67 542 OFFCURVE",
"78 542 CURVE SMOOTH"
);
}
);
width = 213;
},
{
layerId = "EC64484B-0978-4CB1-9EE9-C40A2D8C4059";
paths = (
{
closed = 1;
nodes = (
"151 407 LINE SMOOTH",
"177 407 OFFCURVE",
"189 426 OFFCURVE",
"194 439 CURVE SMOOTH",
"289 681 LINE SMOOTH",
"290 684 OFFCURVE",
"290 686 OFFCURVE",
"290 688 CURVE SMOOTH",
"290 700 OFFCURVE",
"280 710 OFFCURVE",
"268 710 CURVE SMOOTH",
"108 710 LINE SMOOTH",
"81 710 OFFCURVE",
"68 689 OFFCURVE",
"65 671 CURVE SMOOTH",
"28 431 LINE SMOOTH",
"26 415 OFFCURVE",
"38 407 OFFCURVE",
"50 407 CURVE SMOOTH"
);
}
);
width = 295;
}
);
leftKerningGroup = quoteright;
rightKerningGroup = quoteright;
unicode = 2019;
},
{
glyphname = quotesinglbase;
layers = (
{
layerId = "581BC726-83A6-4935-8633-5A6508251040";
paths = (
{
closed = 1;
nodes = (
"90 -75 LINE SMOOTH",
"105 -75 OFFCURVE",
"110 -67 OFFCURVE",
"116 -54 CURVE",
"159 59 LINE SMOOTH",
"162 66 OFFCURVE",
"163 72 OFFCURVE",
"163 77 CURVE SMOOTH",
"163 85 OFFCURVE",
"157 93 OFFCURVE",
"148 93 CURVE SMOOTH",
"103 93 LINE SMOOTH",
"87 93 OFFCURVE",
"80 82 OFFCURVE",
"78 66 CURVE SMOOTH",
"59 -54 LINE SMOOTH",
"57 -66 OFFCURVE",
"62 -75 OFFCURVE",
"73 -75 CURVE SMOOTH"
);
}
);
width = 237;
},
{
guideLines = (
{
position = "{0, -75}";
},
{
position = "{0, 228}";
}
);
layerId = "EC64484B-0978-4CB1-9EE9-C40A2D8C4059";
paths = (
{
closed = 1;
nodes = (
"140 -75 LINE SMOOTH",
"166 -75 OFFCURVE",
"178 -56 OFFCURVE",
"183 -43 CURVE SMOOTH",
"278 199 LINE SMOOTH",
"279 202 OFFCURVE",
"279 204 OFFCURVE",
"279 206 CURVE SMOOTH",
"279 218 OFFCURVE",
"269 228 OFFCURVE",
"257 228 CURVE SMOOTH",
"97 228 LINE SMOOTH",
"70 228 OFFCURVE",
"57 207 OFFCURVE",
"54 189 CURVE SMOOTH",
"17 -51 LINE SMOOTH",
"15 -67 OFFCURVE",
"26 -75 OFFCURVE",
"39 -75 CURVE SMOOTH"
);
}
);
width = 302;
}
);
leftKerningGroup = period;
rightKerningGroup = period;
unicode = 201A;
},
{
glyphname = quotedblleft;
layers = (
{
layerId = "581BC726-83A6-4935-8633-5A6508251040";
paths = (
{
closed = 1;
nodes = (
"253 542 LINE SMOOTH",
"269 542 OFFCURVE",
"276 553 OFFCURVE",
"278 569 CURVE SMOOTH",
"297 689 LINE SMOOTH",
"299 701 OFFCURVE",
"294 710 OFFCURVE",
"283 710 CURVE SMOOTH",
"266 710 LINE SMOOTH",
"251 710 OFFCURVE",
"246 702 OFFCURVE",
"240 689 CURVE",
"197 576 LINE SMOOTH",
"194 569 OFFCURVE",
"193 563 OFFCURVE",
"193 558 CURVE SMOOTH",
"193 550 OFFCURVE",
"199 542 OFFCURVE",
"208 542 CURVE SMOOTH"
);
},
{
closed = 1;
nodes = (
"119 542 LINE SMOOTH",
"135 542 OFFCURVE",
"142 553 OFFCURVE",
"144 569 CURVE SMOOTH",
"163 689 LINE SMOOTH",
"165 701 OFFCURVE",
"160 710 OFFCURVE",
"149 710 CURVE SMOOTH",
"132 710 LINE SMOOTH",
"117 710 OFFCURVE",
"112 702 OFFCURVE",
"106 689 CURVE",
"63 576 LINE SMOOTH",
"60 569 OFFCURVE",
"59 563 OFFCURVE",
"59 558 CURVE SMOOTH",
"59 550 OFFCURVE",
"65 542 OFFCURVE",
"74 542 CURVE SMOOTH"
);
}
);
width = 354;
},
{
layerId = "EC64484B-0978-4CB1-9EE9-C40A2D8C4059";
paths = (
{
closed = 1;
nodes = (
"469 407 LINE SMOOTH",
"496 407 OFFCURVE",
"509 428 OFFCURVE",
"512 446 CURVE SMOOTH",
"549 686 LINE SMOOTH",
"551 700 OFFCURVE",
"539 710 OFFCURVE",
"527 710 CURVE SMOOTH",
"426 710 LINE SMOOTH",
"400 710 OFFCURVE",
"388 691 OFFCURVE",
"383 678 CURVE SMOOTH",
"288 436 LINE SMOOTH",
"287 433 OFFCURVE",
"287 431 OFFCURVE",
"287 429 CURVE SMOOTH",
"287 417 OFFCURVE",
"297 407 OFFCURVE",
"309 407 CURVE SMOOTH"
);
},
{
closed = 1;
nodes = (
"197 407 LINE SMOOTH",
"224 407 OFFCURVE",
"237 428 OFFCURVE",
"240 446 CURVE SMOOTH",
"277 686 LINE SMOOTH",
"279 700 OFFCURVE",
"267 710 OFFCURVE",
"255 710 CURVE SMOOTH",
"154 710 LINE SMOOTH",
"128 710 OFFCURVE",
"116 691 OFFCURVE",
"111 678 CURVE SMOOTH",
"16 436 LINE SMOOTH",
"15 433 OFFCURVE",
"15 431 OFFCURVE",
"15 429 CURVE SMOOTH",
"15 417 OFFCURVE",
"25 407 OFFCURVE",
"37 407 CURVE SMOOTH"
);
}
);
width = 572;
}
);
leftKerningGroup = quoteleft;
rightKerningGroup = quoteleft;
unicode = 201C;
},
{
glyphname = quotedblright;
layers = (
{
layerId = "581BC726-83A6-4935-8633-5A6508251040";
paths = (
{
closed = 1;
nodes = (
"229 542 LINE SMOOTH",
"244 542 OFFCURVE",
"249 550 OFFCURVE",
"255 563 CURVE",
"298 676 LINE SMOOTH",
"301 683 OFFCURVE",
"302 689 OFFCURVE",
"302 694 CURVE SMOOTH",
"302 702 OFFCURVE",
"296 710 OFFCURVE",
"287 710 CURVE SMOOTH",
"242 710 LINE SMOOTH",
"226 710 OFFCURVE",
"219 699 OFFCURVE",
"217 683 CURVE SMOOTH",
"198 563 LINE SMOOTH",
"196 551 OFFCURVE",
"201 542 OFFCURVE",
"212 542 CURVE SMOOTH"
);
},
{
closed = 1;
nodes = (
"95 542 LINE SMOOTH",
"110 542 OFFCURVE",
"115 550 OFFCURVE",
"121 563 CURVE",
"164 676 LINE SMOOTH",
"167 683 OFFCURVE",
"168 689 OFFCURVE",
"168 694 CURVE SMOOTH",
"168 702 OFFCURVE",
"162 710 OFFCURVE",
"153 710 CURVE SMOOTH",
"108 710 LINE SMOOTH",
"92 710 OFFCURVE",
"85 699 OFFCURVE",
"83 683 CURVE SMOOTH",
"64 563 LINE SMOOTH",
"62 551 OFFCURVE",
"67 542 OFFCURVE",
"78 542 CURVE SMOOTH"
);
}
);
width = 347;
},
{
layerId = "EC64484B-0978-4CB1-9EE9-C40A2D8C4059";
paths = (
{
closed = 1;
nodes = (
"423 407 LINE SMOOTH",
"449 407 OFFCURVE",
"461 426 OFFCURVE",
"466 439 CURVE SMOOTH",
"561 681 LINE SMOOTH",
"562 684 OFFCURVE",
"562 686 OFFCURVE",
"562 688 CURVE SMOOTH",
"562 700 OFFCURVE",
"552 710 OFFCURVE",
"540 710 CURVE SMOOTH",
"380 710 LINE SMOOTH",
"353 710 OFFCURVE",
"340 689 OFFCURVE",
"337 671 CURVE SMOOTH",
"300 431 LINE SMOOTH",
"298 417 OFFCURVE",
"310 407 OFFCURVE",
"322 407 CURVE SMOOTH"
);
},
{
closed = 1;
nodes = (
"151 407 LINE SMOOTH",
"177 407 OFFCURVE",
"189 426 OFFCURVE",
"194 439 CURVE SMOOTH",
"289 681 LINE SMOOTH",
"290 684 OFFCURVE",
"290 686 OFFCURVE",
"290 688 CURVE SMOOTH",
"290 700 OFFCURVE",
"280 710 OFFCURVE",
"268 710 CURVE SMOOTH",
"108 710 LINE SMOOTH",
"81 710 OFFCURVE",
"68 689 OFFCURVE",
"65 671 CURVE SMOOTH",
"28 431 LINE SMOOTH",
"26 417 OFFCURVE",
"38 407 OFFCURVE",
"50 407 CURVE SMOOTH"
);
}
);
width = 567;
}
);
leftKerningGroup = quoteright;
rightKerningGroup = quoteright;
unicode = 201D;
},
{
glyphname = quotedblbase;
layers = (
{
guideLines = (
{
position = "{0, -75}";
}
);
layerId = "581BC726-83A6-4935-8633-5A6508251040";
paths = (
{
closed = 1;
nodes = (
"224 -75 LINE SMOOTH",
"239 -75 OFFCURVE",
"244 -67 OFFCURVE",
"250 -54 CURVE",
"293 59 LINE SMOOTH",
"296 66 OFFCURVE",
"297 72 OFFCURVE",
"297 77 CURVE SMOOTH",
"297 85 OFFCURVE",
"291 93 OFFCURVE",
"282 93 CURVE SMOOTH",
"237 93 LINE SMOOTH",
"221 93 OFFCURVE",
"214 82 OFFCURVE",
"212 66 CURVE SMOOTH",
"193 -54 LINE SMOOTH",
"191 -66 OFFCURVE",
"196 -75 OFFCURVE",
"207 -75 CURVE SMOOTH"
);
},
{
closed = 1;
nodes = (
"90 -75 LINE SMOOTH",
"105 -75 OFFCURVE",
"110 -67 OFFCURVE",
"116 -54 CURVE",
"159 59 LINE SMOOTH",
"162 66 OFFCURVE",
"163 72 OFFCURVE",
"163 77 CURVE SMOOTH",
"163 85 OFFCURVE",
"157 93 OFFCURVE",
"148 93 CURVE SMOOTH",
"103 93 LINE SMOOTH",
"87 93 OFFCURVE",
"80 82 OFFCURVE",
"78 66 CURVE SMOOTH",
"59 -54 LINE SMOOTH",
"57 -66 OFFCURVE",
"62 -75 OFFCURVE",
"73 -75 CURVE SMOOTH"
);
}
);
width = 371;
},
{
guideLines = (
{
position = "{0, -75}";
}
);
layerId = "EC64484B-0978-4CB1-9EE9-C40A2D8C4059";
paths = (
{
closed = 1;
nodes = (
"412 -75 LINE SMOOTH",
"438 -75 OFFCURVE",
"450 -56 OFFCURVE",
"455 -43 CURVE SMOOTH",
"550 199 LINE SMOOTH",
"551 202 OFFCURVE",
"551 204 OFFCURVE",
"551 206 CURVE SMOOTH",
"551 218 OFFCURVE",
"541 228 OFFCURVE",
"529 228 CURVE SMOOTH",
"369 228 LINE SMOOTH",
"342 228 OFFCURVE",
"329 207 OFFCURVE",
"326 189 CURVE",
"289 -53 LINE SMOOTH",
"287 -65 OFFCURVE",
"299 -75 OFFCURVE",
"311 -75 CURVE SMOOTH"
);
},
{
closed = 1;
nodes = (
"140 -75 LINE SMOOTH",
"166 -75 OFFCURVE",
"178 -56 OFFCURVE",
"183 -43 CURVE SMOOTH",
"278 199 LINE SMOOTH",
"279 202 OFFCURVE",
"279 204 OFFCURVE",
"279 206 CURVE SMOOTH",
"279 218 OFFCURVE",
"269 228 OFFCURVE",
"257 228 CURVE SMOOTH",
"97 228 LINE SMOOTH",
"70 228 OFFCURVE",
"57 207 OFFCURVE",
"54 189 CURVE SMOOTH",
"17 -51 LINE SMOOTH",
"15 -65 OFFCURVE",
"27 -75 OFFCURVE",
"39 -75 CURVE SMOOTH"
);
}
);
width = 574;
}
);
leftKerningGroup = period;
rightKerningGroup = period;
unicode = 201E;
userData = {
com.typemytype.robofont.guides = (
{
angle = 0;
isGlobal = 0;
magnetic = 5;
x = 0;
y = "-75";
}
);
};
},
{
glyphname = parenleft;
layers = (
{
guideLines = (
{
position = "{0, -159}";
},
{
position = "{0, 776}";
},
{
position = "{0, 309}";
},
{
angle = 90;
position = "{300, 0}";
}
);
hints = (
{
horizontal = 1;
origin = "{0, 9}";
type = Tag;
},
{
horizontal = 1;
origin = "{0, 15}";
type = Tag;
}
);
layerId = "581BC726-83A6-4935-8633-5A6508251040";
paths = (
{
closed = 1;
nodes = (
"284 -159 OFFCURVE",
"294 -149 OFFCURVE",
"294 -137 CURVE SMOOTH",
"294 -123 LINE SMOOTH",
"294 -111 OFFCURVE",
"284 -101 OFFCURVE",
"275 -101 CURVE SMOOTH",
"163 -101 OFFCURVE",
"123 -8 OFFCURVE",
"123 309 CURVE SMOOTH",
"123 626 OFFCURVE",
"163 718 OFFCURVE",
"275 718 CURVE SMOOTH",
"284 718 OFFCURVE",
"294 728 OFFCURVE",
"294 740 CURVE SMOOTH",
"294 754 LINE SMOOTH",
"294 766 OFFCURVE",
"284 776 OFFCURVE",
"272 776 CURVE SMOOTH",
"103 776 OFFCURVE",
"64 632 OFFCURVE",
"64 309 CURVE SMOOTH",
"64 -14 OFFCURVE",
"103 -159 OFFCURVE",
"272 -159 CURVE SMOOTH"
);
}
);
width = 319;
},
{
guideLines = (
{
position = "{0, 595}";
},
{
position = "{0, 191}";
},
{
angle = 90;
position = "{422, 0}";
}
);
layerId = "EC64484B-0978-4CB1-9EE9-C40A2D8C4059";
paths = (
{
closed = 1;
nodes = (
"389 -159 OFFCURVE",
"401 -147 OFFCURVE",
"401 -132 CURVE SMOOTH",
"401 -5 LINE SMOOTH",
"401 10 OFFCURVE",
"389 21 OFFCURVE",
"374 22 CURVE SMOOTH",
"266 32 OFFCURVE",
"240 165 OFFCURVE",
"240 309 CURVE SMOOTH",
"240 453 OFFCURVE",
"266 585 OFFCURVE",
"374 595 CURVE SMOOTH",
"389 596 OFFCURVE",
"401 607 OFFCURVE",
"401 622 CURVE SMOOTH",
"401 749 LINE SMOOTH",
"401 764 OFFCURVE",
"389 776 OFFCURVE",
"374 776 CURVE SMOOTH",
"182 776 OFFCURVE",
"29 649 OFFCURVE",
"29 309 CURVE SMOOTH",
"29 -31 OFFCURVE",
"182 -159 OFFCURVE",
"374 -159 CURVE SMOOTH"
);
}
);
width = 423;
}
);
unicode = 0028;
userData = {
com.typemytype.robofont.guides = (
{
angle = 0;
isGlobal = 0;
magnetic = 5;
x = 0;
y = "-159";
},
{
angle = 0;
isGlobal = 0;
magnetic = 5;
x = 0;
y = 776;
},
{
angle = 0;
isGlobal = 0;
magnetic = 5;
x = 0;
y = 309;
},
{
angle = 90;
isGlobal = 0;
magnetic = 5;
x = 300;
y = 0;
}
);
};
},
{
glyphname = parenright;
layers = (
{
hints = (
{
horizontal = 1;
origin = "{0, 15}";
type = Tag;
},
{
horizontal = 1;
origin = "{0, 21}";
type = Tag;
}
);
layerId = "581BC726-83A6-4935-8633-5A6508251040";
paths = (
{
closed = 1;
nodes = (
"216 -159 OFFCURVE",
"255 -14 OFFCURVE",
"255 309 CURVE SMOOTH",
"255 632 OFFCURVE",
"216 776 OFFCURVE",
"47 776 CURVE SMOOTH",
"35 776 OFFCURVE",
"25 766 OFFCURVE",
"25 754 CURVE SMOOTH",
"25 740 LINE SMOOTH",
"25 728 OFFCURVE",
"35 718 OFFCURVE",
"44 718 CURVE SMOOTH",
"156 718 OFFCURVE",
"196 626 OFFCURVE",
"196 309 CURVE SMOOTH",
"196 -8 OFFCURVE",
"156 -101 OFFCURVE",
"44 -101 CURVE SMOOTH",
"35 -101 OFFCURVE",
"25 -111 OFFCURVE",
"25 -123 CURVE SMOOTH",
"25 -137 LINE SMOOTH",
"25 -149 OFFCURVE",
"35 -159 OFFCURVE",
"47 -159 CURVE SMOOTH"
);
}
);
width = 319;
},
{
layerId = "EC64484B-0978-4CB1-9EE9-C40A2D8C4059";
paths = (
{
closed = 1;
nodes = (
"241 -159 OFFCURVE",
"394 -31 OFFCURVE",
"394 309 CURVE SMOOTH",
"394 649 OFFCURVE",
"241 776 OFFCURVE",
"49 776 CURVE SMOOTH",
"34 776 OFFCURVE",
"22 764 OFFCURVE",
"22 749 CURVE SMOOTH",
"22 622 LINE SMOOTH",
"22 607 OFFCURVE",
"34 596 OFFCURVE",
"49 595 CURVE SMOOTH",
"157 585 OFFCURVE",
"183 453 OFFCURVE",
"183 309 CURVE SMOOTH",
"183 165 OFFCURVE",
"157 32 OFFCURVE",
"49 22 CURVE SMOOTH",
"34 21 OFFCURVE",
"22 10 OFFCURVE",
"22 -5 CURVE SMOOTH",
"22 -132 LINE SMOOTH",
"22 -147 OFFCURVE",
"34 -159 OFFCURVE",
"49 -159 CURVE SMOOTH"
);
}
);
width = 423;
}
);
unicode = 0029;
},
{
glyphname = bracketleft;
layers = (
{
guideLines = (
{
position = "{0, 776}";
},
{
position = "{0, -159}";
},
{
angle = 90;
position = "{141, 0}";
}
);
hints = (
{
horizontal = 1;
origin = "{0, 8}";
type = Tag;
},
{
horizontal = 1;
origin = "{0, 13}";
type = Tag;
}
);
layerId = "581BC726-83A6-4935-8633-5A6508251040";
paths = (
{
closed = 1;
nodes = (
"251 -159 LINE SMOOTH",
"264 -159 OFFCURVE",
"273 -150 OFFCURVE",
"273 -137 CURVE SMOOTH",
"273 -123 LINE SMOOTH",
"273 -110 OFFCURVE",
"264 -101 OFFCURVE",
"251 -101 CURVE SMOOTH",
"139 -101 LINE",
"139 718 LINE",
"251 718 LINE SMOOTH",
"264 718 OFFCURVE",
"273 727 OFFCURVE",
"273 740 CURVE SMOOTH",
"273 754 LINE SMOOTH",
"273 767 OFFCURVE",
"264 776 OFFCURVE",
"251 776 CURVE SMOOTH",
"100 776 LINE SMOOTH",
"87 776 OFFCURVE",
"78 767 OFFCURVE",
"78 754 CURVE SMOOTH",
"78 -137 LINE SMOOTH",
"78 -150 OFFCURVE",
"87 -159 OFFCURVE",
"100 -159 CURVE SMOOTH"
);
}
);
width = 301;
},
{
guideLines = (
{
position = "{0, 776}";
},
{
position = "{0, -159}";
},
{
position = "{0, 593}";
},
{
angle = 90;
position = "{417, 0}";
}
);
layerId = "EC64484B-0978-4CB1-9EE9-C40A2D8C4059";
paths = (
{
closed = 1;
nodes = (
"381 -159 LINE SMOOTH",
"396 -159 OFFCURVE",
"408 -147 OFFCURVE",
"408 -132 CURVE SMOOTH",
"408 15 LINE SMOOTH",
"408 30 OFFCURVE",
"396 42 OFFCURVE",
"381 42 CURVE SMOOTH",
"262 42 LINE",
"262 593 LINE",
"381 593 LINE SMOOTH",
"396 593 OFFCURVE",
"408 605 OFFCURVE",
"408 620 CURVE SMOOTH",
"408 749 LINE SMOOTH",
"408 764 OFFCURVE",
"396 776 OFFCURVE",
"381 776 CURVE SMOOTH",
"78 776 LINE SMOOTH",
"63 776 OFFCURVE",
"51 764 OFFCURVE",
"51 749 CURVE SMOOTH",
"51 -132 LINE SMOOTH",
"51 -147 OFFCURVE",
"63 -159 OFFCURVE",
"78 -159 CURVE SMOOTH"
);
}
);
width = 432;
}
);
unicode = 005B;
userData = {
com.typemytype.robofont.guides = (
{
angle = 0;
isGlobal = 0;
magnetic = 5;
x = 0;
y = 776;
},
{
angle = 0;
isGlobal = 0;
magnetic = 5;
x = 0;
y = "-159";
},
{
angle = 90;
isGlobal = 0;
magnetic = 5;
x = 141;
y = 0;
}
);
};
},
